{
.appVersion = "1355";
copyright = "Copyright 2021 Google LLC. All Rights Reserved.";
customParameters = (
{
name = description;
value = "This font is designed based on Nüshu Duben, which the designer is Liu Zhao, the engineering is Eiso Chan, the quality assurance is Kushim Jiang, the design assistant is Kwat Ulan, and the copywriting is Zhu Kui, and the adviser is Ms. He Yanxin.";
},
{
name = trademark;
value = "Noto is a trademark of Google Inc.";
},
{
name = licenseURL;
value = "http://scripts.sil.org/OFL";
},
{
name = sampleText;
value = "   ";
},
{
name = license;
value = "This Font Software is licensed under the SIL Open Font License, Version 1.1. This Font Software is distributed on an \"AS IS\" BASIS, WITHOUT WARRANTIES OR CONDITIONS OF ANY KIND, either express or implied. See the SIL Open Font License for the specific language, permissions and limitations governing your use of this Font Software.";
},
{
name = vendorID;
value = GOOG;
},
{
name = panose;
value = (
2,
0,
6,
9,
0,
0,
0,
0,
0,
0
);
},
{
name = unicodeRanges;
value = (
0,
57,
59
);
},
{
name = fsType;
value = (
);
},
{
name = blueShift;
value = 14;
},
{
name = glyphOrder;
value = (
.notdef,
space,
comma,
hyphen,
period,
zero,
one,
two,
three,
four,
five,
six,
seven,
eight,
nine,
A,
B,
C,
D,
E,
F,
G,
H,
I,
J,
K,
L,
M,
N,
O,
P,
Q,
R,
S,
T,
U,
V,
W,
X,
Y,
Z,
a,
b,
c,
d,
e,
f,
g,
h,
i,
j,
k,
l,
m,
n,
o,
p,
q,
r,
s,
t,
u,
v,
w,
x,
y,
z,
ensp,
emsp,
uni3000,
uni4E00,
uni4E66,
uni4F20,
uni4F53,
uni5973,
uni7EDF,
u16FE1,
u1B170,
u1B171,
u1B172,
u1B173,
u1B174,
u1B175,
u1B176,
u1B177,
u1B178,
u1B179,
u1B17A,
u1B17B,
u1B17C,
u1B17D,
u1B17E,
u1B17F,
u1B180,
u1B181,
u1B182,
u1B183,
u1B184,
u1B185,
u1B186,
u1B187,
u1B188,
u1B189,
u1B18A,
u1B18B,
u1B18C,
u1B18D,
u1B18E,
u1B18F,
u1B190,
u1B191,
u1B192,
u1B193,
u1B194,
u1B195,
u1B196,
u1B197,
u1B198,
u1B199,
u1B19A,
u1B19B,
u1B19C,
u1B19D,
u1B19E,
u1B19F,
u1B1A0,
u1B1A1,
u1B1A2,
u1B1A3,
u1B1A4,
u1B1A5,
u1B1A6,
u1B1A7,
u1B1A8,
u1B1A9,
u1B1AA,
u1B1AB,
u1B1AC,

glyphs = (
{
glyphname = .notdef;
layers = (
{
hints = (
{
horizontal = 1;
place = "{0, 34}";
type = Stem;
},
{
horizontal = 1;
place = "{648, 34}";
type = Stem;
},
{
place = "{364, 34}";
type = Stem;
},
{
place = "{602, 34}";
type = Stem;
}
);
layerId = "BCE9B1DB-4CCD-4D9A-B53B-B8E8A67648C8";
paths = (
{
closed = 1;
nodes = (
"364 0 LINE",
"636 0 LINE",
"636 682 LINE",
"364 682 LINE"
);
},
{
closed = 1;
nodes = (
"398 34 LINE",
"398 648 LINE",
"602 648 LINE",
"602 34 LINE"
);
}
);
vertWidth = 1200;
width = 1000;
}
);
note = .notdef;
},
{
glyphname = comma;
layers = (
{
hints = (
{
horizontal = 1;
place = "{-1, 128}";
type = Stem;
},
{
place = "{153, 68}";
type = Stem;
}
);
layerId = "BCE9B1DB-4CCD-4D9A-B53B-B8E8A67648C8";
paths = (
{
closed = 1;
nodes = (
"75 -190 LINE",
"120.33 -170.67 OFFCURVE",
"156 -142.83 OFFCURVE",
"182 -106.5 CURVE SMOOTH",
"208 -70.17 OFFCURVE",
"221 -28.33 OFFCURVE",
"221 19 CURVE SMOOTH",
"221 52.33 OFFCURVE",
"214.17 78.67 OFFCURVE",
"200.5 98 CURVE SMOOTH",
"186.83 117.33 OFFCURVE",
"168 127 OFFCURVE",
"144 127 CURVE SMOOTH",
"124.67 127 OFFCURVE",
"108.33 121 OFFCURVE",
"95 109 CURVE SMOOTH",
"81.67 97 OFFCURVE",
"75 81.67 OFFCURVE",
"75 63 CURVE SMOOTH",
"75 43 OFFCURVE",
"81.5 27.33 OFFCURVE",
"94.5 16 CURVE SMOOTH",
"107.5 4.67 OFFCURVE",
"123.33 -1 OFFCURVE",
"142 -1 CURVE SMOOTH",
"146.67 -1 OFFCURVE",
"150.33 -0.67 OFFCURVE",
"153 0 CURVE",
"151.67 -62 OFFCURVE",
"118.33 -107.33 OFFCURVE",
"53 -136 CURVE"
);
}
);
vertWidth = 1000;
width = 278;
}
);
note = comma;
unicode = 002C;
},
{
glyphname = hyphen;
layers = (
{
hints = (
{
horizontal = 1;
place = "{245, 70}";
type = Stem;
},
{
place = "{46, 256}";
type = Stem;
}
);
layerId = "BCE9B1DB-4CCD-4D9A-B53B-B8E8A67648C8";
paths = (
{
closed = 1;
nodes = (
"46 245 LINE",
"302 245 LINE",
"302 315 LINE",
"46 315 LINE"
);
}
);
vertWidth = 1000;
width = 347;
}
);
note = hyphen;
unicode = 002D;
},
{
glyphname = period;
layers = (
{
hints = (
{
horizontal = 1;
place = "{-13, 21}";
target = up;
type = BottomGhost;
},
{
place = "{73, 132}";
type = Stem;
},
{
horizontal = 1;
place = "{-13, 140}";
type = Stem;
}
);
layerId = "BCE9B1DB-4CCD-4D9A-B53B-B8E8A67648C8";
paths = (
{
closed = 1;
nodes = (
"157.67 -13 OFFCURVE",
"173.33 -6.5 OFFCURVE",
"186 6.5 CURVE SMOOTH",
"198.67 19.5 OFFCURVE",
"205 36 OFFCURVE",
"205 56 CURVE SMOOTH",
"205 76 OFFCURVE",
"198.5 92.83 OFFCURVE",
"185.5 106.5 CURVE SMOOTH",
"172.5 120.17 OFFCURVE",
"157 127 OFFCURVE",
"139 127 CURVE SMOOTH",
"121 127 OFFCURVE",
"105.5 120.17 OFFCURVE",
"92.5 106.5 CURVE SMOOTH",
"79.5 92.83 OFFCURVE",
"73 76 OFFCURVE",
"73 56 CURVE SMOOTH",
"73 36 OFFCURVE",
"79.33 19.5 OFFCURVE",
"92 6.5 CURVE SMOOTH",
"104.67 -6.5 OFFCURVE",
"120.33 -13 OFFCURVE",
"139 -13 CURVE SMOOTH"
);
}
);
vertWidth = 1000;
width = 278;
}
);
note = period;
unicode = 002E;
},
{
glyphname = zero;
layers = (
{
hints = (
{
horizontal = 1;
place = "{-13, 73}";
type = Stem;
},
{
horizontal = 1;
place = "{673, 74}";
type = Stem;
},
{
place = "{49, 89}";
type = Stem;
},
{
place = "{417, 89}";
type = Stem;
}
);
layerId = "BCE9B1DB-4CCD-4D9A-B53B-B8E8A67648C8";
paths = (
{
closed = 1;
nodes = (
"349.33 -13 OFFCURVE",
"405.17 19.5 OFFCURVE",
"445.5 84.5 CURVE SMOOTH",
"485.83 149.5 OFFCURVE",
"506 244.33 OFFCURVE",
"506 369 CURVE SMOOTH",
"506 493 OFFCURVE",
"485.83 587 OFFCURVE",
"445.5 651 CURVE SMOOTH",
"405.17 715 OFFCURVE",
"349.33 747 OFFCURVE",
"278 747 CURVE SMOOTH",
"206 747 OFFCURVE",
"149.83 715.17 OFFCURVE",
"109.5 651.5 CURVE SMOOTH",
"69.17 587.83 OFFCURVE",
"49 493.67 OFFCURVE",
"49 369 CURVE SMOOTH",
"49 244.33 OFFCURVE",
"69.33 149.5 OFFCURVE",
"110 84.5 CURVE SMOOTH",
"150.67 19.5 OFFCURVE",
"206.67 -13 OFFCURVE",
"278 -13 CURVE SMOOTH"
);
},
{
closed = 1;
nodes = (
"234 60 OFFCURVE",
"199.67 85.33 OFFCURVE",
"175 136 CURVE SMOOTH",
"150.33 186.67 OFFCURVE",
"138 264.33 OFFCURVE",
"138 369 CURVE SMOOTH",
"138 472.33 OFFCURVE",
"150.33 548.83 OFFCURVE",
"175 598.5 CURVE SMOOTH",
"199.67 648.17 OFFCURVE",
"234 673 OFFCURVE",
"278 673 CURVE SMOOTH",
"321.33 673 OFFCURVE",
"355.33 648.17 OFFCURVE",
"380 598.5 CURVE SMOOTH",
"404.67 548.83 OFFCURVE",
"417 472.33 OFFCURVE",
"417 369 CURVE SMOOTH",
"417 265 OFFCURVE",
"404.67 187.5 OFFCURVE",
"380 136.5 CURVE SMOOTH",
"355.33 85.5 OFFCURVE",
"321.33 60 OFFCURVE",
"278 60 CURVE SMOOTH"
);
}
);
vertWidth = 1000;
width = 555;
}
);
note = zero;
unicode = 0030;
},
{
glyphname = one;
layers = (
{
hints = (
{
horizontal = 1;
place = "{0, 76}";
type = Stem;
},
{
horizontal = 1;
place = "{623, 110}";
type = Stem;
},
{
place = "{251, 92}";
type = Stem;
}
);
layerId = "BCE9B1DB-4CCD-4D9A-B53B-B8E8A67648C8";
paths = (
{
closed = 1;
nodes = (
"88 76 LINE",
"88 0 LINE",
"490 0 LINE",
"490 76 LINE",
"343 76 LINE",
"343 733 LINE",
"273 733 LINE",
"232.33 709.67 OFFCURVE",
"181.67 692.33 OFFCURVE",
"121 681 CURVE",
"121 623 LINE",
"251 623 LINE",
"251 76 LINE"
);
}
);
vertWidth = 1000;
width = 555;
}
);
note = one;
unicode = 0031;
},
{
glyphname = two;
layers = (
{
hints = (
{
horizontal = 1;
place = "{0, 79}";
type = Stem;
},
{
horizontal = 1;
place = "{672, 75}";
type = Stem;
},
{
place = "{380, 89}";
type = Stem;
}
);
layerId = "BCE9B1DB-4CCD-4D9A-B53B-B8E8A67648C8";
paths = (
{
closed = 1;
nodes = (
"44 0 LINE",
"505 0 LINE",
"505 79 LINE",
"302 79 LINE SMOOTH",
"281.33 79 OFFCURVE",
"241.33 76.67 OFFCURVE",
"182 72 CURVE",
"275.33 160.67 OFFCURVE",
"346.5 242 OFFCURVE",
"395.5 316 CURVE SMOOTH",
"444.5 390 OFFCURVE",
"469 461.33 OFFCURVE",
"469 530 CURVE SMOOTH",
"469 596 OFFCURVE",
"449.83 648.67 OFFCURVE",
"411.5 688 CURVE SMOOTH",
"373.17 727.33 OFFCURVE",
"321.33 747 OFFCURVE",
"256 747 CURVE SMOOTH",
"212 747 OFFCURVE",
"173.17 737.83 OFFCURVE",
"139.5 719.5 CURVE SMOOTH",
"105.83 701.17 OFFCURVE",
"72.67 674.33 OFFCURVE",
"40 639 CURVE",
"93 587 LINE",
"140.33 643.67 OFFCURVE",
"191 672 OFFCURVE",
"245 672 CURVE SMOOTH",
"289 672 OFFCURVE",
"322.5 658.83 OFFCURVE",
"345.5 632.5 CURVE SMOOTH",
"368.5 606.17 OFFCURVE",
"380 571 OFFCURVE",
"380 527 CURVE SMOOTH",
"380 464.33 OFFCURVE",
"353 395.17 OFFCURVE",
"299 319.5 CURVE SMOOTH",
"245 243.83 OFFCURVE",
"160 155.33 OFFCURVE",
"44 54 CURVE"
);
}
);
vertWidth = 1000;
width = 555;
}
);
note = two;
unicode = 0032;
},
{
glyphname = three;
layers = (
{
hints = (
{
horizontal = 1;
place = "{-13, 76}";
type = Stem;
},
{
horizontal = 1;
place = "{346, 70}";
type = Stem;
},
{
horizontal = 1;
place = "{674, 73}";
type = Stem;
},
{
place = "{178, 165}";
type = Stem;
},
{
place = "{406, 93}";
type = Stem;
},
{
place = "{381, 93}";
type = Stem;
}
);
layerId = "BCE9B1DB-4CCD-4D9A-B53B-B8E8A67648C8";
paths = (
{
closed = 1;
nodes = (
"331.33 -13 OFFCURVE",
"387.33 5.83 OFFCURVE",
"432 43.5 CURVE SMOOTH",
"476.67 81.17 OFFCURVE",
"499 132 OFFCURVE",
"499 196 CURVE SMOOTH",
"499 244 OFFCURVE",
"484.33 284.33 OFFCURVE",
"455 317 CURVE SMOOTH",
"425.67 349.67 OFFCURVE",
"388.33 371.33 OFFCURVE",
"343 382 CURVE",
"343 386 LINE",
"430.33 418.67 OFFCURVE",
"474 477.67 OFFCURVE",
"474 563 CURVE SMOOTH",
"474 620.33 OFFCURVE",
"454.33 665.33 OFFCURVE",
"415 698 CURVE SMOOTH",
"375.67 730.67 OFFCURVE",
"324.33 747 OFFCURVE",
"261 747 CURVE SMOOTH",
"187.67 747 OFFCURVE",
"119.33 717.67 OFFCURVE",
"56 659 CURVE",
"105 601 LINE",
"151.67 647.67 OFFCURVE",
"202.33 672 OFFCURVE",
"257 674 CURVE",
"295 672.67 OFFCURVE",
"325.17 661.5 OFFCURVE",
"347.5 640.5 CURVE SMOOTH",
"369.83 619.5 OFFCURVE",
"381 591.33 OFFCURVE",
"381 556 CURVE SMOOTH",
"381 462.67 OFFCURVE",
"313.33 416 OFFCURVE",
"178 416 CURVE",
"178 346 LINE",
"330 346 OFFCURVE",
"406 297 OFFCURVE",
"406 199 CURVE SMOOTH",
"406 157.67 OFFCURVE",
"392.17 124.67 OFFCURVE",
"364.5 100 CURVE SMOOTH",
"336.83 75.33 OFFCURVE",
"301 63 OFFCURVE",
"257 63 CURVE SMOOTH",
"189 63 OFFCURVE",
"128.33 91 OFFCURVE",
"75 147 CURVE",
"29 87 LINE",
"90.33 20.33 OFFCURVE",
"168.67 -13 OFFCURVE",
"264 -13 CURVE SMOOTH"
);
}
);
vertWidth = 1000;
width = 555;
}
);
note = three;
unicode = 0033;
},
{
glyphname = four;
layers = (
{
hints = (
{
horizontal = 1;
place = "{0, 21}";
target = up;
type = BottomGhost;
},
{
horizontal = 1;
place = "{202, 73}";
type = Stem;
},
{
horizontal = 1;
place = "{633, 100}";
type = Stem;
},
{
place = "{339, 87}";
type = Stem;
}
);
layerId = "BCE9B1DB-4CCD-4D9A-B53B-B8E8A67648C8";
paths = (
{
closed = 1;
nodes = (
"339 275 LINE",
"115 275 LINE",
"282 525 LINE",
"305.33 565 OFFCURVE",
"325 601 OFFCURVE",
"341 633 CURVE",
"345 633 LINE",
"341 557 OFFCURVE",
"339 512.67 OFFCURVE",
"339 500 CURVE SMOOTH"
);
},
{
closed = 1;
nodes = (
"523 202 LINE",
"523 275 LINE",
"426 275 LINE",
"426 733 LINE",
"325 733 LINE",
"20 262 LINE",
"20 202 LINE",
"339 202 LINE",
"339 0 LINE",
"426 0 LINE",
"426 202 LINE"
);
}
);
vertWidth = 1000;
width = 555;
}
);
note = four;
unicode = 0034;
},
{
glyphname = five;
layers = (
{
hints = (
{
horizontal = 1;
place = "{-13, 76}";
type = Stem;
},
{
horizontal = 1;
place = "{403, 69}";
type = Stem;
},
{
horizontal = 1;
place = "{655, 78}";
type = Stem;
},
{
place = "{409, 92}";
type = Stem;
}
);
layerId = "BCE9B1DB-4CCD-4D9A-B53B-B8E8A67648C8";
paths = (
{
closed = 1;
nodes = (
"326.33 -13 OFFCURVE",
"382.67 9.67 OFFCURVE",
"430 55 CURVE SMOOTH",
"477.33 100.33 OFFCURVE",
"501 161.67 OFFCURVE",
"501 239 CURVE SMOOTH",
"501 315.67 OFFCURVE",
"480.33 373.67 OFFCURVE",
"439 413 CURVE SMOOTH",
"397.67 452.33 OFFCURVE",
"344.67 472 OFFCURVE",
"280 472 CURVE SMOOTH",
"242 472 OFFCURVE",
"205.67 462.33 OFFCURVE",
"171 443 CURVE",
"189 655 LINE",
"466 655 LINE",
"466 733 LINE",
"109 733 LINE",
"86 390 LINE",
"135 360 LINE",
"178.33 388.67 OFFCURVE",
"219 403 OFFCURVE",
"257 403 CURVE SMOOTH",
"303.67 403 OFFCURVE",
"340.67 388.17 OFFCURVE",
"368 358.5 CURVE SMOOTH",
"395.33 328.83 OFFCURVE",
"409 288 OFFCURVE",
"409 236 CURVE SMOOTH",
"409 184 OFFCURVE",
"394 142.17 OFFCURVE",
"364 110.5 CURVE SMOOTH",
"334 78.83 OFFCURVE",
"297 63 OFFCURVE",
"253 63 CURVE SMOOTH",
"187 63 OFFCURVE",
"127 90 OFFCURVE",
"73 144 CURVE",
"28 84 LINE",
"92.67 19.33 OFFCURVE",
"170.33 -13 OFFCURVE",
"261 -13 CURVE SMOOTH"
);
}
);
vertWidth = 1000;
width = 555;
}
);
note = five;
unicode = 0035;
},
{
glyphname = six;
layers = (
{
hints = (
{
horizontal = 1;
place = "{-13, 71}";
type = Stem;
},
{
horizontal = 1;
place = "{387, 68}";
type = Stem;
},
{
horizontal = 1;
place = "{671, 76}";
type = Stem;
},
{
place = "{56, 85}";
type = Stem;
},
{
place = "{425, 86}";
type = Stem;
}
);
layerId = "BCE9B1DB-4CCD-4D9A-B53B-B8E8A67648C8";
paths = (
{
closed = 1;
nodes = (
"255 58 OFFCURVE",
"218.5 78.17 OFFCURVE",
"191.5 118.5 CURVE SMOOTH",
"164.5 158.83 OFFCURVE",
"148.33 217 OFFCURVE",
"143 293 CURVE",
"187 355.67 OFFCURVE",
"237 387 OFFCURVE",
"293 387 CURVE SMOOTH",
"336.33 387 OFFCURVE",
"369.17 372.67 OFFCURVE",
"391.5 344 CURVE SMOOTH",
"413.83 315.33 OFFCURVE",
"425 275.67 OFFCURVE",
"425 225 CURVE SMOOTH",
"425 175.67 OFFCURVE",
"413.17 135.5 OFFCURVE",
"389.5 104.5 CURVE SMOOTH",
"365.83 73.5 OFFCURVE",
"336.33 58 OFFCURVE",
"301 58 CURVE SMOOTH"
);
},
{
closed = 1;
nodes = (
"498 672 LINE",
"451.33 722 OFFCURVE",
"394.33 747 OFFCURVE",
"327 747 CURVE SMOOTH",
"249 747 OFFCURVE",
"184.33 714.5 OFFCURVE",
"133 649.5 CURVE SMOOTH",
"81.67 584.5 OFFCURVE",
"56 484.67 OFFCURVE",
"56 350 CURVE SMOOTH",
"56 232.67 OFFCURVE",
"78.5 142.83 OFFCURVE",
"123.5 80.5 CURVE SMOOTH",
"168.5 18.17 OFFCURVE",
"227.67 -13 OFFCURVE",
"301 -13 CURVE SMOOTH",
"359.67 -13 OFFCURVE",
"409.33 9.33 OFFCURVE",
"450 54 CURVE SMOOTH",
"490.67 98.67 OFFCURVE",
"511 155.67 OFFCURVE",
"511 225 CURVE SMOOTH",
"511 299.67 OFFCURVE",
"493 356.67 OFFCURVE",
"457 396 CURVE SMOOTH",
"421 435.33 OFFCURVE",
"371.33 455 OFFCURVE",
"308 455 CURVE SMOOTH",
"278.67 455 OFFCURVE",
"249.17 447 OFFCURVE",
"219.5 431 CURVE SMOOTH",
"189.83 415 OFFCURVE",
"163.67 393.33 OFFCURVE",
"141 366 CURVE",
"143 472.67 OFFCURVE",
"161.33 550.17 OFFCURVE",
"196 598.5 CURVE SMOOTH",
"230.67 646.83 OFFCURVE",
"275.33 671 OFFCURVE",
"330 671 CURVE SMOOTH",
"378 671 OFFCURVE",
"417.33 652.33 OFFCURVE",
"448 615 CURVE"
);
}
);
vertWidth = 1000;
width = 555;
}
);
note = six;
unicode = 0036;
},
{
glyphname = seven;
layers = (
{
hints = (
{
horizontal = 1;
place = "{0, 21}";
target = up;
type = BottomGhost;
},
{
horizontal = 1;
place = "{655, 78}";
type = Stem;
},
{
place = "{198, 95}";
type = Stem;
}
);
layerId = "BCE9B1DB-4CCD-4D9A-B53B-B8E8A67648C8";
paths = (
{
closed = 1;
nodes = (
"293 0 LINE",
"299 155.33 OFFCURVE",
"316 281 OFFCURVE",
"344 377 CURVE SMOOTH",
"372 473 OFFCURVE",
"426.67 573.33 OFFCURVE",
"508 678 CURVE",
"508 733 LINE",
"49 733 LINE",
"49 655 LINE",
"404 655 LINE",
"333.33 556.33 OFFCURVE",
"282.83 457.83 OFFCURVE",
"252.5 359.5 CURVE SMOOTH",
"222.17 261.17 OFFCURVE",
"204 141.33 OFFCURVE",
"198 0 CURVE"
);
}
);
vertWidth = 1000;
width = 555;
}
);
note = seven;
unicode = 0037;
},
{
glyphname = eight;
layers = (
{
hints = (
{
horizontal = 1;
place = "{-13, 68}";
type = Stem;
},
{
horizontal = 1;
place = "{677, 67}";
type = Stem;
},
{
place = "{422, 87}";
type = Stem;
},
{
place = "{81, 83}";
type = Stem;
},
{
place = "{405, 78}";
type = Stem;
},
{
place = "{45, 83}";
type = Stem;
}
);
layerId = "BCE9B1DB-4CCD-4D9A-B53B-B8E8A67648C8";
paths = (
{
closed = 1;
nodes = (
"347 -13 OFFCURVE",
"402.33 5.17 OFFCURVE",
"445 41.5 CURVE SMOOTH",
"487.67 77.83 OFFCURVE",
"509 123 OFFCURVE",
"509 177 CURVE SMOOTH",
"509 257 OFFCURVE",
"467.67 321 OFFCURVE",
"385 369 CURVE",
"385 374 LINE",
"411 394 OFFCURVE",
"433.83 419.67 OFFCURVE",
"453.5 451 CURVE SMOOTH",
"473.17 482.33 OFFCURVE",
"483 515.67 OFFCURVE",
"483 551 CURVE SMOOTH",
"483 608.33 OFFCURVE",
"464.83 654.83 OFFCURVE",
"428.5 690.5 CURVE SMOOTH",
"392.17 726.17 OFFCURVE",
"343.33 744 OFFCURVE",
"282 744 CURVE SMOOTH",
"224 744 OFFCURVE",
"176 726.83 OFFCURVE",
"138 692.5 CURVE SMOOTH",
"100 658.17 OFFCURVE",
"81 613.33 OFFCURVE",
"81 558 CURVE SMOOTH",
"81 490.67 OFFCURVE",
"114 434.33 OFFCURVE",
"180 389 CURVE",
"180 384 LINE",
"142 363.33 OFFCURVE",
"110 335.83 OFFCURVE",
"84 301.5 CURVE SMOOTH",
"58 267.17 OFFCURVE",
"45 227.33 OFFCURVE",
"45 182 CURVE SMOOTH",
"45 125.33 OFFCURVE",
"67.17 78.67 OFFCURVE",
"111.5 42 CURVE SMOOTH",
"155.83 5.33 OFFCURVE",
"211.67 -13 OFFCURVE",
"279 -13 CURVE SMOOTH"
);
},
{
closed = 1;
nodes = (
"275.67 419.33 OFFCURVE",
"234.83 441.5 OFFCURVE",
"206.5 464.5 CURVE SMOOTH",
"178.17 487.5 OFFCURVE",
"164 518.67 OFFCURVE",
"164 558 CURVE SMOOTH",
"164 593.33 OFFCURVE",
"174.83 622 OFFCURVE",
"196.5 644 CURVE SMOOTH",
"218.17 666 OFFCURVE",
"246 677 OFFCURVE",
"280 677 CURVE SMOOTH",
"318 677 OFFCURVE",
"348.33 664.5 OFFCURVE",
"371 639.5 CURVE SMOOTH",
"393.67 614.5 OFFCURVE",
"405 583.33 OFFCURVE",
"405 546 CURVE SMOOTH",
"405 492 OFFCURVE",
"379.67 442.67 OFFCURVE",
"329 398 CURVE"
);
},
{
closed = 1;
nodes = (
"237 55 OFFCURVE",
"200.5 67.83 OFFCURVE",
"171.5 93.5 CURVE SMOOTH",
"142.5 119.17 OFFCURVE",
"128 151.33 OFFCURVE",
"128 190 CURVE SMOOTH",
"128 258 OFFCURVE",
"161.33 313.33 OFFCURVE",
"228 356 CURVE",
"262 342.67 OFFCURVE",
"287.5 331.83 OFFCURVE",
"304.5 323.5 CURVE SMOOTH",
"321.5 315.17 OFFCURVE",
"340.67 303.83 OFFCURVE",
"362 289.5 CURVE SMOOTH",
"383.33 275.17 OFFCURVE",
"398.67 259 OFFCURVE",
"408 241 CURVE SMOOTH",
"417.33 223 OFFCURVE",
"422 202.33 OFFCURVE",
"422 179 CURVE SMOOTH",
"422 142.33 OFFCURVE",
"409 112.5 OFFCURVE",
"383 89.5 CURVE SMOOTH",
"357 66.5 OFFCURVE",
"323 55 OFFCURVE",
"281 55 CURVE SMOOTH"
);
}
);
vertWidth = 1000;
width = 555;
}
);
note = eight;
unicode = 0038;
},
{
glyphname = nine;
layers = (
{
hints = (
{
horizontal = 1;
place = "{-13, 76}";
type = Stem;
},
{
horizontal = 1;
place = "{278, 68}";
type = Stem;
},
{
horizontal = 1;
place = "{675, 72}";
type = Stem;
},
{
place = "{44, 86}";
type = Stem;
},
{
place = "{415, 85}";
type = Stem;
}
);
layerId = "BCE9B1DB-4CCD-4D9A-B53B-B8E8A67648C8";
paths = (
{
closed = 1;
nodes = (
"218.33 346 OFFCURVE",
"185.83 360.5 OFFCURVE",
"163.5 389.5 CURVE SMOOTH",
"141.17 418.5 OFFCURVE",
"130 458.33 OFFCURVE",
"130 509 CURVE SMOOTH",
"130 558.33 OFFCURVE",
"141.83 598.33 OFFCURVE",
"165.5 629 CURVE SMOOTH",
"189.17 659.67 OFFCURVE",
"218.67 675 OFFCURVE",
"254 675 CURVE SMOOTH",
"301.33 675 OFFCURVE",
"338.67 655.33 OFFCURVE",
"366 616 CURVE SMOOTH",
"393.33 576.67 OFFCURVE",
"409.33 519.33 OFFCURVE",
"414 444 CURVE",
"368 378.67 OFFCURVE",
"317 346 OFFCURVE",
"261 346 CURVE SMOOTH"
);
},
{
closed = 1;
nodes = (
"58 62 LINE",
"106 12 OFFCURVE",
"164.67 -13 OFFCURVE",
"234 -13 CURVE SMOOTH",
"270 -13 OFFCURVE",
"303.33 -5.33 OFFCURVE",
"334 10 CURVE SMOOTH",
"364.67 25.33 OFFCURVE",
"392.67 48.83 OFFCURVE",
"418 80.5 CURVE SMOOTH",
"443.33 112.17 OFFCURVE",
"463.33 155.17 OFFCURVE",
"478 209.5 CURVE SMOOTH",
"492.67 263.83 OFFCURVE",
"500 326.67 OFFCURVE",
"500 398 CURVE SMOOTH",
"500 510.67 OFFCURVE",
"477.33 597 OFFCURVE",
"432 657 CURVE SMOOTH",
"386.67 717 OFFCURVE",
"327.33 747 OFFCURVE",
"254 747 CURVE SMOOTH",
"195.33 747 OFFCURVE",
"145.67 724.67 OFFCURVE",
"105 680 CURVE SMOOTH",
"64.33 635.33 OFFCURVE",
"44 578.33 OFFCURVE",
"44 509 CURVE SMOOTH",
"44 434.33 OFFCURVE",
"62 377.17 OFFCURVE",
"98 337.5 CURVE SMOOTH",
"134 297.83 OFFCURVE",
"183.33 278 OFFCURVE",
"246 278 CURVE SMOOTH",
"276.67 278 OFFCURVE",
"306.83 286.17 OFFCURVE",
"336.5 302.5 CURVE SMOOTH",
"366.17 318.83 OFFCURVE",
"392.33 341 OFFCURVE",
"415 369 CURVE",
"411.67 262.33 OFFCURVE",
"393.17 184.67 OFFCURVE",
"359.5 136 CURVE SMOOTH",
"325.83 87.33 OFFCURVE",
"283 63 OFFCURVE",
"231 63 CURVE SMOOTH",
"182.33 63 OFFCURVE",
"141.33 81.67 OFFCURVE",
"108 119 CURVE"
);
}
);
vertWidth = 1000;
width = 555;
}
);
note = nine;
unicode = 0039;
},
{
glyphname = A;
layers = (
{
hints = (
{
horizontal = 1;
place = "{0, 21}";
target = up;
type = BottomGhost;
},
{
horizontal = 1;
place = "{224, 74}";
type = Stem;
},
{
horizontal = 1;
place = "{658, 75}";
type = Stem;
},
{
place = "{3, 601}";
type = Stem;
}
);
layerId = "BCE9B1DB-4CCD-4D9A-B53B-B8E8A67648C8";
paths = (
{
closed = 1;
nodes = (
"413 298 LINE",
"191 298 LINE",
"227 410 LINE SMOOTH",
"257.67 507.33 OFFCURVE",
"282 590 OFFCURVE",
"300 658 CURVE",
"304 658 LINE",
"333.33 554.67 OFFCURVE",
"358 472 OFFCURVE",
"378 410 CURVE SMOOTH"
);
},
{
closed = 1;
nodes = (
"436 224 LINE",
"506 0 LINE",
"604 0 LINE",
"355 733 LINE",
"252 733 LINE",
"3 0 LINE",
"97 0 LINE",
"168 224 LINE"
);
}
);
vertWidth = 1000;
width = 607;
}
);
note = A;
unicode = 0041;
},
{
glyphname = B;
layers = (
{
hints = (
{
horizontal = 1;
place = "{0, 74}";
type = Stem;
},
{
horizontal = 1;
place = "{350, 71}";
type = Stem;
},
{
horizontal = 1;
place = "{660, 73}";
type = Stem;
},
{
place = "{100, 93}";
type = Stem;
},
{
place = "{521, 91}";
type = Stem;
},
{
place = "{479, 91}";
type = Stem;
}
);
layerId = "BCE9B1DB-4CCD-4D9A-B53B-B8E8A67648C8";
paths = (
{
closed = 1;
nodes = (
"100 733 LINE",
"100 0 LINE",
"334 0 LINE SMOOTH",
"418.67 0 OFFCURVE",
"486.17 18.33 OFFCURVE",
"536.5 55 CURVE SMOOTH",
"586.83 91.67 OFFCURVE",
"612 145 OFFCURVE",
"612 215 CURVE SMOOTH",
"612 263 OFFCURVE",
"598.5 302 OFFCURVE",
"571.5 332 CURVE SMOOTH",
"544.5 362 OFFCURVE",
"508 381.33 OFFCURVE",
"462 390 CURVE",
"462 395 LINE",
"496 405.67 OFFCURVE",
"522.5 425.5 OFFCURVE",
"541.5 454.5 CURVE SMOOTH",
"560.5 483.5 OFFCURVE",
"570 516.67 OFFCURVE",
"570 554 CURVE SMOOTH",
"570 673.33 OFFCURVE",
"486 733 OFFCURVE",
"318 733 CURVE SMOOTH"
);
},
{
closed = 1;
nodes = (
"193 421 LINE",
"193 660 LINE",
"306 660 LINE SMOOTH",
"364.67 660 OFFCURVE",
"408.17 650.83 OFFCURVE",
"436.5 632.5 CURVE SMOOTH",
"464.83 614.17 OFFCURVE",
"479 584 OFFCURVE",
"479 542 CURVE SMOOTH",
"479 461.33 OFFCURVE",
"420 421 OFFCURVE",
"302 421 CURVE SMOOTH"
);
},
{
closed = 1;
nodes = (
"193 74 LINE",
"193 350 LINE",
"321 350 LINE SMOOTH",
"454.33 350 OFFCURVE",
"521 306 OFFCURVE",
"521 218 CURVE SMOOTH",
"521 122 OFFCURVE",
"454.33 74 OFFCURVE",
"321 74 CURVE SMOOTH"
);
}
);
vertWidth = 1000;
width = 657;
}
);
note = B;
unicode = 0042;
},
{
glyphname = C;
layers = (
{
hints = (
{
horizontal = 1;
place = "{-13, 81}";
type = Stem;
},
{
horizontal = 1;
place = "{666, 81}";
type = Stem;
},
{
place = "{58, 95}";
type = Stem;
}
);
layerId = "BCE9B1DB-4CCD-4D9A-B53B-B8E8A67648C8";
paths = (
{
closed = 1;
nodes = (
"466.33 -13 OFFCURVE",
"541.33 22 OFFCURVE",
"602 92 CURVE",
"551 150 LINE",
"500.33 95.33 OFFCURVE",
"443.67 68 OFFCURVE",
"381 68 CURVE SMOOTH",
"311 68 OFFCURVE",
"255.5 95 OFFCURVE",
"214.5 149 CURVE SMOOTH",
"173.5 203 OFFCURVE",
"153 276.33 OFFCURVE",
"153 369 CURVE SMOOTH",
"153 459.67 OFFCURVE",
"174 531.83 OFFCURVE",
"216 585.5 CURVE SMOOTH",
"258 639.17 OFFCURVE",
"314 666 OFFCURVE",
"384 666 CURVE SMOOTH",
"440.67 666 OFFCURVE",
"490.67 642.67 OFFCURVE",
"534 596 CURVE",
"584 656 LINE",
"530 716.67 OFFCURVE",
"463 747 OFFCURVE",
"383 747 CURVE SMOOTH",
"288.33 747 OFFCURVE",
"210.5 712.5 OFFCURVE",
"149.5 643.5 CURVE SMOOTH",
"88.5 574.5 OFFCURVE",
"58 482 OFFCURVE",
"58 366 CURVE SMOOTH",
"58 249.33 OFFCURVE",
"87.83 157 OFFCURVE",
"147.5 89 CURVE SMOOTH",
"207.17 21 OFFCURVE",
"283.67 -13 OFFCURVE",
"377 -13 CURVE SMOOTH"
);
}
);
vertWidth = 1000;
width = 638;
}
);
note = C;
unicode = 0043;
},
{
glyphname = D;
layers = (
{
hints = (
{
horizontal = 1;
place = "{0, 76}";
type = Stem;
},
{
horizontal = 1;
place = "{658, 75}";
type = Stem;
},
{
place = "{100, 93}";
type = Stem;
},
{
place = "{534, 96}";
type = Stem;
}
);
layerId = "BCE9B1DB-4CCD-4D9A-B53B-B8E8A67648C8";
paths = (
{
closed = 1;
nodes = (
"100 733 LINE",
"100 0 LINE",
"288 0 LINE SMOOTH",
"398 0 OFFCURVE",
"482.5 32.33 OFFCURVE",
"541.5 97 CURVE SMOOTH",
"600.5 161.67 OFFCURVE",
"630 252.33 OFFCURVE",
"630 369 CURVE SMOOTH",
"630 485.67 OFFCURVE",
"600.33 575.5 OFFCURVE",
"541 638.5 CURVE SMOOTH",
"481.67 701.5 OFFCURVE",
"396 733 OFFCURVE",
"284 733 CURVE SMOOTH"
);
},
{
closed = 1;
nodes = (
"193 76 LINE",
"193 658 LINE",
"276 658 LINE SMOOTH",
"361.33 658 OFFCURVE",
"425.67 633.33 OFFCURVE",
"469 584 CURVE SMOOTH",
"512.33 534.67 OFFCURVE",
"534 463 OFFCURVE",
"534 369 CURVE SMOOTH",
"534 275 OFFCURVE",
"512.33 202.67 OFFCURVE",
"469 152 CURVE SMOOTH",
"425.67 101.33 OFFCURVE",
"361.33 76 OFFCURVE",
"276 76 CURVE SMOOTH"
);
}
);
vertWidth = 1000;
width = 687;
}
);
note = D;
unicode = 0044;
},
{
glyphname = E;
layers = (
{
hints = (
{
horizontal = 1;
place = "{0, 79}";
type = Stem;
},
{
horizontal = 1;
place = "{346, 79}";
type = Stem;
},
{
horizontal = 1;
place = "{655, 78}";
type = Stem;
},
{
place = "{100, 93}";
type = Stem;
}
);
layerId = "BCE9B1DB-4CCD-4D9A-B53B-B8E8A67648C8";
paths = (
{
closed = 1;
nodes = (
"100 733 LINE",
"100 0 LINE",
"534 0 LINE",
"534 79 LINE",
"193 79 LINE",
"193 346 LINE",
"471 346 LINE",
"471 425 LINE",
"193 425 LINE",
"193 655 LINE",
"523 655 LINE",
"523 733 LINE"
);
}
);
vertWidth = 1000;
width = 588;
}
);
note = E;
unicode = 0045;
},
{
glyphname = F;
layers = (
{
hints = (
{
horizontal = 1;
place = "{0, 21}";
target = up;
type = BottomGhost;
},
{
horizontal = 1;
place = "{329, 78}";
type = Stem;
},
{
horizontal = 1;
place = "{655, 78}";
type = Stem;
},
{
place = "{100, 93}";
type = Stem;
}
);
layerId = "BCE9B1DB-4CCD-4D9A-B53B-B8E8A67648C8";
paths = (
{
closed = 1;
nodes = (
"100 733 LINE",
"100 0 LINE",
"193 0 LINE",
"193 329 LINE",
"473 329 LINE",
"473 407 LINE",
"193 407 LINE",
"193 655 LINE",
"523 655 LINE",
"523 733 LINE"
);
}
);
vertWidth = 1000;
width = 552;
}
);
note = F;
unicode = 0046;
},
{
glyphname = G;
layers = (
{
hints = (
{
horizontal = 1;
place = "{-13, 81}";
type = Stem;
},
{
horizontal = 1;
place = "{303, 77}";
type = Stem;
},
{
horizontal = 1;
place = "{666, 81}";
type = Stem;
},
{
place = "{58, 95}";
type = Stem;
},
{
place = "{530, 85}";
type = Stem;
}
);
layerId = "BCE9B1DB-4CCD-4D9A-B53B-B8E8A67648C8";
paths = (
{
closed = 1;
nodes = (
"484.67 -13 OFFCURVE",
"560.33 15.33 OFFCURVE",
"615 72 CURVE",
"615 380 LINE",
"375 380 LINE",
"375 303 LINE",
"530 303 LINE",
"530 111 LINE",
"499.33 82.33 OFFCURVE",
"455 68 OFFCURVE",
"397 68 CURVE SMOOTH",
"319.67 68 OFFCURVE",
"259.67 94.83 OFFCURVE",
"217 148.5 CURVE SMOOTH",
"174.33 202.17 OFFCURVE",
"153 275.67 OFFCURVE",
"153 369 CURVE SMOOTH",
"153 460.33 OFFCURVE",
"175 532.67 OFFCURVE",
"219 586 CURVE SMOOTH",
"263 639.33 OFFCURVE",
"322 666 OFFCURVE",
"396 666 CURVE SMOOTH",
"458 666 OFFCURVE",
"511 642.67 OFFCURVE",
"555 596 CURVE",
"605 656 LINE",
"548.33 716.67 OFFCURVE",
"478 747 OFFCURVE",
"394 747 CURVE SMOOTH",
"295.33 747 OFFCURVE",
"214.67 712.67 OFFCURVE",
"152 644 CURVE SMOOTH",
"89.33 575.33 OFFCURVE",
"58 482.67 OFFCURVE",
"58 366 CURVE SMOOTH",
"58 248.67 OFFCURVE",
"88.5 156.17 OFFCURVE",
"149.5 88.5 CURVE SMOOTH",
"210.5 20.83 OFFCURVE",
"290 -13 OFFCURVE",
"388 -13 CURVE SMOOTH"
);
}
);
vertWidth = 1000;
width = 689;
}
);
note = G;
unicode = 0047;
},
{
glyphname = H;
layers = (
{
hints = (
{
horizontal = 1;
place = "{0, 21}";
target = up;
type = BottomGhost;
},
{
horizontal = 1;
place = "{346, 80}";
type = Stem;
},
{
horizontal = 1;
place = "{733, -20}";
target = down;
type = TopGhost;
},
{
place = "{100, 93}";
type = Stem;
},
{
place = "{535, 92}";
type = Stem;
}
);
layerId = "BCE9B1DB-4CCD-4D9A-B53B-B8E8A67648C8";
paths = (
{
closed = 1;
nodes = (
"100 733 LINE",
"100 0 LINE",
"193 0 LINE",
"193 346 LINE",
"535 346 LINE",
"535 0 LINE",
"627 0 LINE",
"627 733 LINE",
"535 733 LINE",
"535 426 LINE",
"193 426 LINE",
"193 733 LINE"
);
}
);
vertWidth = 1000;
width = 728;
}
);
note = H;
unicode = 0048;
},
{
glyphname = I;
layers = (
{
hints = (
{
horizontal = 1;
place = "{0, 21}";
target = up;
type = BottomGhost;
},
{
horizontal = 1;
place = "{733, -20}";
target = down;
type = TopGhost;
},
{
place = "{100, 93}";
type = Stem;
}
);
layerId = "BCE9B1DB-4CCD-4D9A-B53B-B8E8A67648C8";
paths = (
{
closed = 1;
nodes = (
"100 733 LINE",
"100 0 LINE",
"193 0 LINE",
"193 733 LINE"
);
}
);
vertWidth = 1000;
width = 293;
}
);
note = I;
unicode = 0049;
},
{
glyphname = J;
layers = (
{
hints = (
{
horizontal = 1;
place = "{-13, 81}";
type = Stem;
},
{
horizontal = 1;
place = "{733, -20}";
target = down;
type = TopGhost;
},
{
place = "{346, 92}";
type = Stem;
}
);
layerId = "BCE9B1DB-4CCD-4D9A-B53B-B8E8A67648C8";
paths = (
{
closed = 1;
nodes = (
"305 -13 OFFCURVE",
"355.5 8 OFFCURVE",
"388.5 50 CURVE SMOOTH",
"421.5 92 OFFCURVE",
"438 147 OFFCURVE",
"438 215 CURVE SMOOTH",
"438 733 LINE",
"346 733 LINE",
"346 224 LINE SMOOTH",
"346 169.33 OFFCURVE",
"336.33 129.67 OFFCURVE",
"317 105 CURVE SMOOTH",
"297.67 80.33 OFFCURVE",
"268 68 OFFCURVE",
"228 68 CURVE SMOOTH",
"174.67 68 OFFCURVE",
"132.33 95.33 OFFCURVE",
"101 150 CURVE",
"35 103 LINE",
"79 25.67 OFFCURVE",
"146.33 -13 OFFCURVE",
"237 -13 CURVE SMOOTH"
);
}
);
vertWidth = 1000;
width = 536;
}
);
note = J;
unicode = 004A;
},
{
glyphname = K;
layers = (
{
hints = (
{
horizontal = 1;
place = "{0, 21}";
target = up;
type = BottomGhost;
},
{
horizontal = 1;
place = "{733, -20}";
target = down;
type = TopGhost;
},
{
place = "{100, 93}";
type = Stem;
}
);
layerId = "BCE9B1DB-4CCD-4D9A-B53B-B8E8A67648C8";
paths = (
{
closed = 1;
nodes = (
"100 733 LINE",
"100 0 LINE",
"193 0 LINE",
"193 232 LINE",
"319 382 LINE",
"538 0 LINE",
"642 0 LINE",
"377 454 LINE",
"606 733 LINE",
"502 733 LINE",
"196 365 LINE",
"193 365 LINE",
"193 733 LINE"
);
}
);
vertWidth = 1000;
width = 646;
}
);
note = K;
unicode = 004B;
},
{
glyphname = L;
layers = (
{
hints = (
{
horizontal = 1;
place = "{0, 79}";
type = Stem;
},
{
horizontal = 1;
place = "{733, -20}";
target = down;
type = TopGhost;
},
{
place = "{100, 93}";
type = Stem;
}
);
layerId = "BCE9B1DB-4CCD-4D9A-B53B-B8E8A67648C8";
paths = (
{
closed = 1;
nodes = (
"100 733 LINE",
"100 0 LINE",
"513 0 LINE",
"513 79 LINE",
"193 79 LINE",
"193 733 LINE"
);
}
);
vertWidth = 1000;
width = 542;
}
);
note = L;
unicode = 004C;
},
{
glyphname = M;
layers = (
{
hints = (
{
horizontal = 1;
place = "{0, 21}";
target = up;
type = BottomGhost;
},
{
horizontal = 1;
place = "{74, 114}";
type = Stem;
},
{
horizontal = 1;
place = "{622, 111}";
type = Stem;
},
{
place = "{100, 84}";
type = Stem;
},
{
place = "{625, 87}";
type = Stem;
}
);
layerId = "BCE9B1DB-4CCD-4D9A-B53B-B8E8A67648C8";
paths = (
{
closed = 1;
nodes = (
"100 733 LINE",
"100 0 LINE",
"184 0 LINE",
"184 406 LINE SMOOTH",
"184 432.67 OFFCURVE",
"180.33 504.67 OFFCURVE",
"173 622 CURVE",
"177 622 LINE",
"235 455 LINE",
"374 74 LINE",
"436 74 LINE",
"575 455 LINE",
"633 622 LINE",
"637 622 LINE",
"629 519.33 OFFCURVE",
"625 447.33 OFFCURVE",
"625 406 CURVE SMOOTH",
"625 0 LINE",
"712 0 LINE",
"712 733 LINE",
"600 733 LINE",
"460 341 LINE SMOOTH",
"454.67 324.33 OFFCURVE",
"446.33 299 OFFCURVE",
"435 265 CURVE SMOOTH",
"423.67 231 OFFCURVE",
"415.33 205.33 OFFCURVE",
"410 188 CURVE",
"405 188 LINE",
"393 222 OFFCURVE",
"375.67 273 OFFCURVE",
"353 341 CURVE SMOOTH",
"212 733 LINE"
);
}
);
vertWidth = 1000;
width = 812;
}
);
note = M;
unicode = 004D;
},
{
glyphname = N;
layers = (
{
hints = (
{
horizontal = 1;
place = "{0, 120}";
type = Stem;
},
{
horizontal = 1;
place = "{614, 119}";
type = Stem;
},
{
place = "{100, 88}";
type = Stem;
},
{
place = "{534, 88}";
type = Stem;
}
);
layerId = "BCE9B1DB-4CCD-4D9A-B53B-B8E8A67648C8";
paths = (
{
closed = 1;
nodes = (
"100 733 LINE",
"100 0 LINE",
"188 0 LINE",
"188 385 LINE SMOOTH",
"188 401.67 OFFCURVE",
"184.33 478 OFFCURVE",
"177 614 CURVE",
"181 614 LINE",
"260 463 LINE",
"527 0 LINE",
"622 0 LINE",
"622 733 LINE",
"534 733 LINE",
"534 352 LINE SMOOTH",
"534 316 OFFCURVE",
"538 238.67 OFFCURVE",
"546 120 CURVE",
"541 120 LINE",
"463 271 LINE",
"196 733 LINE"
);
}
);
vertWidth = 1000;
width = 722;
}
);
note = N;
unicode = 004E;
},
{
glyphname = O;
layers = (
{
hints = (
{
horizontal = 1;
place = "{-13, 81}";
type = Stem;
},
{
horizontal = 1;
place = "{666, 81}";
type = Stem;
},
{
place = "{58, 95}";
type = Stem;
},
{
place = "{589, 95}";
type = Stem;
}
);
layerId = "BCE9B1DB-4CCD-4D9A-B53B-B8E8A67648C8";
paths = (
{
closed = 1;
nodes = (
"464.33 -13 OFFCURVE",
"539.83 21.67 OFFCURVE",
"597.5 91 CURVE SMOOTH",
"655.17 160.33 OFFCURVE",
"684 253 OFFCURVE",
"684 369 CURVE SMOOTH",
"684 485 OFFCURVE",
"655.17 577 OFFCURVE",
"597.5 645 CURVE SMOOTH",
"539.83 713 OFFCURVE",
"464.33 747 OFFCURVE",
"371 747 CURVE SMOOTH",
"277.67 747 OFFCURVE",
"202.17 713 OFFCURVE",
"144.5 645 CURVE SMOOTH",
"86.83 577 OFFCURVE",
"58 485 OFFCURVE",
"58 369 CURVE SMOOTH",
"58 253 OFFCURVE",
"86.83 160.33 OFFCURVE",
"144.5 91 CURVE SMOOTH",
"202.17 21.67 OFFCURVE",
"277.67 -13 OFFCURVE",
"371 -13 CURVE SMOOTH"
);
},
{
closed = 1;
nodes = (
"305 68 OFFCURVE",
"252.17 95.33 OFFCURVE",
"212.5 150 CURVE SMOOTH",
"172.83 204.67 OFFCURVE",
"153 277.67 OFFCURVE",
"153 369 CURVE SMOOTH",
"153 460.33 OFFCURVE",
"172.67 532.67 OFFCURVE",
"212 586 CURVE SMOOTH",
"251.33 639.33 OFFCURVE",
"304.33 666 OFFCURVE",
"371 666 CURVE SMOOTH",
"437 666 OFFCURVE",
"489.83 639.33 OFFCURVE",
"529.5 586 CURVE SMOOTH",
"569.17 532.67 OFFCURVE",
"589 460.33 OFFCURVE",
"589 369 CURVE SMOOTH",
"589 277.67 OFFCURVE",
"569.17 204.67 OFFCURVE",
"529.5 150 CURVE SMOOTH",
"489.83 95.33 OFFCURVE",
"437 68 OFFCURVE",
"371 68 CURVE SMOOTH"
);
}
);
vertWidth = 1000;
width = 742;
}
);
note = O;
unicode = 004F;
},
{
glyphname = P;
layers = (
{
hints = (
{
horizontal = 1;
place = "{0, 21}";
target = up;
type = BottomGhost;
},
{
horizontal = 1;
place = "{291, 75}";
type = Stem;
},
{
horizontal = 1;
place = "{658, 75}";
type = Stem;
},
{
place = "{100, 93}";
type = Stem;
},
{
place = "{492, 92}";
type = Stem;
}
);
layerId = "BCE9B1DB-4CCD-4D9A-B53B-B8E8A67648C8";
paths = (
{
closed = 1;
nodes = (
"100 733 LINE",
"100 0 LINE",
"193 0 LINE",
"193 291 LINE",
"314 291 LINE SMOOTH",
"397.33 291 OFFCURVE",
"463.17 310 OFFCURVE",
"511.5 348 CURVE SMOOTH",
"559.83 386 OFFCURVE",
"584 442.67 OFFCURVE",
"584 518 CURVE SMOOTH",
"584 661.33 OFFCURVE",
"492.33 733 OFFCURVE",
"309 733 CURVE SMOOTH"
);
},
{
closed = 1;
nodes = (
"193 366 LINE",
"193 658 LINE",
"298 658 LINE SMOOTH",
"364.67 658 OFFCURVE",
"413.67 647.5 OFFCURVE",
"445 626.5 CURVE SMOOTH",
"476.33 605.5 OFFCURVE",
"492 569.33 OFFCURVE",
"492 518 CURVE SMOOTH",
"492 466 OFFCURVE",
"476.5 427.67 OFFCURVE",
"445.5 403 CURVE SMOOTH",
"414.5 378.33 OFFCURVE",
"366.67 366 OFFCURVE",
"302 366 CURVE SMOOTH"
);
}
);
vertWidth = 1000;
width = 632;
}
);
note = P;
unicode = 0050;
},
{
glyphname = Q;
layers = (
{
hints = (
{
horizontal = 1;
place = "{-184, 77}";
type = Stem;
},
{
horizontal = 1;
place = "{-9, 72}";
type = Stem;
},
{
horizontal = 1;
place = "{666, 81}";
type = Stem;
},
{
place = "{58, 95}";
type = Stem;
},
{
place = "{589, 95}";
type = Stem;
}
);
layerId = "BCE9B1DB-4CCD-4D9A-B53B-B8E8A67648C8";
paths = (
{
closed = 1;
nodes = (
"153 460.33 OFFCURVE",
"172.67 532.67 OFFCURVE",
"212 586 CURVE SMOOTH",
"251.33 639.33 OFFCURVE",
"304.33 666 OFFCURVE",
"371 666 CURVE SMOOTH",
"437 666 OFFCURVE",
"489.83 639.33 OFFCURVE",
"529.5 586 CURVE SMOOTH",
"569.17 532.67 OFFCURVE",
"589 460.33 OFFCURVE",
"589 369 CURVE SMOOTH",
"589 275.67 OFFCURVE",
"569.17 201.33 OFFCURVE",
"529.5 146 CURVE SMOOTH",
"489.83 90.67 OFFCURVE",
"437 63 OFFCURVE",
"371 63 CURVE SMOOTH",
"305 63 OFFCURVE",
"252.17 90.67 OFFCURVE",
"212.5 146 CURVE SMOOTH",
"172.83 201.33 OFFCURVE",
"153 275.67 OFFCURVE",
"153 369 CURVE SMOOTH"
);
},
{
closed = 1;
nodes = (
"682 -96 LINE",
"658.67 -103.33 OFFCURVE",
"633 -107 OFFCURVE",
"605 -107 CURVE SMOOTH",
"518.33 -107 OFFCURVE",
"458.33 -74.33 OFFCURVE",
"425 -9 CURVE",
"503.67 5 OFFCURVE",
"566.5 45.5 OFFCURVE",
"613.5 112.5 CURVE SMOOTH",
"660.5 179.5 OFFCURVE",
"684 265 OFFCURVE",
"684 369 CURVE SMOOTH",
"684 485 OFFCURVE",
"655.17 577 OFFCURVE",
"597.5 645 CURVE SMOOTH",
"539.83 713 OFFCURVE",
"464.33 747 OFFCURVE",
"371 747 CURVE SMOOTH",
"277.67 747 OFFCURVE",
"202.17 713 OFFCURVE",
"144.5 645 CURVE SMOOTH",
"86.83 577 OFFCURVE",
"58 485 OFFCURVE",
"58 369 CURVE SMOOTH",
"58 263 OFFCURVE",
"82.33 176.17 OFFCURVE",
"131 108.5 CURVE SMOOTH",
"179.67 40.83 OFFCURVE",
"244.67 1.33 OFFCURVE",
"326 -10 CURVE",
"347.33 -62.67 OFFCURVE",
"381.17 -104.83 OFFCURVE",
"427.5 -136.5 CURVE SMOOTH",
"473.83 -168.17 OFFCURVE",
"529.67 -184 OFFCURVE",
"595 -184 CURVE SMOOTH",
"635.67 -184 OFFCURVE",
"670.67 -178.67 OFFCURVE",
"700 -168 CURVE"
);
}
);
vertWidth = 1000;
width = 742;
}
);
note = Q;
unicode = 0051;
},
{
glyphname = R;
layers = (
{
hints = (
{
horizontal = 1;
place = "{0, 21}";
target = up;
type = BottomGhost;
},
{
horizontal = 1;
place = "{311, 75}";
type = Stem;
},
{
horizontal = 1;
place = "{658, 75}";
type = Stem;
},
{
place = "{100, 93}";
type = Stem;
},
{
place = "{494, 92}";
type = Stem;
}
);
layerId = "BCE9B1DB-4CCD-4D9A-B53B-B8E8A67648C8";
paths = (
{
closed = 1;
nodes = (
"193 386 LINE",
"193 658 LINE",
"316 658 LINE SMOOTH",
"376 658 OFFCURVE",
"420.67 647.83 OFFCURVE",
"450 627.5 CURVE SMOOTH",
"479.33 607.17 OFFCURVE",
"494 573.67 OFFCURVE",
"494 527 CURVE SMOOTH",
"494 433 OFFCURVE",
"434.67 386 OFFCURVE",
"316 386 CURVE SMOOTH"
);
},
{
closed = 1;
nodes = (
"503 0 LINE",
"608 0 LINE",
"420 321 LINE",
"472 333.67 OFFCURVE",
"512.67 357.33 OFFCURVE",
"542 392 CURVE SMOOTH",
"571.33 426.67 OFFCURVE",
"586 471.67 OFFCURVE",
"586 527 CURVE SMOOTH",
"586 664.33 OFFCURVE",
"500.67 733 OFFCURVE",
"330 733 CURVE SMOOTH",
"100 733 LINE",
"100 0 LINE",
"193 0 LINE",
"193 311 LINE",
"325 311 LINE"
);
}
);
vertWidth = 1000;
width = 635;
}
);
note = R;
unicode = 0052;
},
{
glyphname = S;
layers = (
{
hints = (
{
horizontal = 1;
place = "{-13, 81}";
type = Stem;
},
{
horizontal = 1;
place = "{666, 81}";
type = Stem;
},
{
place = "{82, 94}";
type = Stem;
},
{
place = "{459, 94}";
type = Stem;
}
);
layerId = "BCE9B1DB-4CCD-4D9A-B53B-B8E8A67648C8";
paths = (
{
closed = 1;
nodes = (
"378.67 -13 OFFCURVE",
"438.83 6.83 OFFCURVE",
"484.5 46.5 CURVE SMOOTH",
"530.17 86.17 OFFCURVE",
"553 135.67 OFFCURVE",
"553 195 CURVE SMOOTH",
"553 245.67 OFFCURVE",
"540 285.67 OFFCURVE",
"514 315 CURVE SMOOTH",
"488 344.33 OFFCURVE",
"450.67 369.67 OFFCURVE",
"402 391 CURVE SMOOTH",
"297 436 LINE SMOOTH",
"281.67 442.67 OFFCURVE",
"270 447.83 OFFCURVE",
"262 451.5 CURVE SMOOTH",
"254 455.17 OFFCURVE",
"243.5 460.83 OFFCURVE",
"230.5 468.5 CURVE SMOOTH",
"217.5 476.17 OFFCURVE",
"207.83 483.83 OFFCURVE",
"201.5 491.5 CURVE SMOOTH",
"195.17 499.17 OFFCURVE",
"189.33 508.83 OFFCURVE",
"184 520.5 CURVE SMOOTH",
"178.67 532.17 OFFCURVE",
"176 544.67 OFFCURVE",
"176 558 CURVE SMOOTH",
"176 590.67 OFFCURVE",
"188.5 616.83 OFFCURVE",
"213.5 636.5 CURVE SMOOTH",
"238.5 656.17 OFFCURVE",
"271.67 666 OFFCURVE",
"313 666 CURVE SMOOTH",
"375 666 OFFCURVE",
"430.67 643 OFFCURVE",
"480 597 CURVE",
"529 656 LINE",
"470.33 716.67 OFFCURVE",
"398.33 747 OFFCURVE",
"313 747 CURVE SMOOTH",
"246.33 747 OFFCURVE",
"191.17 728.67 OFFCURVE",
"147.5 692 CURVE SMOOTH",
"103.83 655.33 OFFCURVE",
"82 608.67 OFFCURVE",
"82 552 CURVE SMOOTH",
"82 469.33 OFFCURVE",
"131.67 406.67 OFFCURVE",
"231 364 CURVE SMOOTH",
"337 318 LINE SMOOTH",
"359 308 OFFCURVE",
"375.33 300.17 OFFCURVE",
"386 294.5 CURVE SMOOTH",
"396.67 288.83 OFFCURVE",
"408.83 280.83 OFFCURVE",
"422.5 270.5 CURVE SMOOTH",
"436.17 260.17 OFFCURVE",
"445.67 248.33 OFFCURVE",
"451 235 CURVE SMOOTH",
"456.33 221.67 OFFCURVE",
"459 206 OFFCURVE",
"459 188 CURVE SMOOTH",
"459 151.33 OFFCURVE",
"445.17 122.17 OFFCURVE",
"417.5 100.5 CURVE SMOOTH",
"389.83 78.83 OFFCURVE",
"352.33 68 OFFCURVE",
"305 68 CURVE SMOOTH",
"228.33 68 OFFCURVE",
"160.67 98.33 OFFCURVE",
"102 159 CURVE",
"47 96 LINE",
"116.33 23.33 OFFCURVE",
"202 -13 OFFCURVE",
"304 -13 CURVE SMOOTH"
);
}
);
vertWidth = 1000;
width = 597;
}
);
note = S;
unicode = 0053;
},
{
glyphname = T;
layers = (
{
hints = (
{
horizontal = 1;
place = "{0, 21}";
target = up;
type = BottomGhost;
},
{
horizontal = 1;
place = "{655, 78}";
type = Stem;
},
{
place = "{253, 93}";
type = Stem;
}
);
layerId = "BCE9B1DB-4CCD-4D9A-B53B-B8E8A67648C8";
paths = (
{
closed = 1;
nodes = (
"253 655 LINE",
"253 0 LINE",
"346 0 LINE",
"346 655 LINE",
"568 655 LINE",
"568 733 LINE",
"31 733 LINE",
"31 655 LINE"
);
}
);
vertWidth = 1000;
width = 599;
}
);
note = T;
unicode = 0054;
},
{
glyphname = U;
layers = (
{
hints = (
{
horizontal = 1;
place = "{-13, 81}";
type = Stem;
},
{
horizontal = 1;
place = "{733, -20}";
target = down;
type = TopGhost;
},
{
place = "{97, 93}";
type = Stem;
},
{
place = "{535, 89}";
type = Stem;
}
);
layerId = "BCE9B1DB-4CCD-4D9A-B53B-B8E8A67648C8";
paths = (
{
closed = 1;
nodes = (
"441.33 -13 OFFCURVE",
"505.67 11.83 OFFCURVE",
"553 61.5 CURVE SMOOTH",
"600.33 111.17 OFFCURVE",
"624 191.67 OFFCURVE",
"624 303 CURVE SMOOTH",
"624 733 LINE",
"535 733 LINE",
"535 300 LINE SMOOTH",
"535 145.33 OFFCURVE",
"476.67 68 OFFCURVE",
"360 68 CURVE SMOOTH",
"246.67 68 OFFCURVE",
"190 145.33 OFFCURVE",
"190 300 CURVE SMOOTH",
"190 733 LINE",
"97 733 LINE",
"97 303 LINE SMOOTH",
"97 191.67 OFFCURVE",
"120.67 111.17 OFFCURVE",
"168 61.5 CURVE SMOOTH",
"215.33 11.83 OFFCURVE",
"279.33 -13 OFFCURVE",
"360 -13 CURVE SMOOTH"
);
}
);
vertWidth = 1000;
width = 721;
}
);
note = U;
unicode = 0055;
},
{
glyphname = V;
layers = (
{
hints = (
{
horizontal = 1;
place = "{0, 94}";
type = Stem;
},
{
horizontal = 1;
place = "{733, -20}";
target = down;
type = TopGhost;
},
{
place = "{1, 574}";
type = Stem;
}
);
layerId = "BCE9B1DB-4CCD-4D9A-B53B-B8E8A67648C8";
paths = (
{
closed = 1;
nodes = (
"1 733 LINE",
"235 0 LINE",
"342 0 LINE",
"575 733 LINE",
"481 733 LINE",
"363 336 LINE SMOOTH",
"355.67 312 OFFCURVE",
"344.5 273.5 OFFCURVE",
"329.5 220.5 CURVE SMOOTH",
"314.5 167.5 OFFCURVE",
"302 125.33 OFFCURVE",
"292 94 CURVE",
"288 94 LINE",
"277.33 126.67 OFFCURVE",
"264.33 170 OFFCURVE",
"249 224 CURVE SMOOTH",
"233.67 278 OFFCURVE",
"223 315.33 OFFCURVE",
"217 336 CURVE SMOOTH",
"98 733 LINE"
);
}
);
vertWidth = 1000;
width = 575;
}
);
note = V;
unicode = 0056;
},
{
glyphname = W;
layers = (
{
hints = (
{
horizontal = 1;
place = "{0, 97}";
type = Stem;
},
{
horizontal = 1;
place = "{609, 124}";
type = Stem;
},
{
place = "{25, 826}";
type = Stem;
}
);
layerId = "BCE9B1DB-4CCD-4D9A-B53B-B8E8A67648C8";
paths = (
{
closed = 1;
nodes = (
"25 733 LINE",
"181 0 LINE",
"291 0 LINE",
"400 442 LINE SMOOTH",
"404.67 463.33 OFFCURVE",
"411.17 492.5 OFFCURVE",
"419.5 529.5 CURVE SMOOTH",
"427.83 566.5 OFFCURVE",
"433.67 593 OFFCURVE",
"437 609 CURVE",
"441 609 LINE",
"461.67 512.33 OFFCURVE",
"473.67 456.67 OFFCURVE",
"477 442 CURVE SMOOTH",
"588 0 LINE",
"699 0 LINE",
"851 733 LINE",
"762 733 LINE",
"685 334 LINE SMOOTH",
"671 256 OFFCURVE",
"657 177 OFFCURVE",
"643 97 CURVE",
"638 97 LINE",
"617.33 195 OFFCURVE",
"600 274 OFFCURVE",
"586 334 CURVE SMOOTH",
"483 733 LINE",
"399 733 LINE",
"298 334 LINE SMOOTH",
"274 228.67 OFFCURVE",
"256.33 149.67 OFFCURVE",
"245 97 CURVE",
"241 97 LINE",
"236.33 123 OFFCURVE",
"229.17 162.33 OFFCURVE",
"219.5 215 CURVE SMOOTH",
"209.83 267.67 OFFCURVE",
"202.67 307.33 OFFCURVE",
"198 334 CURVE SMOOTH",
"121 733 LINE"
);
}
);
vertWidth = 1000;
width = 878;
}
);
note = W;
unicode = 0057;
},
{
glyphname = X;
layers = (
{
hints = (
{
horizontal = 1;
place = "{0, 21}";
target = up;
type = BottomGhost;
},
{
horizontal = 1;
place = "{733, -20}";
target = down;
type = TopGhost;
},
{
place = "{17, 539}";
type = Stem;
}
);
layerId = "BCE9B1DB-4CCD-4D9A-B53B-B8E8A67648C8";
paths = (
{
closed = 1;
nodes = (
"231 379 LINE",
"17 0 LINE",
"114 0 LINE",
"220 198 LINE SMOOTH",
"238.67 233.33 OFFCURVE",
"258.33 272.67 OFFCURVE",
"279 316 CURVE",
"283 316 LINE",
"297.67 288.67 OFFCURVE",
"318.67 249.33 OFFCURVE",
"346 198 CURVE SMOOTH",
"454 0 LINE",
"556 0 LINE",
"342 374 LINE",
"542 733 LINE",
"445 733 LINE",
"347 546 LINE SMOOTH",
"340.33 532.67 OFFCURVE",
"323 497 OFFCURVE",
"295 439 CURVE",
"291 439 LINE",
"282.33 454.33 OFFCURVE",
"271.83 473.67 OFFCURVE",
"259.5 497 CURVE SMOOTH",
"247.17 520.33 OFFCURVE",
"238.33 536.67 OFFCURVE",
"233 546 CURVE SMOOTH",
"133 733 LINE",
"31 733 LINE"
);
}
);
vertWidth = 1000;
width = 573;
}
);
note = X;
unicode = 0058;
},
{
glyphname = Y;
layers = (
{
hints = (
{
horizontal = 1;
place = "{0, 21}";
target = up;
type = BottomGhost;
},
{
horizontal = 1;
place = "{733, -20}";
target = down;
type = TopGhost;
},
{
place = "{219, 93}";
type = Stem;
}
);
layerId = "BCE9B1DB-4CCD-4D9A-B53B-B8E8A67648C8";
paths = (
{
closed = 1;
nodes = (
"219 285 LINE",
"219 0 LINE",
"312 0 LINE",
"312 285 LINE",
"532 733 LINE",
"436 733 LINE",
"341 526 LINE SMOOTH",
"330.33 499.33 OFFCURVE",
"306 446 OFFCURVE",
"268 366 CURVE",
"264 366 LINE",
"254 386.67 OFFCURVE",
"230 440 OFFCURVE",
"192 526 CURVE SMOOTH",
"98 733 LINE",
"-1 733 LINE"
);
}
);
vertWidth = 1000;
width = 531;
}
);
note = Y;
unicode = 0059;
},
{
glyphname = Z;
layers = (
{
hints = (
{
horizontal = 1;
place = "{0, 79}";
type = Stem;
},
{
horizontal = 1;
place = "{655, 78}";
type = Stem;
},
{
place = "{50, 505}";
type = Stem;
}
);
layerId = "BCE9B1DB-4CCD-4D9A-B53B-B8E8A67648C8";
paths = (
{
closed = 1;
nodes = (
"50 55 LINE",
"50 0 LINE",
"555 0 LINE",
"555 79 LINE",
"164 79 LINE",
"551 679 LINE",
"551 733 LINE",
"85 733 LINE",
"85 655 LINE",
"437 655 LINE"
);
}
);
vertWidth = 1000;
width = 603;
}
);
note = Z;
unicode = 005A;
},
{
glyphname = a;
layers = (
{
hints = (
{
horizontal = 1;
place = "{-13, 73}";
type = Stem;
},
{
horizontal = 1;
place = "{481, 76}";
type = Stem;
},
{
place = "{58, 89}";
type = Stem;
},
{
place = "{392, 91}";
type = Stem;
},
{
horizontal = 1;
place = "{0, 21}";
target = up;
type = BottomGhost;
}
);
layerId = "BCE9B1DB-4CCD-4D9A-B53B-B8E8A67648C8";
paths = (
{
closed = 1;
nodes = (
"274.33 -13 OFFCURVE",
"334.33 13 OFFCURVE",
"397 65 CURVE",
"400 65 LINE",
"408 0 LINE",
"483 0 LINE",
"483 334 LINE SMOOTH",
"483 404 OFFCURVE",
"467.67 458.67 OFFCURVE",
"437 498 CURVE SMOOTH",
"406.33 537.33 OFFCURVE",
"359 557 OFFCURVE",
"295 557 CURVE SMOOTH",
"226.33 557 OFFCURVE",
"155 533.33 OFFCURVE",
"81 486 CURVE",
"117 423 LINE",
"174.33 461.67 OFFCURVE",
"228.67 481 OFFCURVE",
"280 481 CURVE SMOOTH",
"354.67 481 OFFCURVE",
"392 435.33 OFFCURVE",
"392 344 CURVE",
"275.33 330.67 OFFCURVE",
"190.5 308.17 OFFCURVE",
"137.5 276.5 CURVE SMOOTH",
"84.5 244.83 OFFCURVE",
"58 199.67 OFFCURVE",
"58 141 CURVE SMOOTH",
"58 93 OFFCURVE",
"72.83 55.33 OFFCURVE",
"102.5 28 CURVE SMOOTH",
"132.17 0.67 OFFCURVE",
"170.33 -13 OFFCURVE",
"217 -13 CURVE SMOOTH"
);
},
{
closed = 1;
nodes = (
"214.33 60 OFFCURVE",
"191.17 67.17 OFFCURVE",
"173.5 81.5 CURVE SMOOTH",
"155.83 95.83 OFFCURVE",
"147 117.67 OFFCURVE",
"147 147 CURVE SMOOTH",
"147 183.67 OFFCURVE",
"165.67 213 OFFCURVE",
"203 235 CURVE SMOOTH",
"240.33 257 OFFCURVE",
"303.33 273.33 OFFCURVE",
"392 284 CURVE",
"392 132 LINE",
"338 84 OFFCURVE",
"288.33 60 OFFCURVE",
"243 60 CURVE SMOOTH"
);
}
);
vertWidth = 1000;
width = 564;
}
);
note = a;
unicode = 0061;
},
{
glyphname = b;
layers = (
{
hints = (
{
horizontal = 1;
place = "{-13, 76}";
type = Stem;
},
{
horizontal = 1;
place = "{480, 77}";
type = Stem;
},
{
place = "{92, 91}";
type = Stem;
},
{
place = "{472, 95}";
type = Stem;
},
{
horizontal = 1;
place = "{0, 21}";
target = up;
type = BottomGhost;
}
);
layerId = "BCE9B1DB-4CCD-4D9A-B53B-B8E8A67648C8";
paths = (
{
closed = 1;
nodes = (
"396.33 -13 OFFCURVE",
"452 13.5 OFFCURVE",
"498 66.5 CURVE SMOOTH",
"544 119.5 OFFCURVE",
"567 191 OFFCURVE",
"567 281 CURVE SMOOTH",
"567 365.67 OFFCURVE",
"548.17 432.83 OFFCURVE",
"510.5 482.5 CURVE SMOOTH",
"472.83 532.17 OFFCURVE",
"419.33 557 OFFCURVE",
"350 557 CURVE SMOOTH",
"295.33 557 OFFCURVE",
"238.67 531.33 OFFCURVE",
"180 480 CURVE",
"183 578 LINE",
"183 796 LINE",
"92 796 LINE",
"92 0 LINE",
"165 0 LINE",
"173 56 LINE",
"176 56 LINE",
"226 10 OFFCURVE",
"277.67 -13 OFFCURVE",
"331 -13 CURVE SMOOTH"
);
},
{
closed = 1;
nodes = (
"270.67 63 OFFCURVE",
"226.33 82 OFFCURVE",
"183 120 CURVE",
"183 405 LINE",
"236.33 455 OFFCURVE",
"285 480 OFFCURVE",
"329 480 CURVE SMOOTH",
"424.33 480 OFFCURVE",
"472 413 OFFCURVE",
"472 279 CURVE SMOOTH",
"472 213 OFFCURVE",
"457.5 160.5 OFFCURVE",
"428.5 121.5 CURVE SMOOTH",
"399.5 82.5 OFFCURVE",
"362 63 OFFCURVE",
"316 63 CURVE SMOOTH"
);
}
);
vertWidth = 1000;
width = 618;
}
);
note = b;
unicode = 0062;
},
{
glyphname = c;
layers = (
{
hints = (
{
horizontal = 1;
place = "{-13, 76}";
type = Stem;
},
{
horizontal = 1;
place = "{481, 76}";
type = Stem;
},
{
place = "{51, 95}";
type = Stem;
}
);
layerId = "BCE9B1DB-4CCD-4D9A-B53B-B8E8A67648C8";
paths = (
{
closed = 1;
nodes = (
"372.67 -13 OFFCURVE",
"431 10 OFFCURVE",
"481 56 CURVE",
"442 117 LINE",
"402.67 81 OFFCURVE",
"360 63 OFFCURVE",
"314 63 CURVE SMOOTH",
"264 63 OFFCURVE",
"223.5 82 OFFCURVE",
"192.5 120 CURVE SMOOTH",
"161.5 158 OFFCURVE",
"146 208.33 OFFCURVE",
"146 271 CURVE SMOOTH",
"146 333 OFFCURVE",
"162 383.5 OFFCURVE",
"194 422.5 CURVE SMOOTH",
"226 461.5 OFFCURVE",
"266.67 481 OFFCURVE",
"316 481 CURVE SMOOTH",
"352.67 481 OFFCURVE",
"389 464.67 OFFCURVE",
"425 432 CURVE",
"472 493 LINE",
"423.33 535.67 OFFCURVE",
"370.33 557 OFFCURVE",
"313 557 CURVE SMOOTH",
"240.33 557 OFFCURVE",
"178.5 531.17 OFFCURVE",
"127.5 479.5 CURVE SMOOTH",
"76.5 427.83 OFFCURVE",
"51 358.33 OFFCURVE",
"51 271 CURVE SMOOTH",
"51 183 OFFCURVE",
"75 113.67 OFFCURVE",
"123 63 CURVE SMOOTH",
"171 12.33 OFFCURVE",
"232 -13 OFFCURVE",
"306 -13 CURVE SMOOTH"
);
}
);
vertWidth = 1000;
width = 509;
}
);
note = c;
unicode = 0063;
},
{
glyphname = d;
layers = (
{
hints = (
{
horizontal = 1;
place = "{-13, 76}";
type = Stem;
},
{
horizontal = 1;
place = "{480, 77}";
type = Stem;
},
{
place = "{53, 94}";
type = Stem;
},
{
place = "{436, 91}";
type = Stem;
},
{
horizontal = 1;
place = "{0, 21}";
target = up;
type = BottomGhost;
}
);
layerId = "BCE9B1DB-4CCD-4D9A-B53B-B8E8A67648C8";
paths = (
{
closed = 1;
nodes = (
"334.33 -13 OFFCURVE",
"389.33 12.67 OFFCURVE",
"442 64 CURVE",
"444 64 LINE",
"453 0 LINE",
"527 0 LINE",
"527 796 LINE",
"436 796 LINE",
"436 587 LINE",
"441 493 LINE",
"414.33 515 OFFCURVE",
"389.67 531.17 OFFCURVE",
"367 541.5 CURVE SMOOTH",
"344.33 551.83 OFFCURVE",
"318 557 OFFCURVE",
"288 557 CURVE SMOOTH",
"223.33 557 OFFCURVE",
"168 530.67 OFFCURVE",
"122 478 CURVE SMOOTH",
"76 425.33 OFFCURVE",
"53 356.33 OFFCURVE",
"53 271 CURVE SMOOTH",
"53 181.67 OFFCURVE",
"73.17 112 OFFCURVE",
"113.5 62 CURVE SMOOTH",
"153.83 12 OFFCURVE",
"208.33 -13 OFFCURVE",
"277 -13 CURVE SMOOTH"
);
},
{
closed = 1;
nodes = (
"249 63 OFFCURVE",
"212 81.33 OFFCURVE",
"186 118 CURVE SMOOTH",
"160 154.67 OFFCURVE",
"147 206 OFFCURVE",
"147 272 CURVE SMOOTH",
"147 333.33 OFFCURVE",
"162 383.33 OFFCURVE",
"192 422 CURVE SMOOTH",
"222 460.67 OFFCURVE",
"259.33 480 OFFCURVE",
"304 480 CURVE SMOOTH",
"349.33 480 OFFCURVE",
"393.33 461 OFFCURVE",
"436 423 CURVE",
"436 138 LINE",
"390.67 88 OFFCURVE",
"344.33 63 OFFCURVE",
"297 63 CURVE SMOOTH"
);
}
);
vertWidth = 1000;
width = 620;
}
);
note = d;
unicode = 0064;
},
{
glyphname = e;
layers = (
{
hints = (
{
horizontal = 1;
place = "{-13, 73}";
type = Stem;
},
{
horizontal = 1;
place = "{250, 65}";
type = Stem;
},
{
horizontal = 1;
place = "{484, 73}";
type = Stem;
},
{
place = "{51, 90}";
type = Stem;
},
{
place = "{432, 80}";
type = Stem;
}
);
layerId = "BCE9B1DB-4CCD-4D9A-B53B-B8E8A67648C8";
paths = (
{
closed = 1;
nodes = (
"373 -13 OFFCURVE",
"433 5.67 OFFCURVE",
"491 43 CURVE",
"458 103 LINE",
"415.33 74.33 OFFCURVE",
"370 60 OFFCURVE",
"322 60 CURVE SMOOTH",
"270.67 60 OFFCURVE",
"228.5 77.17 OFFCURVE",
"195.5 111.5 CURVE SMOOTH",
"162.5 145.83 OFFCURVE",
"144.67 192 OFFCURVE",
"142 250 CURVE",
"508 250 LINE",
"510.67 267.33 OFFCURVE",
"512 284.67 OFFCURVE",
"512 302 CURVE SMOOTH",
"512 380.67 OFFCURVE",
"493 442.83 OFFCURVE",
"455 488.5 CURVE SMOOTH",
"417 534.17 OFFCURVE",
"364 557 OFFCURVE",
"296 557 CURVE SMOOTH",
"230 557 OFFCURVE",
"172.67 530.5 OFFCURVE",
"124 477.5 CURVE SMOOTH",
"75.33 424.5 OFFCURVE",
"51 355.67 OFFCURVE",
"51 271 CURVE SMOOTH",
"51 184.33 OFFCURVE",
"75.67 115.33 OFFCURVE",
"125 64 CURVE SMOOTH",
"174.33 12.67 OFFCURVE",
"236.33 -13 OFFCURVE",
"311 -13 CURVE SMOOTH"
);
},
{
closed = 1;
nodes = (
"141 315 LINE",
"146.33 367 OFFCURVE",
"163.67 408.17 OFFCURVE",
"193 438.5 CURVE SMOOTH",
"222.33 468.83 OFFCURVE",
"257 484 OFFCURVE",
"297 484 CURVE SMOOTH",
"339.67 484 OFFCURVE",
"372.83 469.5 OFFCURVE",
"396.5 440.5 CURVE SMOOTH",
"420.17 411.5 OFFCURVE",
"432 369.67 OFFCURVE",
"432 315 CURVE"
);
}
);
vertWidth = 1000;
width = 554;
}
);
note = e;
unicode = 0065;
},
{
glyphname = f;
layers = (
{
hints = (
{
horizontal = 1;
place = "{0, 21}";
target = up;
type = BottomGhost;
},
{
horizontal = 1;
place = "{469, 74}";
type = Stem;
},
{
horizontal = 1;
place = "{736, 73}";
type = Stem;
},
{
place = "{107, 91}";
type = Stem;
}
);
layerId = "BCE9B1DB-4CCD-4D9A-B53B-B8E8A67648C8";
paths = (
{
closed = 1;
nodes = (
"356 791 LINE",
"327.33 803 OFFCURVE",
"297 809 OFFCURVE",
"265 809 CURVE SMOOTH",
"212.33 809 OFFCURVE",
"172.83 793.33 OFFCURVE",
"146.5 762 CURVE SMOOTH",
"120.17 730.67 OFFCURVE",
"107 686.67 OFFCURVE",
"107 630 CURVE SMOOTH",
"107 543 LINE",
"33 538 LINE",
"33 469 LINE",
"107 469 LINE",
"107 0 LINE",
"198 0 LINE",
"198 469 LINE",
"313 469 LINE",
"313 543 LINE",
"198 543 LINE",
"198 629 LINE SMOOTH",
"198 700.33 OFFCURVE",
"223.67 736 OFFCURVE",
"275 736 CURVE SMOOTH",
"295 736 OFFCURVE",
"315.33 731.33 OFFCURVE",
"336 722 CURVE"
);
}
);
vertWidth = 1000;
width = 325;
}
);
note = f;
unicode = 0066;
},
{
glyphname = g;
layers = (
{
hints = (
{
horizontal = 1;
place = "{-250, 62}";
type = Stem;
},
{
horizontal = 1;
place = "{-9, 76}";
type = Stem;
},
{
horizontal = 1;
place = "{172, 62}";
type = Stem;
},
{
horizontal = 1;
place = "{473, 70}";
type = Stem;
},
{
place = "{390, 83}";
type = Stem;
},
{
place = "{81, 78}";
type = Stem;
},
{
place = "{461, 88}";
type = Stem;
},
{
place = "{71, 88}";
type = Stem;
},
{
horizontal = 1;
place = "{490, 67}";
type = Stem;
},
{
place = "{50, 80}";
type = Stem;
},
{
horizontal = 1;
place = "{0, 21}";
target = up;
type = BottomGhost;
}
);
layerId = "BCE9B1DB-4CCD-4D9A-B53B-B8E8A67648C8";
paths = (
{
closed = 1;
nodes = (
"356.33 -250 OFFCURVE",
"422.33 -231.67 OFFCURVE",
"473 -195 CURVE SMOOTH",
"523.67 -158.33 OFFCURVE",
"549 -114 OFFCURVE",
"549 -62 CURVE SMOOTH",
"549 24 OFFCURVE",
"486 67 OFFCURVE",
"360 67 CURVE SMOOTH",
"254 67 LINE SMOOTH",
"190.67 67 OFFCURVE",
"159 86.67 OFFCURVE",
"159 126 CURVE SMOOTH",
"159 149.33 OFFCURVE",
"170.67 171 OFFCURVE",
"194 191 CURVE",
"219.33 178.33 OFFCURVE",
"246.33 172 OFFCURVE",
"275 172 CURVE SMOOTH",
"331.67 172 OFFCURVE",
"378.83 189.33 OFFCURVE",
"416.5 224 CURVE SMOOTH",
"454.17 258.67 OFFCURVE",
"473 304.33 OFFCURVE",
"473 361 CURVE SMOOTH",
"473 407.67 OFFCURVE",
"458.33 445 OFFCURVE",
"429 473 CURVE",
"540 473 LINE",
"540 543 LINE",
"351 543 LINE",
"325.67 552.33 OFFCURVE",
"300.33 557 OFFCURVE",
"275 557 CURVE SMOOTH",
"218.33 557 OFFCURVE",
"170.17 539.17 OFFCURVE",
"130.5 503.5 CURVE SMOOTH",
"90.83 467.83 OFFCURVE",
"71 421 OFFCURVE",
"71 363 CURVE SMOOTH",
"71 303.67 OFFCURVE",
"94.67 255 OFFCURVE",
"142 217 CURVE",
"142 213 LINE",
"101.33 183.67 OFFCURVE",
"81 150 OFFCURVE",
"81 112 CURVE SMOOTH",
"81 72 OFFCURVE",
"97.67 42.33 OFFCURVE",
"131 23 CURVE",
"131 19 LINE",
"77 -15.67 OFFCURVE",
"50 -56.67 OFFCURVE",
"50 -104 CURVE SMOOTH",
"50 -150 OFFCURVE",
"70.5 -185.83 OFFCURVE",
"111.5 -211.5 CURVE SMOOTH",
"152.5 -237.17 OFFCURVE",
"207 -250 OFFCURVE",
"275 -250 CURVE SMOOTH"
);
},
{
closed = 1;
nodes = (
"242.33 234 OFFCURVE",
"214.83 245.83 OFFCURVE",
"192.5 269.5 CURVE SMOOTH",
"170.17 293.17 OFFCURVE",
"159 324.33 OFFCURVE",
"159 363 CURVE SMOOTH",
"159 401.67 OFFCURVE",
"170 432.5 OFFCURVE",
"192 455.5 CURVE SMOOTH",
"214 478.5 OFFCURVE",
"241.67 490 OFFCURVE",
"275 490 CURVE SMOOTH",
"307.67 490 OFFCURVE",
"335 478.5 OFFCURVE",
"357 455.5 CURVE SMOOTH",
"379 432.5 OFFCURVE",
"390 401.67 OFFCURVE",
"390 363 CURVE SMOOTH",
"390 324.33 OFFCURVE",
"378.83 293.17 OFFCURVE",
"356.5 269.5 CURVE SMOOTH",
"334.17 245.83 OFFCURVE",
"307 234 OFFCURVE",
"275 234 CURVE SMOOTH"
);
},
{
closed = 1;
nodes = (
"238.67 -188 OFFCURVE",
"200 -179.33 OFFCURVE",
"172 -162 CURVE SMOOTH",
"144 -144.67 OFFCURVE",
"130 -121.33 OFFCURVE",
"130 -92 CURVE SMOOTH",
"130 -57.33 OFFCURVE",
"148.67 -26.67 OFFCURVE",
"186 0 CURVE",
"210 -6 OFFCURVE",
"233.33 -9 OFFCURVE",
"256 -9 CURVE SMOOTH",
"350 -9 LINE SMOOTH",
"387.33 -9 OFFCURVE",
"415.17 -14.17 OFFCURVE",
"433.5 -24.5 CURVE SMOOTH",
"451.83 -34.83 OFFCURVE",
"461 -52 OFFCURVE",
"461 -76 CURVE SMOOTH",
"461 -106 OFFCURVE",
"444.67 -132.17 OFFCURVE",
"412 -154.5 CURVE SMOOTH",
"379.33 -176.83 OFFCURVE",
"338 -188 OFFCURVE",
"288 -188 CURVE SMOOTH"
);
}
);
vertWidth = 1000;
width = 563;
}
);
note = g;
unicode = 0067;
},
{
glyphname = h;
layers = (
{
hints = (
{
horizontal = 1;
place = "{0, 21}";
target = up;
type = BottomGhost;
},
{
horizontal = 1;
place = "{477, 80}";
type = Stem;
},
{
place = "{92, 91}";
type = Stem;
},
{
place = "{435, 91}";
type = Stem;
}
);
layerId = "BCE9B1DB-4CCD-4D9A-B53B-B8E8A67648C8";
paths = (
{
closed = 1;
nodes = (
"92 796 LINE",
"92 0 LINE",
"183 0 LINE",
"183 394 LINE",
"213 424 OFFCURVE",
"238.67 445.33 OFFCURVE",
"260 458 CURVE SMOOTH",
"281.33 470.67 OFFCURVE",
"305.33 477 OFFCURVE",
"332 477 CURVE SMOOTH",
"368 477 OFFCURVE",
"394.17 465.5 OFFCURVE",
"410.5 442.5 CURVE SMOOTH",
"426.83 419.5 OFFCURVE",
"435 382.67 OFFCURVE",
"435 332 CURVE SMOOTH",
"435 0 LINE",
"526 0 LINE",
"526 344 LINE SMOOTH",
"526 486 OFFCURVE",
"470.67 557 OFFCURVE",
"360 557 CURVE SMOOTH",
"300.67 557 OFFCURVE",
"240.67 526.67 OFFCURVE",
"180 466 CURVE",
"183 578 LINE",
"183 796 LINE"
);
}
);
vertWidth = 1000;
width = 607;
}
);
note = h;
unicode = 0068;
},
{
glyphname = i;
layers = (
{
hints = (
{
horizontal = 1;
place = "{0, 21}";
target = up;
type = BottomGhost;
},
{
horizontal = 1;
place = "{543, -20}";
target = down;
type = TopGhost;
},
{
horizontal = 1;
place = "{655, 118}";
type = Stem;
},
{
place = "{92, 91}";
type = Stem;
},
{
place = "{75, 126}";
type = Stem;
}
);
layerId = "BCE9B1DB-4CCD-4D9A-B53B-B8E8A67648C8";
paths = (
{
closed = 1;
nodes = (
"92 543 LINE",
"92 0 LINE",
"183 0 LINE",
"183 543 LINE"
);
},
{
closed = 1;
nodes = (
"156 655 OFFCURVE",
"171 660.67 OFFCURVE",
"183 672 CURVE SMOOTH",
"195 683.33 OFFCURVE",
"201 697.33 OFFCURVE",
"201 714 CURVE SMOOTH",
"201 732 OFFCURVE",
"195.17 746.33 OFFCURVE",
"183.5 757 CURVE SMOOTH",
"171.83 767.67 OFFCURVE",
"156.67 773 OFFCURVE",
"138 773 CURVE SMOOTH",
"119.33 773 OFFCURVE",
"104.17 767.67 OFFCURVE",
"92.5 757 CURVE SMOOTH",
"80.83 746.33 OFFCURVE",
"75 732 OFFCURVE",
"75 714 CURVE SMOOTH",
"75 697.33 OFFCURVE",
"81 683.33 OFFCURVE",
"93 672 CURVE SMOOTH",
"105 660.67 OFFCURVE",
"120 655 OFFCURVE",
"138 655 CURVE SMOOTH"
);
}
);
vertWidth = 1000;
width = 275;
}
);
note = i;
unicode = 0069;
},
{
glyphname = j;
layers = (
{
hints = (
{
horizontal = 1;
place = "{-243, 74}";
type = Stem;
},
{
horizontal = 1;
place = "{543, -20}";
target = down;
type = TopGhost;
},
{
horizontal = 1;
place = "{655, 118}";
type = Stem;
},
{
place = "{93, 91}";
type = Stem;
},
{
horizontal = 1;
place = "{-229, 21}";
target = up;
type = BottomGhost;
},
{
place = "{76, 126}";
type = Stem;
}
);
layerId = "BCE9B1DB-4CCD-4D9A-B53B-B8E8A67648C8";
paths = (
{
closed = 1;
nodes = (
"134.67 -243 OFFCURVE",
"184 -182.67 OFFCURVE",
"184 -62 CURVE SMOOTH",
"184 543 LINE",
"93 543 LINE",
"93 -62 LINE SMOOTH",
"93 -98 OFFCURVE",
"88.17 -124.83 OFFCURVE",
"78.5 -142.5 CURVE SMOOTH",
"68.83 -160.17 OFFCURVE",
"51 -169 OFFCURVE",
"25 -169 CURVE SMOOTH",
"9.67 -169 OFFCURVE",
"-7.33 -165.67 OFFCURVE",
"-26 -159 CURVE",
"-44 -229 LINE",
"-18.67 -238.33 OFFCURVE",
"8 -243 OFFCURVE",
"36 -243 CURVE SMOOTH"
);
},
{
closed = 1;
nodes = (
"156.33 655 OFFCURVE",
"171.17 660.67 OFFCURVE",
"183.5 672 CURVE SMOOTH",
"195.83 683.33 OFFCURVE",
"202 697.33 OFFCURVE",
"202 714 CURVE SMOOTH",
"202 732 OFFCURVE",
"196 746.33 OFFCURVE",
"184 757 CURVE SMOOTH",
"172 767.67 OFFCURVE",
"157 773 OFFCURVE",
"139 773 CURVE SMOOTH",
"120.33 773 OFFCURVE",
"105.17 767.67 OFFCURVE",
"93.5 757 CURVE SMOOTH",
"81.83 746.33 OFFCURVE",
"76 732 OFFCURVE",
"76 714 CURVE SMOOTH",
"76 697.33 OFFCURVE",
"82 683.33 OFFCURVE",
"94 672 CURVE SMOOTH",
"106 660.67 OFFCURVE",
"121 655 OFFCURVE",
"139 655 CURVE SMOOTH"
);
}
);
vertWidth = 1000;
width = 275;
}
);
note = j;
unicode = 006A;
},
{
glyphname = k;
layers = (
{
hints = (
{
horizontal = 1;
place = "{0, 21}";
target = up;
type = BottomGhost;
},
{
horizontal = 1;
place = "{543, -20}";
target = down;
type = TopGhost;
},
{
place = "{92, 90}";
type = Stem;
}
);
layerId = "BCE9B1DB-4CCD-4D9A-B53B-B8E8A67648C8";
paths = (
{
closed = 1;
nodes = (
"92 796 LINE",
"92 0 LINE",
"182 0 LINE",
"182 143 LINE",
"284 262 LINE",
"443 0 LINE",
"542 0 LINE",
"336 325 LINE",
"518 543 LINE",
"417 543 LINE",
"184 256 LINE",
"182 256 LINE",
"182 796 LINE"
);
}
);
vertWidth = 1000;
width = 552;
}
);
note = k;
unicode = 006B;
},
{
glyphname = l;
layers = (
{
hints = (
{
horizontal = 1;
place = "{-13, 76}";
type = Stem;
},
{
place = "{92, 91}";
type = Stem;
}
);
layerId = "BCE9B1DB-4CCD-4D9A-B53B-B8E8A67648C8";
paths = (
{
closed = 1;
nodes = (
"209.33 -13 OFFCURVE",
"227 -10.33 OFFCURVE",
"241 -5 CURVE",
"228 65 LINE",
"221.33 63.67 OFFCURVE",
"215 63 OFFCURVE",
"209 63 CURVE SMOOTH",
"191.67 63 OFFCURVE",
"183 76 OFFCURVE",
"183 102 CURVE SMOOTH",
"183 796 LINE",
"92 796 LINE",
"92 108 LINE SMOOTH",
"92 27.33 OFFCURVE",
"124 -13 OFFCURVE",
"188 -13 CURVE SMOOTH"
);
}
);
vertWidth = 1000;
width = 285;
}
);
note = l;
unicode = 006C;
},
{
glyphname = m;
layers = (
{
hints = (
{
horizontal = 1;
place = "{0, 21}";
target = up;
type = BottomGhost;
},
{
horizontal = 1;
place = "{543, -20}";
target = down;
type = TopGhost;
},
{
place = "{92, 91}";
type = Stem;
},
{
place = "{421, 91}";
type = Stem;
},
{
place = "{750, 91}";
type = Stem;
},
{
horizontal = 1;
place = "{477, 80}";
type = Stem;
}
);
layerId = "BCE9B1DB-4CCD-4D9A-B53B-B8E8A67648C8";
paths = (
{
closed = 1;
nodes = (
"92 543 LINE",
"92 0 LINE",
"183 0 LINE",
"183 394 LINE",
"232.33 449.33 OFFCURVE",
"278 477 OFFCURVE",
"320 477 CURVE SMOOTH",
"354.67 477 OFFCURVE",
"380.17 465.5 OFFCURVE",
"396.5 442.5 CURVE SMOOTH",
"412.83 419.5 OFFCURVE",
"421 382.67 OFFCURVE",
"421 332 CURVE SMOOTH",
"421 0 LINE",
"512 0 LINE",
"512 394 LINE",
"562.67 449.33 OFFCURVE",
"608.33 477 OFFCURVE",
"649 477 CURVE SMOOTH",
"683.67 477 OFFCURVE",
"709.17 465.5 OFFCURVE",
"725.5 442.5 CURVE SMOOTH",
"741.83 419.5 OFFCURVE",
"750 382.67 OFFCURVE",
"750 332 CURVE SMOOTH",
"750 0 LINE",
"841 0 LINE",
"841 344 LINE SMOOTH",
"841 486 OFFCURVE",
"786 557 OFFCURVE",
"676 557 CURVE SMOOTH",
"620 557 OFFCURVE",
"560.33 522.33 OFFCURVE",
"497 453 CURVE",
"473 522.33 OFFCURVE",
"423 557 OFFCURVE",
"347 557 CURVE SMOOTH",
"290.33 557 OFFCURVE",
"234 526 OFFCURVE",
"178 464 CURVE",
"175 464 LINE",
"167 543 LINE"
);
}
);
vertWidth = 1000;
width = 926;
}
);
note = m;
unicode = 006D;
},
{
glyphname = n;
layers = (
{
hints = (
{
horizontal = 1;
place = "{0, 21}";
target = up;
type = BottomGhost;
},
{
horizontal = 1;
place = "{543, -20}";
target = down;
type = TopGhost;
},
{
place = "{92, 91}";
type = Stem;
},
{
place = "{435, 91}";
type = Stem;
},
{
horizontal = 1;
place = "{477, 80}";
type = Stem;
}
);
layerId = "BCE9B1DB-4CCD-4D9A-B53B-B8E8A67648C8";
paths = (
{
closed = 1;
nodes = (
"92 543 LINE",
"92 0 LINE",
"183 0 LINE",
"183 394 LINE",
"213 424 OFFCURVE",
"238.67 445.33 OFFCURVE",
"260 458 CURVE SMOOTH",
"281.33 470.67 OFFCURVE",
"305.33 477 OFFCURVE",
"332 477 CURVE SMOOTH",
"368 477 OFFCURVE",
"394.17 465.5 OFFCURVE",
"410.5 442.5 CURVE SMOOTH",
"426.83 419.5 OFFCURVE",
"435 382.67 OFFCURVE",
"435 332 CURVE SMOOTH",
"435 0 LINE",
"526 0 LINE",
"526 344 LINE SMOOTH",
"526 486 OFFCURVE",
"470.67 557 OFFCURVE",
"360 557 CURVE SMOOTH",
"301.33 557 OFFCURVE",
"240.67 526.33 OFFCURVE",
"178 465 CURVE",
"175 465 LINE",
"167 543 LINE"
);
}
);
vertWidth = 1000;
width = 611;
}
);
note = n;
unicode = 006E;
},
{
glyphname = o;
layers = (
{
hints = (
{
horizontal = 1;
place = "{-13, 76}";
type = Stem;
},
{
horizontal = 1;
place = "{481, 76}";
type = Stem;
},
{
place = "{51, 95}";
type = Stem;
},
{
place = "{461, 94}";
type = Stem;
}
);
layerId = "BCE9B1DB-4CCD-4D9A-B53B-B8E8A67648C8";
paths = (
{
closed = 1;
nodes = (
"373 -13 OFFCURVE",
"432.5 12.67 OFFCURVE",
"481.5 64 CURVE SMOOTH",
"530.5 115.33 OFFCURVE",
"555 184.33 OFFCURVE",
"555 271 CURVE SMOOTH",
"555 358.33 OFFCURVE",
"530.5 427.83 OFFCURVE",
"481.5 479.5 CURVE SMOOTH",
"432.5 531.17 OFFCURVE",
"373 557 OFFCURVE",
"303 557 CURVE SMOOTH",
"233 557 OFFCURVE",
"173.5 531.17 OFFCURVE",
"124.5 479.5 CURVE SMOOTH",
"75.5 427.83 OFFCURVE",
"51 358.33 OFFCURVE",
"51 271 CURVE SMOOTH",
"51 184.33 OFFCURVE",
"75.5 115.33 OFFCURVE",
"124.5 64 CURVE SMOOTH",
"173.5 12.67 OFFCURVE",
"233 -13 OFFCURVE",
"303 -13 CURVE SMOOTH"
);
},
{
closed = 1;
nodes = (
"255.67 63 OFFCURVE",
"217.67 82 OFFCURVE",
"189 120 CURVE SMOOTH",
"160.33 158 OFFCURVE",
"146 208.33 OFFCURVE",
"146 271 CURVE SMOOTH",
"146 333.67 OFFCURVE",
"160.5 384.33 OFFCURVE",
"189.5 423 CURVE SMOOTH",
"218.5 461.67 OFFCURVE",
"256.33 481 OFFCURVE",
"303 481 CURVE SMOOTH",
"350.33 481 OFFCURVE",
"388.5 461.67 OFFCURVE",
"417.5 423 CURVE SMOOTH",
"446.5 384.33 OFFCURVE",
"461 333.67 OFFCURVE",
"461 271 CURVE SMOOTH",
"461 208.33 OFFCURVE",
"446.5 158 OFFCURVE",
"417.5 120 CURVE SMOOTH",
"388.5 82 OFFCURVE",
"350.33 63 OFFCURVE",
"303 63 CURVE SMOOTH"
);
}
);
vertWidth = 1000;
width = 606;
}
);
note = o;
unicode = 006F;
},
{
glyphname = p;
layers = (
{
hints = (
{
horizontal = 1;
place = "{-229, 21}";
target = up;
type = BottomGhost;
},
{
horizontal = 1;
place = "{-13, 76}";
type = Stem;
},
{
horizontal = 1;
place = "{543, -20}";
target = down;
type = TopGhost;
},
{
place = "{92, 91}";
type = Stem;
},
{
place = "{472, 95}";
type = Stem;
},
{
horizontal = 1;
place = "{480, 77}";
type = Stem;
}
);
layerId = "BCE9B1DB-4CCD-4D9A-B53B-B8E8A67648C8";
paths = (
{
closed = 1;
nodes = (
"92 543 LINE",
"92 -229 LINE",
"183 -229 LINE",
"183 -45 LINE",
"181 50 LINE",
"232.33 8 OFFCURVE",
"282.33 -13 OFFCURVE",
"331 -13 CURVE SMOOTH",
"396.33 -13 OFFCURVE",
"452 13.5 OFFCURVE",
"498 66.5 CURVE SMOOTH",
"544 119.5 OFFCURVE",
"567 190.67 OFFCURVE",
"567 280 CURVE SMOOTH",
"567 365.33 OFFCURVE",
"548.17 432.83 OFFCURVE",
"510.5 482.5 CURVE SMOOTH",
"472.83 532.17 OFFCURVE",
"419.67 557 OFFCURVE",
"351 557 CURVE SMOOTH",
"297.67 557 OFFCURVE",
"240 531.67 OFFCURVE",
"178 481 CURVE",
"175 481 LINE",
"167 543 LINE"
);
},
{
closed = 1;
nodes = (
"272 63 OFFCURVE",
"227.67 82 OFFCURVE",
"183 120 CURVE",
"183 405 LINE",
"237 455 OFFCURVE",
"285.67 480 OFFCURVE",
"329 480 CURVE SMOOTH",
"424.33 480 OFFCURVE",
"472 413 OFFCURVE",
"472 279 CURVE SMOOTH",
"472 213 OFFCURVE",
"457.5 160.5 OFFCURVE",
"428.5 121.5 CURVE SMOOTH",
"399.5 82.5 OFFCURVE",
"362 63 OFFCURVE",
"316 63 CURVE SMOOTH"
);
}
);
vertWidth = 1000;
width = 620;
}
);
note = p;
unicode = 0070;
},
{
glyphname = q;
layers = (
{
hints = (
{
horizontal = 1;
place = "{-229, 21}";
target = up;
type = BottomGhost;
},
{
horizontal = 1;
place = "{-13, 76}";
type = Stem;
},
{
horizontal = 1;
place = "{543, -20}";
target = down;
type = TopGhost;
},
{
place = "{53, 94}";
type = Stem;
},
{
place = "{436, 91}";
type = Stem;
},
{
horizontal = 1;
place = "{480, 77}";
type = Stem;
}
);
layerId = "BCE9B1DB-4CCD-4D9A-B53B-B8E8A67648C8";
paths = (
{
closed = 1;
nodes = (
"436 -36 LINE",
"436 -229 LINE",
"527 -229 LINE",
"527 543 LINE",
"455 543 LINE",
"446 491 LINE",
"443 491 LINE",
"395 535 OFFCURVE",
"343.33 557 OFFCURVE",
"288 557 CURVE SMOOTH",
"223.33 557 OFFCURVE",
"168 530.67 OFFCURVE",
"122 478 CURVE SMOOTH",
"76 425.33 OFFCURVE",
"53 356.33 OFFCURVE",
"53 271 CURVE SMOOTH",
"53 181.67 OFFCURVE",
"73.17 112 OFFCURVE",
"113.5 62 CURVE SMOOTH",
"153.83 12 OFFCURVE",
"208.33 -13 OFFCURVE",
"277 -13 CURVE SMOOTH",
"334.33 -13 OFFCURVE",
"389 12.33 OFFCURVE",
"441 63 CURVE"
);
},
{
closed = 1;
nodes = (
"249 63 OFFCURVE",
"212 81.33 OFFCURVE",
"186 118 CURVE SMOOTH",
"160 154.67 OFFCURVE",
"147 206 OFFCURVE",
"147 272 CURVE SMOOTH",
"147 333.33 OFFCURVE",
"162 383.33 OFFCURVE",
"192 422 CURVE SMOOTH",
"222 460.67 OFFCURVE",
"259.33 480 OFFCURVE",
"304 480 CURVE SMOOTH",
"349.33 480 OFFCURVE",
"393.33 461 OFFCURVE",
"436 423 CURVE",
"436 138 LINE",
"390.67 88 OFFCURVE",
"344.33 63 OFFCURVE",
"297 63 CURVE SMOOTH"
);
}
);
vertWidth = 1000;
width = 620;
}
);
note = q;
unicode = 0071;
},
{
glyphname = r;
layers = (
{
hints = (
{
horizontal = 1;
place = "{0, 21}";
target = up;
type = BottomGhost;
},
{
horizontal = 1;
place = "{543, -20}";
target = down;
type = TopGhost;
},
{
place = "{92, 91}";
type = Stem;
},
{
horizontal = 1;
place = "{474, 83}";
type = Stem;
},
{
horizontal = 1;
place = "{545, -20}";
target = down;
type = TopGhost;
}
);
layerId = "BCE9B1DB-4CCD-4D9A-B53B-B8E8A67648C8";
paths = (
{
closed = 1;
nodes = (
"92 543 LINE",
"92 0 LINE",
"183 0 LINE",
"183 349 LINE",
"199.67 392.33 OFFCURVE",
"220.33 424 OFFCURVE",
"245 444 CURVE SMOOTH",
"269.67 464 OFFCURVE",
"294.67 474 OFFCURVE",
"320 474 CURVE SMOOTH",
"340 474 OFFCURVE",
"357.67 471 OFFCURVE",
"373 465 CURVE",
"390 545 LINE",
"374.67 553 OFFCURVE",
"355.33 557 OFFCURVE",
"332 557 CURVE SMOOTH",
"302 557 OFFCURVE",
"273.67 547 OFFCURVE",
"247 527 CURVE SMOOTH",
"220.33 507 OFFCURVE",
"197.33 479.33 OFFCURVE",
"178 444 CURVE",
"175 444 LINE",
"167 543 LINE"
);
}
);
vertWidth = 1000;
width = 388;
}
);
note = r;
unicode = 0072;
},
{
glyphname = s;
layers = (
{
hints = (
{
horizontal = 1;
place = "{-13, 71}";
type = Stem;
},
{
horizontal = 1;
place = "{485, 72}";
type = Stem;
},
{
place = "{58, 88}";
type = Stem;
},
{
place = "{344, 88}";
type = Stem;
}
);
layerId = "BCE9B1DB-4CCD-4D9A-B53B-B8E8A67648C8";
paths = (
{
closed = 1;
nodes = (
"296 -13 OFFCURVE",
"344.5 2.33 OFFCURVE",
"379.5 33 CURVE SMOOTH",
"414.5 63.67 OFFCURVE",
"432 102 OFFCURVE",
"432 148 CURVE SMOOTH",
"432 168 OFFCURVE",
"428.33 186.17 OFFCURVE",
"421 202.5 CURVE SMOOTH",
"413.67 218.83 OFFCURVE",
"405.67 232 OFFCURVE",
"397 242 CURVE SMOOTH",
"388.33 252 OFFCURVE",
"375.17 262 OFFCURVE",
"357.5 272 CURVE SMOOTH",
"339.83 282 OFFCURVE",
"325.67 289.33 OFFCURVE",
"315 294 CURVE SMOOTH",
"304.33 298.67 OFFCURVE",
"288 305 OFFCURVE",
"266 313 CURVE SMOOTH",
"264 313.67 OFFCURVE",
"260.61 314.94 OFFCURVE",
"255.83 316.82 CURVE SMOOTH",
"229.28 326.94 OFFCURVE",
"210.5 334.5 OFFCURVE",
"199.5 339.5 CURVE SMOOTH",
"188.5 344.5 OFFCURVE",
"176.83 353.17 OFFCURVE",
"164.5 365.5 CURVE SMOOTH",
"152.17 377.83 OFFCURVE",
"146 391.67 OFFCURVE",
"146 407 CURVE SMOOTH",
"146 429.67 OFFCURVE",
"154.5 448.33 OFFCURVE",
"171.5 463 CURVE SMOOTH",
"188.5 477.67 OFFCURVE",
"213 485 OFFCURVE",
"245 485 CURVE SMOOTH",
"285 485 OFFCURVE",
"326.67 469 OFFCURVE",
"370 437 CURVE",
"414 496 LINE",
"361.33 536.67 OFFCURVE",
"305 557 OFFCURVE",
"245 557 CURVE SMOOTH",
"187.67 557 OFFCURVE",
"142.17 542.5 OFFCURVE",
"108.5 513.5 CURVE SMOOTH",
"74.83 484.5 OFFCURVE",
"58 447.67 OFFCURVE",
"58 403 CURVE SMOOTH",
"58 381 OFFCURVE",
"62.5 361.33 OFFCURVE",
"71.5 344 CURVE SMOOTH",
"80.5 326.67 OFFCURVE",
"93.83 311.83 OFFCURVE",
"111.5 299.5 CURVE SMOOTH",
"129.17 287.17 OFFCURVE",
"145.83 277.33 OFFCURVE",
"161.5 270 CURVE SMOOTH",
"177.17 262.67 OFFCURVE",
"196.67 254.67 OFFCURVE",
"220 246 CURVE SMOOTH",
"246.67 236 OFFCURVE",
"267 227.67 OFFCURVE",
"281 221 CURVE SMOOTH",
"295 214.33 OFFCURVE",
"309 204 OFFCURVE",
"323 190 CURVE SMOOTH",
"337 176 OFFCURVE",
"344 160.33 OFFCURVE",
"344 143 CURVE SMOOTH",
"344 118.33 OFFCURVE",
"334.83 98 OFFCURVE",
"316.5 82 CURVE SMOOTH",
"298.17 66 OFFCURVE",
"271.67 58 OFFCURVE",
"237 58 CURVE SMOOTH",
"182.33 58 OFFCURVE",
"128.67 79.33 OFFCURVE",
"76 122 CURVE",
"31 62 LINE",
"91.67 12 OFFCURVE",
"159.33 -13 OFFCURVE",
"234 -13 CURVE SMOOTH"
);
}
);
vertWidth = 1000;
width = 468;
}
);
note = s;
unicode = 0073;
},
{
glyphname = t;
layers = (
{
hints = (
{
horizontal = 1;
place = "{-13, 74}";
type = Stem;
},
{
horizontal = 1;
place = "{469, 74}";
type = Stem;
},
{
place = "{108, 91}";
type = Stem;
}
);
layerId = "BCE9B1DB-4CCD-4D9A-B53B-B8E8A67648C8";
paths = (
{
closed = 1;
nodes = (
"288.33 -13 OFFCURVE",
"321.67 -6.33 OFFCURVE",
"363 7 CURVE",
"345 75 LINE",
"321 65.67 OFFCURVE",
"300.33 61 OFFCURVE",
"283 61 CURVE SMOOTH",
"252.33 61 OFFCURVE",
"230.67 69.67 OFFCURVE",
"218 87 CURVE SMOOTH",
"205.33 104.33 OFFCURVE",
"199 130.67 OFFCURVE",
"199 166 CURVE SMOOTH",
"199 469 LINE",
"346 469 LINE",
"346 543 LINE",
"199 543 LINE",
"199 695 LINE",
"123 695 LINE",
"112 543 LINE",
"27 538 LINE",
"27 469 LINE",
"108 469 LINE",
"108 168 LINE SMOOTH",
"108 47.33 OFFCURVE",
"159.67 -13 OFFCURVE",
"263 -13 CURVE SMOOTH"
);
}
);
vertWidth = 1000;
width = 377;
}
);
note = t;
unicode = 0074;
},
{
glyphname = u;
layers = (
{
hints = (
{
horizontal = 1;
place = "{-13, 79}";
type = Stem;
},
{
horizontal = 1;
place = "{543, -20}";
target = down;
type = TopGhost;
},
{
place = "{85, 91}";
type = Stem;
},
{
place = "{425, 91}";
type = Stem;
},
{
horizontal = 1;
place = "{0, 21}";
target = up;
type = BottomGhost;
}
);
layerId = "BCE9B1DB-4CCD-4D9A-B53B-B8E8A67648C8";
paths = (
{
closed = 1;
nodes = (
"313.33 -13 OFFCURVE",
"373.33 19.67 OFFCURVE",
"430 85 CURVE",
"433 85 LINE",
"440 0 LINE",
"516 0 LINE",
"516 543 LINE",
"425 543 LINE",
"425 158 LINE",
"398.33 124.67 OFFCURVE",
"374 101 OFFCURVE",
"352 87 CURVE SMOOTH",
"330 73 OFFCURVE",
"305.33 66 OFFCURVE",
"278 66 CURVE SMOOTH",
"242 66 OFFCURVE",
"216 77.33 OFFCURVE",
"200 100 CURVE SMOOTH",
"184 122.67 OFFCURVE",
"176 159.33 OFFCURVE",
"176 210 CURVE SMOOTH",
"176 543 LINE",
"85 543 LINE",
"85 199 LINE SMOOTH",
"85 57.67 OFFCURVE",
"140 -13 OFFCURVE",
"250 -13 CURVE SMOOTH"
);
}
);
vertWidth = 1000;
width = 607;
}
);
note = u;
unicode = 0075;
},
{
glyphname = v;
layers = (
{
hints = (
{
horizontal = 1;
place = "{0, 74}";
type = Stem;
},
{
horizontal = 1;
place = "{543, -20}";
target = down;
type = TopGhost;
},
{
place = "{13, 495}";
type = Stem;
}
);
layerId = "BCE9B1DB-4CCD-4D9A-B53B-B8E8A67648C8";
paths = (
{
closed = 1;
nodes = (
"13 543 LINE",
"209 0 LINE",
"315 0 LINE",
"508 543 LINE",
"418 543 LINE",
"315 234 LINE SMOOTH",
"311.67 222.67 OFFCURVE",
"295 169.33 OFFCURVE",
"265 74 CURVE",
"261 74 LINE",
"254.33 94 OFFCURVE",
"244.83 123.5 OFFCURVE",
"232.5 162.5 CURVE SMOOTH",
"220.17 201.5 OFFCURVE",
"212.67 225.33 OFFCURVE",
"210 234 CURVE SMOOTH",
"108 543 LINE"
);
}
);
vertWidth = 1000;
width = 521;
}
);
note = v;
unicode = 0076;
},
{
glyphname = w;
layers = (
{
hints = (
{
horizontal = 1;
place = "{0, 77}";
type = Stem;
},
{
horizontal = 1;
place = "{449, 94}";
type = Stem;
},
{
place = "{27, 748}";
type = Stem;
}
);
layerId = "BCE9B1DB-4CCD-4D9A-B53B-B8E8A67648C8";
paths = (
{
closed = 1;
nodes = (
"27 543 LINE",
"178 0 LINE",
"285 0 LINE",
"361 291 LINE SMOOTH",
"369.67 324.33 OFFCURVE",
"382 377 OFFCURVE",
"398 449 CURVE",
"403 449 LINE",
"427 347 OFFCURVE",
"439.33 295 OFFCURVE",
"440 293 CURVE SMOOTH",
"519 0 LINE",
"629 0 LINE",
"775 543 LINE",
"689 543 LINE",
"609 229 LINE SMOOTH",
"605.67 213 OFFCURVE",
"600.17 188.17 OFFCURVE",
"592.5 154.5 CURVE SMOOTH",
"584.83 120.83 OFFCURVE",
"579 95 OFFCURVE",
"575 77 CURVE",
"571 77 LINE",
"567 92.33 OFFCURVE",
"563 108.33 OFFCURVE",
"559 125 CURVE SMOOTH",
"555 141.67 OFFCURVE",
"550.33 160.33 OFFCURVE",
"545 181 CURVE SMOOTH",
"539.67 201.67 OFFCURVE",
"535.67 217.67 OFFCURVE",
"533 229 CURVE SMOOTH",
"448 543 LINE",
"359 543 LINE",
"275 229 LINE SMOOTH",
"269 208.33 OFFCURVE",
"256.67 157.67 OFFCURVE",
"238 77 CURVE",
"233 77 LINE",
"231.67 83.67 OFFCURVE",
"221 134.33 OFFCURVE",
"201 229 CURVE",
"120 543 LINE"
);
}
);
vertWidth = 1000;
width = 802;
}
);
note = w;
unicode = 0077;
},
{
glyphname = x;
layers = (
{
hints = (
{
horizontal = 1;
place = "{0, 21}";
target = up;
type = BottomGhost;
},
{
horizontal = 1;
place = "{543, -20}";
target = down;
type = TopGhost;
},
{
place = "{15, 468}";
type = Stem;
}
);
layerId = "BCE9B1DB-4CCD-4D9A-B53B-B8E8A67648C8";
paths = (
{
closed = 1;
nodes = (
"194 283 LINE",
"15 0 LINE",
"111 0 LINE",
"184 127 LINE SMOOTH",
"220 189 OFFCURVE",
"238.67 221.33 OFFCURVE",
"240 224 CURVE",
"245 224 LINE",
"267 190 OFFCURVE",
"286.33 157.67 OFFCURVE",
"303 127 CURVE",
"383 0 LINE",
"483 0 LINE",
"304 274 LINE",
"469 543 LINE",
"374 543 LINE",
"307 423 LINE SMOOTH",
"285.67 383 OFFCURVE",
"269.33 353 OFFCURVE",
"258 333 CURVE",
"254 333 LINE",
"200 423 LINE",
"127 543 LINE",
"29 543 LINE"
);
}
);
vertWidth = 1000;
width = 498;
}
);
note = x;
unicode = 0078;
},
{
glyphname = y;
layers = (
{
hints = (
{
horizontal = 1;
place = "{-234, 75}";
type = Stem;
},
{
horizontal = 1;
place = "{543, -20}";
target = down;
type = TopGhost;
},
{
place = "{13, 495}";
type = Stem;
}
);
layerId = "BCE9B1DB-4CCD-4D9A-B53B-B8E8A67648C8";
paths = (
{
closed = 1;
nodes = (
"151 -234 OFFCURVE",
"191.83 -217.33 OFFCURVE",
"223.5 -184 CURVE SMOOTH",
"255.17 -150.67 OFFCURVE",
"281.67 -104.33 OFFCURVE",
"303 -45 CURVE SMOOTH",
"508 543 LINE",
"419 543 LINE",
"322 241 LINE SMOOTH",
"316.67 223 OFFCURVE",
"308.67 196.33 OFFCURVE",
"298 161 CURVE SMOOTH",
"287.33 125.67 OFFCURVE",
"280 101.67 OFFCURVE",
"276 89 CURVE",
"271 89 LINE",
"261.67 115 OFFCURVE",
"244.33 165.67 OFFCURVE",
"219 241 CURVE SMOOTH",
"108 543 LINE",
"13 543 LINE",
"231 -1 LINE",
"219 -42 LINE SMOOTH",
"193.67 -120 OFFCURVE",
"152.67 -159 OFFCURVE",
"96 -159 CURVE SMOOTH",
"85.33 -159 OFFCURVE",
"71.67 -156 OFFCURVE",
"55 -150 CURVE",
"37 -223 LINE",
"55 -230.33 OFFCURVE",
"76.33 -234 OFFCURVE",
"101 -234 CURVE SMOOTH"
);
}
);
vertWidth = 1000;
width = 521;
}
);
note = y;
unicode = 0079;
},
{
glyphname = z;
layers = (
{
hints = (
{
horizontal = 1;
place = "{0, 74}";
type = Stem;
},
{
horizontal = 1;
place = "{469, 74}";
type = Stem;
},
{
place = "{35, 411}";
type = Stem;
}
);
layerId = "BCE9B1DB-4CCD-4D9A-B53B-B8E8A67648C8";
paths = (
{
closed = 1;
nodes = (
"35 49 LINE",
"35 0 LINE",
"446 0 LINE",
"446 74 LINE",
"150 74 LINE",
"436 494 LINE",
"436 543 LINE",
"66 543 LINE",
"66 469 LINE",
"321 469 LINE"
);
}
);
vertWidth = 1000;
width = 474;
}
);
note = z;
unicode = 007A;
},
{
glyphname = uni4E00;
layers = (
{
hints = (
{
horizontal = 1;
place = "{349, 81}";
type = Stem;
},
{
place = "{48, 908}";
type = Stem;
}
);
layerId = "BCE9B1DB-4CCD-4D9A-B53B-B8E8A67648C8";
paths = (
{
closed = 1;
nodes = (
"48 430 LINE",
"48 349 LINE",
"956 349 LINE",
"956 430 LINE"
);
}
);
vertWidth = 1000;
width = 1000;
}
);
note = uni4E00;
unicode = 4E00;
},
{
glyphname = uni4E66;
layers = (
{
hints = (
{
horizontal = 1;
place = "{24, 65}";
type = Stem;
},
{
horizontal = 1;
place = "{324, 71}";
type = Stem;
},
{
horizontal = 1;
place = "{590, 72}";
type = Stem;
},
{
place = "{420, 74}";
type = Stem;
},
{
place = "{725, 73}";
type = Stem;
},
{
place = "{863, 79}";
type = Stem;
}
);
layerId = "BCE9B1DB-4CCD-4D9A-B53B-B8E8A67648C8";
paths = (
{
closed = 1;
nodes = (
"948 671 LINE",
"905.43 708.34 OFFCURVE",
"842.76 753.34 OFFCURVE",
"760 806 CURVE",
"716 757 LINE",
"797.92 703.14 OFFCURVE",
"859.92 655.81 OFFCURVE",
"902 615 CURVE"
);
},
{
closed = 1;
nodes = (
"494 590 LINE",
"725 590 LINE",
"725 395 LINE",
"494 395 LINE"
);
},
{
closed = 1;
nodes = (
"798 395 LINE",
"798 662 LINE",
"494 662 LINE",
"494 833 LINE",
"420 833 LINE",
"420 662 LINE",
"130 662 LINE",
"130 590 LINE",
"420 590 LINE",
"420 395 LINE",
"64 395 LINE",
"64 324 LINE",
"420 324 LINE",
"420 -76 LINE",
"494 -76 LINE",
"494 324 LINE",
"863 324 LINE",
"852.02 192.21 OFFCURVE",
"837.02 117.21 OFFCURVE",
"818 99 CURVE SMOOTH",
"810.03 92.75 OFFCURVE",
"796.03 89.42 OFFCURVE",
"776 89 CURVE SMOOTH",
"718.32 89 OFFCURVE",
"668.32 91 OFFCURVE",
"626 95 CURVE",
"640.55 72.19 OFFCURVE",
"648.55 48.52 OFFCURVE",
"650 24 CURVE",
"719.74 20.65 OFFCURVE",
"770.4 19.99 OFFCURVE",
"802 22 CURVE SMOOTH",
"835.29 24.1 OFFCURVE",
"861.29 34.1 OFFCURVE",
"880 52 CURVE SMOOTH",
"883.81 56.09 OFFCURVE",
"887.59 61.3 OFFCURVE",
"891.37 67.62 CURVE SMOOTH",
"911.07 102.63 OFFCURVE",
"926.95 200.09 OFFCURVE",
"939 360 CURVE SMOOTH",
"940.89 382.68 OFFCURVE",
"941.89 394.35 OFFCURVE",
"942 395 CURVE"
);
}
);
vertWidth = 1000;
width = 1000;
}
);
note = uni4E66;
unicode = 4E66;
},
{
glyphname = uni4F20;
layers = (
{
hints = (
{
horizontal = 1;
place = "{275, 70}";
type = Stem;
},
{
horizontal = 1;
place = "{464, 69}";
type = Stem;
},
{
horizontal = 1;
place = "{652, 69}";
type = Stem;
},
{
place = "{162, 73}";
type = Stem;
}
);
layerId = "BCE9B1DB-4CCD-4D9A-B53B-B8E8A67648C8";
paths = (
{
closed = 1;
nodes = (
"268 833 LINE",
"259.27 809.38 OFFCURVE",
"249.49 785.4 OFFCURVE",
"238.67 761.06 CURVE SMOOTH",
"179.41 628.46 OFFCURVE",
"106.85 520.1 OFFCURVE",
"21 436 CURVE",
"35.17 418.45 OFFCURVE",
"49.51 394.45 OFFCURVE",
"64 364 CURVE",
"101 403.32 OFFCURVE",
"133.67 442.98 OFFCURVE",
"162 483 CURVE",
"162 -75 LINE",
"235 -75 LINE",
"235 596 LINE",
"274.24 665.52 OFFCURVE",
"308.57 737.19 OFFCURVE",
"338 811 CURVE"
);
},
{
closed = 1;
nodes = (
"950 464 LINE",
"950 533 LINE",
"569 533 LINE",
"587.72 599.31 OFFCURVE",
"598.72 638.98 OFFCURVE",
"602 652 CURVE",
"905 652 LINE",
"905 721 LINE",
"621 721 LINE",
"626.08 740.2 OFFCURVE",
"634.75 773.54 OFFCURVE",
"647 821 CURVE",
"573 831 LINE",
"570.13 818.5 OFFCURVE",
"565.35 798.9 OFFCURVE",
"558.64 772.21 CURVE SMOOTH",
"552.95 749.61 OFFCURVE",
"548.74 732.54 OFFCURVE",
"546 721 CURVE",
"351 721 LINE",
"351 652 LINE",
"527 652 LINE",
"523.39 639.21 OFFCURVE",
"517.89 619.37 OFFCURVE",
"510.5 592.5 CURVE SMOOTH",
"503.17 565.83 OFFCURVE",
"497.67 546 OFFCURVE",
"494 533 CURVE",
"294 533 LINE",
"294 464 LINE",
"473 464 LINE",
"450.31 387.34 OFFCURVE",
"429.97 324.34 OFFCURVE",
"412 275 CURVE",
"767 275 LINE",
"724.51 225.63 OFFCURVE",
"675.18 170.63 OFFCURVE",
"619 110 CURVE",
"591 129.22 OFFCURVE",
"559 149.89 OFFCURVE",
"523 172 CURVE",
"470 127 LINE",
"482.1 119.31 OFFCURVE",
"494.91 110.89 OFFCURVE",
"508.45 101.74 CURVE SMOOTH",
"605.73 35.8 OFFCURVE",
"679.58 -23.78 OFFCURVE",
"730 -77 CURVE",
"785 -22 LINE",
"759.24 3.76 OFFCURVE",
"722.91 34.09 OFFCURVE",
"676 69 CURVE",
"769.67 172.54 OFFCURVE",
"843 255.21 OFFCURVE",
"896 317 CURVE",
"845 350 LINE",
"832 345 LINE",
"513 345 LINE",
"533.14 410.87 OFFCURVE",
"545.14 450.54 OFFCURVE",
"549 464 CURVE"
);
}
);
vertWidth = 1000;
width = 1000;
}
);
note = uni4F20;
unicode = 4F20;
},
{
glyphname = uni4F53;
layers = (
{
hints = (
{
horizontal = 1;
place = "{108, 68}";
type = Stem;
},
{
horizontal = 1;
place = "{564, 72}";
type = Stem;
},
{
place = "{163, 71}";
type = Stem;
},
{
place = "{580, 72}";
type = Stem;
}
);
layerId = "BCE9B1DB-4CCD-4D9A-B53B-B8E8A67648C8";
paths = (
{
closed = 1;
nodes = (
"254 833 LINE",
"248.57 816.65 OFFCURVE",
"242.66 799.96 OFFCURVE",
"236.27 782.94 CURVE SMOOTH",
"182.4 640.17 OFFCURVE",
"115.31 524.52 OFFCURVE",
"35 436 CURVE",
"50.02 416.05 OFFCURVE",
"64.35 391.71 OFFCURVE",
"78 363 CURVE",
"107.7 397.91 OFFCURVE",
"136.03 436.24 OFFCURVE",
"163 478 CURVE",
"163 -75 LINE",
"234 -75 LINE",
"234 601 LINE",
"270.16 673.42 OFFCURVE",
"299.83 743.76 OFFCURVE",
"323 812 CURVE"
);
},
{
closed = 1;
nodes = (
"950 564 LINE",
"950 636 LINE",
"652 636 LINE",
"652 833 LINE",
"580 833 LINE",
"580 636 LINE",
"300 636 LINE",
"300 564 LINE",
"535 564 LINE",
"519.56 521.36 OFFCURVE",
"501.49 478.91 OFFCURVE",
"480.79 436.65 CURVE SMOOTH",
"415.36 303.69 OFFCURVE",
"342.1 204.47 OFFCURVE",
"261 139 CURVE",
"278.86 125.06 OFFCURVE",
"296.86 106.4 OFFCURVE",
"315 83 CURVE",
"328.35 95.27 OFFCURVE",
"342 109.04 OFFCURVE",
"355.95 124.31 CURVE SMOOTH",
"445.16 222.81 OFFCURVE",
"519.84 353.37 OFFCURVE",
"580 516 CURVE",
"580 176 LINE",
"417 176 LINE",
"417 108 LINE",
"580 108 LINE",
"580 -71 LINE",
"652 -71 LINE",
"652 108 LINE",
"813 108 LINE",
"813 176 LINE",
"652 176 LINE",
"652 523 LINE",
"662.65 492.7 OFFCURVE",
"674.41 462.42 OFFCURVE",
"687.28 432.15 CURVE SMOOTH",
"752.55 279.23 OFFCURVE",
"828.13 163.52 OFFCURVE",
"914.01 85 CURVE",
"929.31 108.06 OFFCURVE",
"947.98 127.73 OFFCURVE",
"970.01 144 CURVE",
"944.54 164.64 OFFCURVE",
"918.8 190.05 OFFCURVE",
"892.77 220.25 CURVE SMOOTH",
"811.76 314.99 OFFCURVE",
"747.51 429.57 OFFCURVE",
"700.01 564 CURVE"
);
}
);
vertWidth = 1000;
width = 1000;
}
);
note = uni4F53;
unicode = 4F53;
},
{
glyphname = uni5973;
layers = (
{
hints = (
{
horizontal = 1;
place = "{520, 78}";
type = Stem;
},
{
place = "{50, 891}";
type = Stem;
}
);
layerId = "BCE9B1DB-4CCD-4D9A-B53B-B8E8A67648C8";
paths = (
{
closed = 1;
nodes = (
"669 520 LINE",
"636.46 387.36 OFFCURVE",
"586.12 283.36 OFFCURVE",
"518 208 CURVE",
"442.48 242.68 OFFCURVE",
"367.14 274.68 OFFCURVE",
"292 304 CURVE",
"330.71 384.04 OFFCURVE",
"363.05 456.04 OFFCURVE",
"389 520 CURVE"
);
},
{
closed = 1;
nodes = (
"941 520 LINE",
"941 598 LINE",
"421 598 LINE",
"453.79 685.5 OFFCURVE",
"480.12 764.17 OFFCURVE",
"500 834 CURVE",
"421 846 LINE",
"399.1 766.91 OFFCURVE",
"370.43 684.25 OFFCURVE",
"335 598 CURVE",
"63 598 LINE",
"63 520 LINE",
"303 520 LINE",
"259.08 419.4 OFFCURVE",
"217.75 336.07 OFFCURVE",
"179 270 CURVE",
"279.04 231.66 OFFCURVE",
"371.38 192.32 OFFCURVE",
"456 152 CURVE",
"363.36 81.81 OFFCURVE",
"228.02 33.14 OFFCURVE",
"50 6 CURVE",
"66.47 -12.89 OFFCURVE",
"79.8 -37.23 OFFCURVE",
"90 -67 CURVE",
"285.6 -34.42 OFFCURVE",
"434.26 25.58 OFFCURVE",
"536 113 CURVE",
"663.88 49 OFFCURVE",
"771.55 -14 OFFCURVE",
"859 -76 CURVE",
"919 -10 LINE",
"839.06 44.81 OFFCURVE",
"731.06 105.48 OFFCURVE",
"595 172 CURVE",
"666.21 255.86 OFFCURVE",
"718.21 371.86 OFFCURVE",
"751 520 CURVE"
);
}
);
vertWidth = 1000;
width = 1000;
}
);
note = uni5973;
unicode = 5973;
},
{
glyphname = uni7EDF;
layers = (
{
hints = (
{
horizontal = 1;
place = "{-56, 64}";
type = Stem;
},
{
horizontal = 1;
place = "{625, 67}";
type = Stem;
},
{
place = "{511, 73}";
type = Stem;
},
{
place = "{697, 73}";
type = Stem;
},
{
place = "{891, 64}";
type = Stem;
}
);
layerId = "BCE9B1DB-4CCD-4D9A-B53B-B8E8A67648C8";
paths = (
{
closed = 1;
nodes = (
"945 362 LINE",
"917.67 414.51 OFFCURVE",
"868.67 487.51 OFFCURVE",
"798 581 CURVE",
"740 552 LINE",
"761.11 524.12 OFFCURVE",
"783.11 492.79 OFFCURVE",
"806 458 CURVE",
"532 435 LINE",
"572.79 485.13 OFFCURVE",
"620.46 548.47 OFFCURVE",
"675 625 CURVE",
"944 625 LINE",
"944 692 LINE",
"659 692 LINE",
"723 713 LINE",
"708.15 751.12 OFFCURVE",
"688.15 793.12 OFFCURVE",
"663 839 CURVE",
"595 820 LINE",
"623.36 760.27 OFFCURVE",
"641.36 717.6 OFFCURVE",
"649 692 CURVE",
"408 692 LINE",
"408 625 LINE",
"588 625 LINE",
"518.2 528.9 OFFCURVE",
"472.53 470.9 OFFCURVE",
"451 451 CURVE SMOOTH",
"439.44 439.23 OFFCURVE",
"418.44 428.89 OFFCURVE",
"388 420 CURVE",
"401.38 390.99 OFFCURVE",
"409.71 366.99 OFFCURVE",
"413 348 CURVE",
"416.86 349.67 OFFCURVE",
"421.29 351.27 OFFCURVE",
"426.3 352.8 CURVE SMOOTH",
"450.31 359.7 OFFCURVE",
"588.88 375.1 OFFCURVE",
"842 399 CURVE",
"857.88 372.79 OFFCURVE",
"871.21 348.45 OFFCURVE",
"882 326 CURVE"
);
},
{
closed = 1;
nodes = (
"182 289 LINE",
"259.96 379.57 OFFCURVE",
"330.63 479.9 OFFCURVE",
"394 590 CURVE",
"328 629 LINE",
"304.77 585.03 OFFCURVE",
"283.77 548.69 OFFCURVE",
"265 520 CURVE",
"144 507 LINE",
"207.87 597.2 OFFCURVE",
"263.87 696.54 OFFCURVE",
"312 805 CURVE",
"236 840 LINE",
"225.34 810.35 OFFCURVE",
"212.17 778.41 OFFCURVE",
"196.48 744.16 CURVE SMOOTH",
"158.43 661.43 OFFCURVE",
"124.6 599.71 OFFCURVE",
"95 559 CURVE SMOOTH",
"72.23 523.47 OFFCURVE",
"52.9 503.47 OFFCURVE",
"37 499 CURVE",
"49.26 468.83 OFFCURVE",
"57.92 443.16 OFFCURVE",
"63 422 CURVE",
"75.94 428.82 OFFCURVE",
"128.28 438.82 OFFCURVE",
"220 452 CURVE",
"178.37 390.66 OFFCURVE",
"145.37 346.99 OFFCURVE",
"121 321 CURVE SMOOTH",
"88.3 282.1 OFFCURVE",
"63.3 260.1 OFFCURVE",
"46 255 CURVE",
"56.07 229.6 OFFCURVE",
"64.07 205.94 OFFCURVE",
"70 184 CURVE",
"71.46 184.88 OFFCURVE",
"73.25 185.91 OFFCURVE",
"75.35 187.08 CURVE SMOOTH",
"95.25 197.62 OFFCURVE",
"193.8 222.26 OFFCURVE",
"371 261 CURVE",
"367.38 280.06 OFFCURVE",
"366.71 301.72 OFFCURVE",
"369 326 CURVE"
);
},
{
closed = 1;
nodes = (
"368 149 LINE",
"217.95 103.99 OFFCURVE",
"110.62 72.99 OFFCURVE",
"46 56 CURVE",
"63 -18 LINE",
"93.39 -8.1 OFFCURVE",
"144.8 8.45 OFFCURVE",
"217.22 31.65 CURVE SMOOTH",
"289.64 54.84 OFFCURVE",
"343.9 72.3 OFFCURVE",
"380 84 CURVE"
);
},
{
closed = 1;
nodes = (
"511 351 LINE",
"507.14 243.51 OFFCURVE",
"494.86 166.16 OFFCURVE",
"474.16 118.96 CURVE SMOOTH",
"447.44 59.03 OFFCURVE",
"395.72 14.71 OFFCURVE",
"319 -14 CURVE",
"335.81 -26.36 OFFCURVE",
"351.14 -46.02 OFFCURVE",
"365 -73 CURVE",
"446.26 -39.75 OFFCURVE",
"503.2 9.79 OFFCURVE",
"535.83 75.61 CURVE SMOOTH",
"563.42 132.7 OFFCURVE",
"579.48 224.5 OFFCURVE",
"584 351 CURVE"
);
},
{
closed = 1;
nodes = (
"795 8 LINE SMOOTH",
"788.76 8.05 OFFCURVE",
"783.73 8.57 OFFCURVE",
"779.9 9.57 CURVE SMOOTH",
"773.3 11.77 OFFCURVE",
"770 21.25 OFFCURVE",
"770 38 CURVE SMOOTH",
"770 352 LINE",
"697 352 LINE",
"697 38 LINE SMOOTH",
"697.08 10.27 OFFCURVE",
"700.25 -10.5 OFFCURVE",
"706.5 -24.3 CURVE SMOOTH",
"716.73 -45.44 OFFCURVE",
"742.56 -56 OFFCURVE",
"784 -56 CURVE SMOOTH",
"871 -56 LINE SMOOTH",
"893.11 -55.81 OFFCURVE",
"910.09 -49.93 OFFCURVE",
"921.94 -38.37 CURVE SMOOTH",
"940.29 -19.04 OFFCURVE",
"951.31 32.41 OFFCURVE",
"955 116 CURVE",
"926.38 123.32 OFFCURVE",
"905.04 133.32 OFFCURVE",
"891 146 CURVE",
"889.46 85.49 OFFCURVE",
"886.86 46.79 OFFCURVE",
"883.22 29.9 CURVE SMOOTH",
"879.88 15.3 OFFCURVE",
"873.14 8 OFFCURVE",
"863 8 CURVE SMOOTH"
);
}
);
vertWidth = 1000;
width = 1000;
}
);
note = uni7EDF;
unicode = 7EDF;
},
{
glyphname = u16FE1;
layers = (
{
hints = (
{
horizontal = 1;
place = "{224, 120}";
type = Stem;
},
{
horizontal = 1;
place = "{654, 120}";
type = Stem;
},
{
place = "{117, 113}";
type = Stem;
},
{
place = "{315, 113}";
type = Stem;
},
{
place = "{516, 85}";
type = Stem;
},
{
place = "{591, 84}";
type = Stem;
}
);
layerId = "BCE9B1DB-4CCD-4D9A-B53B-B8E8A67648C8";
paths = (
{
closed = 1;
nodes = (
"592.98 730.12 OFFCURVE",
"602.98 858.45 OFFCURVE",
"601 1000 CURVE",
"516 998 LINE",
"519.18 721.23 OFFCURVE",
"478.84 506.23 OFFCURVE",
"395 353 CURVE",
"230 692 LINE",
"152 655 LINE",
"359 233 LINE",
"420 230 LINE",
"472.1 301.66 OFFCURVE",
"513.44 391.33 OFFCURVE",
"544 499 CURVE",
"574.94 446.43 OFFCURVE",
"590.61 391.76 OFFCURVE",
"591 335 CURVE SMOOTH",
"590.95 315.43 OFFCURVE",
"589.37 295.41 OFFCURVE",
"586.27 274.94 CURVE SMOOTH",
"571.22 178.88 OFFCURVE",
"512.8 64.9 OFFCURVE",
"411 -67 CURVE",
"478 -120 LINE",
"608.76 42.22 OFFCURVE",
"674.43 193.56 OFFCURVE",
"675 334 CURVE SMOOTH",
"674.98 339.84 OFFCURVE",
"674.83 346.05 OFFCURVE",
"674.55 352.63 CURVE SMOOTH",
"669.85 449.62 OFFCURVE",
"635.34 537.08 OFFCURVE",
"571 615 CURVE"
);
},
{
closed = 1;
nodes = (
"379.26 654.14 OFFCURVE",
"387.27 655.76 OFFCURVE",
"395.03 658.87 CURVE SMOOTH",
"417.01 668.6 OFFCURVE",
"428 686.64 OFFCURVE",
"428 713 CURVE SMOOTH",
"427.9 720.59 OFFCURVE",
"426.78 728.08 OFFCURVE",
"424.63 735.47 CURVE SMOOTH",
"416.38 761.16 OFFCURVE",
"398.5 774 OFFCURVE",
"371 774 CURVE SMOOTH",
"363.35 773.85 OFFCURVE",
"355.75 772.17 OFFCURVE",
"348.19 768.94 CURVE SMOOTH",
"326.06 758.55 OFFCURVE",
"315 739.9 OFFCURVE",
"315 713 CURVE SMOOTH",
"315.15 704.3 OFFCURVE",
"317.08 695.67 OFFCURVE",
"320.77 687.11 CURVE SMOOTH",
"331.15 665.04 OFFCURVE",
"347.89 654 OFFCURVE",
"371 654 CURVE SMOOTH"
);
},
{
closed = 1;
nodes = (
"165.52 343.86 OFFCURVE",
"158.1 342.33 OFFCURVE",
"150.75 339.41 CURVE SMOOTH",
"128.25 329.51 OFFCURVE",
"117 311.05 OFFCURVE",
"117 284 CURVE SMOOTH",
"117.14 275.15 OFFCURVE",
"118.94 266.44 OFFCURVE",
"122.42 257.87 CURVE SMOOTH",
"132.38 235.29 OFFCURVE",
"149.24 224 OFFCURVE",
"173 224 CURVE SMOOTH",
"180.91 224.14 OFFCURVE",
"188.66 225.71 OFFCURVE",
"196.25 228.73 CURVE SMOOTH",
"218.75 238.61 OFFCURVE",
"230 257.03 OFFCURVE",
"230 284 CURVE SMOOTH",
"229.89 292.03 OFFCURVE",
"228.51 299.94 OFFCURVE",
"225.88 307.72 CURVE SMOOTH",
"216.88 331.91 OFFCURVE",
"199.25 344 OFFCURVE",
"173.01 344 CURVE SMOOTH"
);
}
);
vertWidth = 1000;
width = 808;
}
);
note = u16FE1;
unicode = 16FE1;
},
{
glyphname = u1B170;
layers = (
{
hints = (
{
place = "{529, 90}";
type = Stem;
}
);
layerId = "BCE9B1DB-4CCD-4D9A-B53B-B8E8A67648C8";
paths = (
{
closed = 1;
nodes = (
"176 -120 LINE",
"265.82 -31.81 OFFCURVE",
"341.51 63.62 OFFCURVE",
"403.08 166.27 CURVE SMOOTH",
"536.22 389.2 OFFCURVE",
"608.19 666.78 OFFCURVE",
"619 999 CURVE",
"529 1000 LINE",
"523.27 832.41 OFFCURVE",
"502.8 682.99 OFFCURVE",
"467.58 551.75 CURVE SMOOTH",
"405.34 320.95 OFFCURVE",
"286.48 119.03 OFFCURVE",
"111 -54 CURVE"
);
}
);
vertWidth = 1000;
width = 808;
}
);
note = u1B170;
unicode = 1B170;
},
{
glyphname = u1B171;
layers = (
{
hints = (
{
place = "{600, 88}";
type = Stem;
}
);
layerId = "BCE9B1DB-4CCD-4D9A-B53B-B8E8A67648C8";
paths = (
{
closed = 1;
nodes = (
"218 230 LINE",
"228.58 237.36 OFFCURVE",
"239.31 245.07 OFFCURVE",
"250.2 253.13 CURVE SMOOTH",
"488.17 429.76 OFFCURVE",
"634.1 675.05 OFFCURVE",
"688 989 CURVE",
"600 1000 LINE",
"544.91 702.05 OFFCURVE",
"400.57 471.05 OFFCURVE",
"167 307 CURVE"
);
},
{
closed = 1;
nodes = (
"166 -120 LINE",
"183.71 -109.33 OFFCURVE",
"201.87 -97.86 OFFCURVE",
"220.46 -85.58 CURVE SMOOTH",
"369.84 13.38 OFFCURVE",
"505.69 135.58 OFFCURVE",
"628 281 CURVE",
"561 341 LINE",
"433.29 189.42 OFFCURVE",
"285.95 60.75 OFFCURVE",
"119 -45 CURVE"
);
}
);
vertWidth = 1000;
width = 808;
}
);
note = u1B171;
unicode = 1B171;
},
{
glyphname = u1B172;
layers = (
{
hints = (
{
place = "{413, 86}";
type = Stem;
},
{
place = "{603, 85}";
type = Stem;
}
);
layerId = "BCE9B1DB-4CCD-4D9A-B53B-B8E8A67648C8";
paths = (
{
closed = 1;
nodes = (
"603 1000 LINE",
"590.27 819.44 OFFCURVE",
"538.27 667.11 OFFCURVE",
"447 543 CURVE",
"421 623 OFFCURVE",
"384 708 OFFCURVE",
"336 798 CURVE",
"258 757 LINE",
"313.93 648.07 OFFCURVE",
"354.6 550.4 OFFCURVE",
"380 464 CURVE",
"315.56 396.07 OFFCURVE",
"228.89 329.74 OFFCURVE",
"120 265 CURVE",
"163 187 LINE",
"254.7 237.39 OFFCURVE",
"335.03 294.39 OFFCURVE",
"404 358 CURVE",
"409.89 322.34 OFFCURVE",
"412.89 287.01 OFFCURVE",
"413 252 CURVE SMOOTH",
"412.75 141.01 OFFCURVE",
"372.08 35.34 OFFCURVE",
"291 -65 CURVE",
"362 -120 LINE",
"452.82 -7.06 OFFCURVE",
"498.48 116.61 OFFCURVE",
"499 251 CURVE SMOOTH",
"498.92 310.79 OFFCURVE",
"491.59 372.13 OFFCURVE",
"477 435 CURVE",
"601.45 582.53 OFFCURVE",
"671.79 768.86 OFFCURVE",
"688 994 CURVE"
);
}
);
vertWidth = 1000;
width = 808;
}
);
note = u1B172;
unicode = 1B172;
},
{
glyphname = u1B173;
layers = (
{
hints = (
{
place = "{443, 88}";
type = Stem;
}
);
layerId = "BCE9B1DB-4CCD-4D9A-B53B-B8E8A67648C8";
paths = (
{
closed = 1;
nodes = (
"701 -32 LINE",
"624.7 154.27 OFFCURVE",
"540.7 310.94 OFFCURVE",
"449 438 CURVE",
"494.51 598.1 OFFCURVE",
"521.85 784.76 OFFCURVE",
"531 998 CURVE",
"443 1000 LINE",
"435.4 816.59 OFFCURVE",
"413.66 654.11 OFFCURVE",
"377.79 512.57 CURVE SMOOTH",
"325.97 309.02 OFFCURVE",
"233.04 115.16 OFFCURVE",
"99 -69 CURVE",
"166 -120 LINE",
"276.42 29.08 OFFCURVE",
"359.42 180.41 OFFCURVE",
"415 334 CURVE",
"492.12 217.62 OFFCURVE",
"561.12 84.29 OFFCURVE",
"622 -66 CURVE"
);
}
);
vertWidth = 1000;
width = 808;
}
);
note = u1B173;
unicode = 1B173;
},
{
glyphname = u1B174;
layers = (
{
hints = (
{
place = "{242, 85}";
type = Stem;
},
{
place = "{477, 83}";
type = Stem;
}
);
layerId = "BCE9B1DB-4CCD-4D9A-B53B-B8E8A67648C8";
paths = (
{
closed = 1;
nodes = (
"477.18 414.47 OFFCURVE",
"521.52 252.8 OFFCURVE",
"610 87 CURVE",
"686 133 LINE",
"602.39 288.71 OFFCURVE",
"560.39 435.05 OFFCURVE",
"560 572 CURVE SMOOTH",
"560.16 690.07 OFFCURVE",
"590.83 822.4 OFFCURVE",
"652 969 CURVE",
"572 1000 LINE",
"508.97 858.33 OFFCURVE",
"477.31 715.66 OFFCURVE",
"477 572 CURVE SMOOTH"
);
},
{
closed = 1;
nodes = (
"202 -120 LINE",
"284.96 30.24 OFFCURVE",
"326.62 185.57 OFFCURVE",
"327 346 CURVE SMOOTH",
"326.85 495.19 OFFCURVE",
"290.51 645.52 OFFCURVE",
"218 797 CURVE",
"139 758 LINE",
"207.32 621.03 OFFCURVE",
"241.65 483.69 OFFCURVE",
"242 346 CURVE SMOOTH",
"241.83 199.01 OFFCURVE",
"202.83 58.01 OFFCURVE",
"125 -77 CURVE"
);
}
);
vertWidth = 1000;
width = 808;
}
);
note = u1B174;
unicode = 1B174;
},
{
glyphname = u1B175;
layers = (
{
hints = (
{
place = "{579, 86}";
type = Stem;
}
);
layerId = "BCE9B1DB-4CCD-4D9A-B53B-B8E8A67648C8";
paths = (
{
closed = 1;
nodes = (
"688 -5 LINE",
"631.34 113.37 OFFCURVE",
"569 225.37 OFFCURVE",
"501 331 CURVE",
"505.05 339.51 OFFCURVE",
"509.17 348.41 OFFCURVE",
"513.36 357.69 CURVE SMOOTH",
"588.1 523.6 OFFCURVE",
"638.65 735.37 OFFCURVE",
"665 993 CURVE",
"579 1000 LINE",
"554.76 765.34 OFFCURVE",
"509.42 570.67 OFFCURVE",
"443 416 CURVE",
"372.39 515.75 OFFCURVE",
"297.73 606.08 OFFCURVE",
"219 687 CURVE",
"158 627 LINE",
"242.84 537.12 OFFCURVE",
"323.17 436.45 OFFCURVE",
"399 325 CURVE",
"331.83 198.69 OFFCURVE",
"237.5 70.69 OFFCURVE",
"116 -59 CURVE",
"180 -120 LINE",
"294.43 0.48 OFFCURVE",
"385.76 120.81 OFFCURVE",
"454 241 CURVE",
"509.05 153.6 OFFCURVE",
"561.38 58.26 OFFCURVE",
"611 -45 CURVE"
);
}
);
vertWidth = 1000;
width = 808;
}
);
note = u1B175;
unicode = 1B175;
},
{
glyphname = u1B176;
layers = (
{
hints = (
{
horizontal = 1;
place = "{365, 132}";
type = Stem;
},
{
place = "{195, 123}";
type = Stem;
},
{
place = "{519, 94}";
type = Stem;
}
);
layerId = "BCE9B1DB-4CCD-4D9A-B53B-B8E8A67648C8";
paths = (
{
closed = 1;
nodes = (
"310 -120 LINE",
"376.04 -74.8 OFFCURVE",
"432.7 -20.1 OFFCURVE",
"480 44.09 CURVE SMOOTH",
"568.67 165.46 OFFCURVE",
"613 301.76 OFFCURVE",
"613 453 CURVE SMOOTH",
"612.91 519.38 OFFCURVE",
"603.85 584.2 OFFCURVE",
"585.82 647.46 CURVE SMOOTH",
"543.05 795.97 OFFCURVE",
"459.11 913.49 OFFCURVE",
"334 1000 CURVE",
"281 931 LINE",
"320.65 901.12 OFFCURVE",
"356.16 866.91 OFFCURVE",
"387.54 828.38 CURVE SMOOTH",
"475.18 719.69 OFFCURVE",
"519 593.23 OFFCURVE",
"519 449.01 CURVE SMOOTH",
"518.93 405.91 OFFCURVE",
"514.17 363.17 OFFCURVE",
"504.72 320.79 CURVE SMOOTH",
"471.67 174.87 OFFCURVE",
"389.1 52.94 OFFCURVE",
"257 -44.99 CURVE"
);
},
{
closed = 1;
nodes = (
"264.68 365.13 OFFCURVE",
"272.24 366.46 OFFCURVE",
"279.68 369.02 CURVE SMOOTH",
"305.23 378.72 OFFCURVE",
"318 399.39 OFFCURVE",
"318 431.01 CURVE SMOOTH",
"317.89 439.94 OFFCURVE",
"316.49 448.62 OFFCURVE",
"313.79 457.04 CURVE SMOOTH",
"304.47 483.68 OFFCURVE",
"285.54 497.01 OFFCURVE",
"257 497.01 CURVE SMOOTH",
"248.77 496.89 OFFCURVE",
"240.71 495.37 OFFCURVE",
"232.81 492.46 CURVE SMOOTH",
"207.6 482.27 OFFCURVE",
"195 461.79 OFFCURVE",
"195 431.01 CURVE SMOOTH",
"195.12 421.52 OFFCURVE",
"196.75 412.36 OFFCURVE",
"199.9 403.52 CURVE SMOOTH",
"209.85 377.85 OFFCURVE",
"228.88 365.01 OFFCURVE",
"257 365.01 CURVE SMOOTH"
);
}
);
vertWidth = 1000;
width = 808;
}
);
note = u1B176;
unicode = 1B176;
},
{
glyphname = u1B177;
layers = (
{
hints = (
{
horizontal = 1;
place = "{367, 133}";
type = Stem;
},
{
place = "{195, 92}";
type = Stem;
},
{
place = "{490, 123}";
type = Stem;
}
);
layerId = "BCE9B1DB-4CCD-4D9A-B53B-B8E8A67648C8";
paths = (
{
closed = 1;
nodes = (
"543 -41 LINE",
"497.89 -8.03 OFFCURVE",
"457.79 29.48 OFFCURVE",
"422.71 71.52 CURVE SMOOTH",
"332.24 180.88 OFFCURVE",
"287 304.04 OFFCURVE",
"287 441 CURVE SMOOTH",
"287.11 499.19 OFFCURVE",
"296.72 557.09 OFFCURVE",
"315.83 614.71 CURVE SMOOTH",
"357.45 738.75 OFFCURVE",
"434.51 842.18 OFFCURVE",
"547 925 CURVE",
"493 1000 LINE",
"430.31 955.47 OFFCURVE",
"375.92 902.42 OFFCURVE",
"329.82 840.87 CURVE SMOOTH",
"239.94 719.89 OFFCURVE",
"195 587.27 OFFCURVE",
"195 443 CURVE SMOOTH",
"195.1 373.61 OFFCURVE",
"205.54 305.32 OFFCURVE",
"226.3 238.13 CURVE SMOOTH",
"272.23 90.99 OFFCURVE",
"358.8 -28.39 OFFCURVE",
"486 -120 CURVE"
);
},
{
closed = 1;
nodes = (
"561.11 367.14 OFFCURVE",
"569.86 369 OFFCURVE",
"578.24 372.56 CURVE SMOOTH",
"601.41 383.36 OFFCURVE",
"613 403.51 OFFCURVE",
"613 433 CURVE SMOOTH",
"612.9 441.66 OFFCURVE",
"611.63 450.13 OFFCURVE",
"609.17 458.41 CURVE SMOOTH",
"600.2 486.14 OFFCURVE",
"581.15 500 OFFCURVE",
"552 500 CURVE SMOOTH",
"542.62 499.84 OFFCURVE",
"533.49 497.66 OFFCURVE",
"524.59 493.46 CURVE SMOOTH",
"501.53 481.63 OFFCURVE",
"490 461.48 OFFCURVE",
"490 433 CURVE SMOOTH",
"490.16 422.62 OFFCURVE",
"492.46 412.48 OFFCURVE",
"496.91 402.59 CURVE SMOOTH",
"508.41 378.86 OFFCURVE",
"526.78 367 OFFCURVE",
"552 367 CURVE SMOOTH"
);
}
);
vertWidth = 1000;
width = 808;
}
);
note = u1B177;
unicode = 1B177;
},
{
glyphname = u1B178;
layers = (
{
hints = (
{
place = "{198, 86}";
type = Stem;
},
{
place = "{404, 88}";
type = Stem;
},
{
place = "{541, 85}";
type = Stem;
}
);
layerId = "BCE9B1DB-4CCD-4D9A-B53B-B8E8A67648C8";
paths = (
{
closed = 1;
nodes = (
"259 -120 LINE",
"276.28 -100.59 OFFCURVE",
"292.82 -80.11 OFFCURVE",
"308.62 -58.55 CURVE SMOOTH",
"430.87 109.35 OFFCURVE",
"492 342.2 OFFCURVE",
"492 640.01 CURVE SMOOTH",
"491.96 743.79 OFFCURVE",
"484.96 863.79 OFFCURVE",
"471 1000.01 CURVE",
"384 989.01 LINE",
"397.26 853.11 OFFCURVE",
"403.93 736.77 OFFCURVE",
"404 640.01 CURVE SMOOTH",
"403.98 597.68 OFFCURVE",
"402.78 556.75 OFFCURVE",
"400.39 517.23 CURVE SMOOTH",
"385 266.92 OFFCURVE",
"315.54 73.18 OFFCURVE",
"192 -63.99 CURVE"
);
},
{
closed = 1;
nodes = (
"146 50.01 LINE",
"237.46 148.35 OFFCURVE",
"283.46 270.35 OFFCURVE",
"284 416.01 CURVE SMOOTH",
"283.9 485.85 OFFCURVE",
"273.24 559.52 OFFCURVE",
"252 637.01 CURVE",
"170 611.01 LINE",
"188.49 537.86 OFFCURVE",
"197.83 472.53 OFFCURVE",
"198 415.01 CURVE SMOOTH",
"197.77 293.1 OFFCURVE",
"159.77 190.1 OFFCURVE",
"84 106.01 CURVE"
);
},
{
closed = 1;
nodes = (
"671 -43.99 LINE",
"641 32.01 OFFCURVE",
"626 106.01 OFFCURVE",
"626 178.01 CURVE SMOOTH",
"626.19 280.68 OFFCURVE",
"656.19 385.68 OFFCURVE",
"716 493.01 CURVE",
"640 534.01 LINE",
"574.37 418.33 OFFCURVE",
"541.37 299.99 OFFCURVE",
"541 179.01 CURVE SMOOTH",
"541.13 92.54 OFFCURVE",
"558.13 6.87 OFFCURVE",
"592 -77.99 CURVE"
);
}
);
vertWidth = 1000;
width = 808;
}
);
note = u1B178;
unicode = 1B178;
},
{
glyphname = u1B179;
layers = (
{
hints = (
{
place = "{359, 89}";
type = Stem;
},
{
place = "{479, 87}";
type = Stem;
},
{
place = "{613, 86}";
type = Stem;
}
);
layerId = "BCE9B1DB-4CCD-4D9A-B53B-B8E8A67648C8";
paths = (
{
closed = 1;
nodes = (
"613 1000 LINE",
"562.88 764.77 OFFCURVE",
"411.21 594.44 OFFCURVE",
"158 489 CURVE",
"189 408 LINE",
"302.91 450.74 OFFCURVE",
"399.24 507.74 OFFCURVE",
"478 579 CURVE",
"478.62 570.54 OFFCURVE",
"478.95 556.88 OFFCURVE",
"479 538 CURVE SMOOTH",
"478.73 477.37 OFFCURVE",
"456.76 423.15 OFFCURVE",
"413.08 375.33 CURVE SMOOTH",
"360.11 318.29 OFFCURVE",
"258.75 259.18 OFFCURVE",
"109 198 CURVE",
"139 116 LINE",
"230.7 149.32 OFFCURVE",
"307.7 185.66 OFFCURVE",
"370 225 CURVE",
"383.04 106.58 OFFCURVE",
"379.37 -5.09 OFFCURVE",
"359 -110 CURVE",
"448 -120 LINE",
"448.81 -115.32 OFFCURVE",
"449.66 -110.25 OFFCURVE",
"450.53 -104.77 CURVE SMOOTH",
"470.07 19.56 OFFCURVE",
"470.9 150.15 OFFCURVE",
"453 287 CURVE",
"527.76 357.07 OFFCURVE",
"565.42 442.4 OFFCURVE",
"566 543 CURVE SMOOTH",
"565.91 578.39 OFFCURVE",
"560.91 616.73 OFFCURVE",
"551 658 CURVE",
"624.67 749.65 OFFCURVE",
"674 858.65 OFFCURVE",
"699 985 CURVE"
);
}
);
vertWidth = 1000;
width = 808;
}
);
note = u1B179;
unicode = 1B179;
},
{
glyphname = u1B17A;
layers = (
{
hints = (
{
place = "{395, 87}";
type = Stem;
}
);
layerId = "BCE9B1DB-4CCD-4D9A-B53B-B8E8A67648C8";
paths = (
{
closed = 1;
nodes = (
"568.94 718.52 OFFCURVE",
"614.6 845.19 OFFCURVE",
"639 988 CURVE",
"553 1000 LINE",
"531.98 880.59 OFFCURVE",
"493.65 772.92 OFFCURVE",
"438 677 CURVE",
"370.64 745.27 OFFCURVE",
"299.31 807.6 OFFCURVE",
"224 864 CURVE",
"173 798 LINE",
"246.93 739.96 OFFCURVE",
"318.6 674.3 OFFCURVE",
"388 601 CURVE",
"320.4 507.84 OFFCURVE",
"231.74 423.17 OFFCURVE",
"122 347 CURVE",
"168 276 LINE",
"282.29 348.73 OFFCURVE",
"376.62 434.06 OFFCURVE",
"451 532 CURVE",
"515.75 456.55 OFFCURVE",
"570.75 381.88 OFFCURVE",
"616 308 CURVE",
"690 355 LINE",
"633.56 445.57 OFFCURVE",
"570.9 529.91 OFFCURVE",
"502 608 CURVE"
);
},
{
closed = 1;
nodes = (
"395 372 LINE",
"410.65 199.97 OFFCURVE",
"403.98 40.97 OFFCURVE",
"375 -105 CURVE",
"462 -120 LINE",
"491.94 29.68 OFFCURVE",
"498.6 196.34 OFFCURVE",
"482 380 CURVE"
);
}
);
vertWidth = 1000;
width = 808;
}
);
note = u1B17A;
unicode = 1B17A;
},
{
glyphname = u1B17B;
layers = (
{
hints = (
{
place = "{544, 83}";
type = Stem;
}
);
layerId = "BCE9B1DB-4CCD-4D9A-B53B-B8E8A67648C8";
paths = (
{
closed = 1;
nodes = (
"447 524 LINE",
"542.01 654.58 OFFCURVE",
"602.01 810.58 OFFCURVE",
"627 992 CURVE",
"544 1000 LINE",
"523.7 852.19 OFFCURVE",
"476.7 723.19 OFFCURVE",
"403 613 CURVE",
"302 820 LINE",
"225 783 LINE",
"345 537 LINE",
"290.17 470.48 OFFCURVE",
"215.17 401.15 OFFCURVE",
"120 329 CURVE",
"168 258 LINE",
"256.48 320.87 OFFCURVE",
"329.48 385.2 OFFCURVE",
"387 451 CURVE",
"439 344 LINE",
"366.29 201.68 OFFCURVE",
"275.96 65.01 OFFCURVE",
"168 -66 CURVE",
"234 -120 LINE",
"330.87 -3.64 OFFCURVE",
"415.21 118.69 OFFCURVE",
"487 247 CURVE",
"611 -7 LINE",
"688 30 LINE"
);
}
);
vertWidth = 1000;
width = 808;
}
);
note = u1B17B;
unicode = 1B17B;
},
{
glyphname = u1B17C;
layers = (
{
hints = (
{
place = "{476, 85}";
type = Stem;
},
{
place = "{501, 85}";
type = Stem;
}
);
layerId = "BCE9B1DB-4CCD-4D9A-B53B-B8E8A67648C8";
paths = (
{
closed = 1;
nodes = (
"689 -14 LINE",
"642.9 62.31 OFFCURVE",
"584.57 137.97 OFFCURVE",
"514 213 CURVE",
"545.05 280.48 OFFCURVE",
"560.72 354.48 OFFCURVE",
"561 435 CURVE SMOOTH",
"560.89 523.69 OFFCURVE",
"543.55 617.36 OFFCURVE",
"509 716 CURVE",
"542.63 798.84 OFFCURVE",
"568.3 889.84 OFFCURVE",
"586 989 CURVE",
"501 1000 LINE",
"456.98 760.53 OFFCURVE",
"352.32 553.53 OFFCURVE",
"187 379 CURVE",
"187 375 LINE",
"264.68 320.44 OFFCURVE",
"336.35 261.44 OFFCURVE",
"402 198 CURVE",
"349.21 121.95 OFFCURVE",
"255.21 40.95 OFFCURVE",
"120 -45 CURVE",
"164 -120 LINE",
"302.73 -39.84 OFFCURVE",
"403.4 44.16 OFFCURVE",
"466 132 CURVE",
"523.84 70.11 OFFCURVE",
"573.51 5.11 OFFCURVE",
"615 -63 CURVE"
);
},
{
closed = 1;
nodes = (
"369.02 457.34 OFFCURVE",
"416.69 527.68 OFFCURVE",
"455 600 CURVE",
"468.81 550.44 OFFCURVE",
"475.81 495.78 OFFCURVE",
"476 436 CURVE SMOOTH",
"475.87 379.76 OFFCURVE",
"465.87 327.42 OFFCURVE",
"446 279 CURVE",
"406.51 315.66 OFFCURVE",
"361.84 352.32 OFFCURVE",
"312 389 CURVE"
);
}
);
vertWidth = 1000;
width = 808;
}
);
note = u1B17C;
unicode = 1B17C;
},
{
glyphname = u1B17D;
layers = (
{
hints = (
{
horizontal = 1;
place = "{108, 130}";
type = Stem;
},
{
place = "{577, 120}";
type = Stem;
}
);
layerId = "BCE9B1DB-4CCD-4D9A-B53B-B8E8A67648C8";
paths = (
{
closed = 1;
nodes = (
"535 1000 LINE",
"511.45 900.34 OFFCURVE",
"481.55 810.79 OFFCURVE",
"445.32 731.35 CURVE SMOOTH",
"373.62 574.87 OFFCURVE",
"263.85 437.76 OFFCURVE",
"116 320 CURVE",
"165 249 LINE",
"249.45 310.58 OFFCURVE",
"323.78 382.58 OFFCURVE",
"388 465 CURVE",
"394 277.37 OFFCURVE",
"366.33 90.7 OFFCURVE",
"305 -95 CURVE",
"391 -120 LINE",
"462.46 103.74 OFFCURVE",
"487.79 337.41 OFFCURVE",
"467 581 CURVE",
"532.56 693.36 OFFCURVE",
"583.56 827.69 OFFCURVE",
"620 984 CURVE"
);
},
{
closed = 1;
nodes = (
"628.75 237.86 OFFCURVE",
"620.63 236.1 OFFCURVE",
"612.63 232.73 CURVE SMOOTH",
"588.88 221.78 OFFCURVE",
"577 201.53 OFFCURVE",
"577 172 CURVE SMOOTH",
"577.14 162.42 OFFCURVE",
"579.06 153.08 OFFCURVE",
"582.77 143.97 CURVE SMOOTH",
"593.35 119.99 OFFCURVE",
"611.43 108 OFFCURVE",
"637 108 CURVE SMOOTH",
"645.08 108.12 OFFCURVE",
"652.95 109.57 OFFCURVE",
"660.59 112.36 CURVE SMOOTH",
"684.86 122.11 OFFCURVE",
"697 141.99 OFFCURVE",
"697 172 CURVE SMOOTH",
"696.91 180.2 OFFCURVE",
"695.75 188.25 OFFCURVE",
"693.54 196.15 CURVE SMOOTH",
"684.97 224.05 OFFCURVE",
"666.12 238 OFFCURVE",
"637 238 CURVE SMOOTH"
);
}
);
vertWidth = 1000;
width = 808;
}
);
note = u1B17D;
unicode = 1B17D;
},
{
glyphname = u1B17E;
layers = (
{
hints = (
{
place = "{286, 92}";
type = Stem;
},
{
place = "{490, 89}";
type = Stem;
},
{
place = "{586, 88}";
type = Stem;
}
);
layerId = "BCE9B1DB-4CCD-4D9A-B53B-B8E8A67648C8";
paths = (
{
closed = 1;
nodes = (
"529.69 558.38 OFFCURVE",
"576.69 418.71 OFFCURVE",
"586 252 CURVE",
"674 258 LINE",
"665.81 448.62 OFFCURVE",
"606.14 614.62 OFFCURVE",
"495 756 CURVE",
"531.62 824.51 OFFCURVE",
"559.62 900.17 OFFCURVE",
"579 983 CURVE",
"490 1000 LINE",
"482.07 966.15 OFFCURVE",
"472.35 933.1 OFFCURVE",
"460.82 900.84 CURVE SMOOTH",
"403.8 742.41 OFFCURVE",
"293.86 598.13 OFFCURVE",
"131 468 CURVE",
"131 464 LINE",
"134.85 460.75 OFFCURVE",
"138.98 457.18 OFFCURVE",
"143.38 453.29 CURVE SMOOTH",
"238.46 368.5 OFFCURVE",
"286 270.07 OFFCURVE",
"286 158 CURVE SMOOTH",
"285.79 78.93 OFFCURVE",
"260.46 0.27 OFFCURVE",
"210 -78 CURVE",
"288 -120 LINE",
"347.55 -35.07 OFFCURVE",
"377.55 57.6 OFFCURVE",
"378 158 CURVE SMOOTH",
"377.98 166.78 OFFCURVE",
"377.72 175.88 OFFCURVE",
"377.22 185.3 CURVE SMOOTH",
"370.93 294.81 OFFCURVE",
"332.19 388.04 OFFCURVE",
"261 465 CURVE",
"334.79 529.96 OFFCURVE",
"396.12 598.62 OFFCURVE",
"445 671 CURVE"
);
}
);
vertWidth = 1000;
width = 808;
}
);
note = u1B17E;
unicode = 1B17E;
},
{
glyphname = u1B17F;
layers = (
{
hints = (
{
place = "{100, 122}";
type = Stem;
},
{
place = "{391, 91}";
type = Stem;
},
{
place = "{590, 121}";
type = Stem;
},
{
horizontal = 1;
place = "{250, 131}";
type = Stem;
},
{
horizontal = 1;
place = "{220, 130}";
type = Stem;
}
);
layerId = "BCE9B1DB-4CCD-4D9A-B53B-B8E8A67648C8";
paths = (
{
closed = 1;
nodes = (
"230 -120 LINE",
"351.25 15.19 OFFCURVE",
"429.68 178.9 OFFCURVE",
"465.28 371.12 CURVE SMOOTH",
"492.89 522.01 OFFCURVE",
"498.47 731.64 OFFCURVE",
"482 1000 CURVE",
"391 994 LINE",
"391.37 988.07 OFFCURVE",
"391.75 981.9 OFFCURVE",
"392.14 975.47 CURVE SMOOTH",
"407.01 729.16 OFFCURVE",
"402.66 538.48 OFFCURVE",
"379.09 403.44 CURVE SMOOTH",
"347.85 224.43 OFFCURVE",
"274.82 69.28 OFFCURVE",
"160 -62 CURVE"
);
},
{
closed = 1;
nodes = (
"590.15 305.27 OFFCURVE",
"592.22 295.67 OFFCURVE",
"596.22 286.21 CURVE SMOOTH",
"607.24 262.07 OFFCURVE",
"625.16 250 OFFCURVE",
"650 250 CURVE SMOOTH",
"659.55 250.16 OFFCURVE",
"668.72 252.28 OFFCURVE",
"677.51 256.37 CURVE SMOOTH",
"699.83 267.7 OFFCURVE",
"711 287.24 OFFCURVE",
"711 315 CURVE SMOOTH",
"710.89 324.09 OFFCURVE",
"709.36 332.97 OFFCURVE",
"706.41 341.64 CURVE SMOOTH",
"696.71 367.88 OFFCURVE",
"677.91 381 OFFCURVE",
"650 381 CURVE SMOOTH",
"641.28 380.84 OFFCURVE",
"632.73 378.83 OFFCURVE",
"624.33 374.95 CURVE SMOOTH",
"601.44 363.42 OFFCURVE",
"590 343.43 OFFCURVE",
"590 315 CURVE SMOOTH"
);
},
{
closed = 1;
nodes = (
"170.46 220 OFFCURVE",
"179.18 221.85 OFFCURVE",
"187.17 225.56 CURVE SMOOTH",
"210.39 236.34 OFFCURVE",
"222 256.15 OFFCURVE",
"222 285 CURVE SMOOTH",
"221.89 293.65 OFFCURVE",
"220.49 302.12 OFFCURVE",
"217.8 310.4 CURVE SMOOTH",
"208.43 336.8 OFFCURVE",
"189.5 350 OFFCURVE",
"161 350 CURVE SMOOTH",
"152.11 349.85 OFFCURVE",
"143.37 347.83 OFFCURVE",
"134.79 343.96 CURVE SMOOTH",
"111.6 332.56 OFFCURVE",
"100 312.91 OFFCURVE",
"100 285 CURVE SMOOTH",
"100.16 274.76 OFFCURVE",
"102.52 264.7 OFFCURVE",
"107.09 254.84 CURVE SMOOTH",
"118.66 231.61 OFFCURVE",
"136.63 220 OFFCURVE",
"161 220 CURVE SMOOTH"
);
}
);
vertWidth = 1000;
width = 808;
}
);
note = u1B17F;
unicode = 1B17F;
},
{
glyphname = u1B180;
layers = (
{
hints = (
{
place = "{504, 84}";
type = Stem;
}
);
layerId = "BCE9B1DB-4CCD-4D9A-B53B-B8E8A67648C8";
paths = (
{
closed = 1;
nodes = (
"610 326 LINE",
"576.54 280.3 OFFCURVE",
"533.87 228.64 OFFCURVE",
"482 171 CURVE",
"386 368 LINE",
"414.32 404.44 OFFCURVE",
"439.61 441.77 OFFCURVE",
"461.89 479.99 CURVE SMOOTH",
"545.18 623.76 OFFCURVE",
"587.21 797.1 OFFCURVE",
"588 1000 CURVE",
"504 999 LINE",
"503.78 957.19 OFFCURVE",
"501.9 917.24 OFFCURVE",
"498.36 879.16 CURVE SMOOTH",
"483.31 720.32 OFFCURVE",
"431.86 578.93 OFFCURVE",
"344 455 CURVE",
"213 723 LINE",
"135 685 LINE",
"284 379 LINE",
"238.46 325.65 OFFCURVE",
"183.79 270.99 OFFCURVE",
"120 215 CURVE",
"174 152 LINE",
"229.09 198.47 OFFCURVE",
"279.42 246.47 OFFCURVE",
"325 296 CURVE",
"419 104 LINE",
"364.15 48.24 OFFCURVE",
"306.15 -5.09 OFFCURVE",
"245 -56 CURVE",
"298 -120 LINE",
"438.65 -3 OFFCURVE",
"565.32 128.34 OFFCURVE",
"678 274 CURVE"
);
}
);
vertWidth = 1000;
width = 808;
}
);
note = u1B180;
unicode = 1B180;
},
{
glyphname = u1B181;
layers = (
{
hints = (
{
place = "{472, 89}";
type = Stem;
}
);
layerId = "BCE9B1DB-4CCD-4D9A-B53B-B8E8A67648C8";
paths = (
{
closed = 1;
nodes = (
"695 -80 LINE",
"647.11 16.54 OFFCURVE",
"585.11 110.21 OFFCURVE",
"509 201 CURVE",
"543.32 259.23 OFFCURVE",
"560.65 326.23 OFFCURVE",
"561 402 CURVE SMOOTH",
"560.83 491.85 OFFCURVE",
"540.83 570.19 OFFCURVE",
"501 637 CURVE",
"574.52 733.94 OFFCURVE",
"634.52 845.61 OFFCURVE",
"681 972 CURVE",
"599 1000 LINE",
"562.15 894.74 OFFCURVE",
"511.82 797.74 OFFCURVE",
"448 709 CURVE",
"388.27 774.3 OFFCURVE",
"301.94 829.3 OFFCURVE",
"189 874 CURVE",
"155 794 LINE",
"257.79 750.75 OFFCURVE",
"335.79 697.75 OFFCURVE",
"389 635 CURVE",
"324.28 560.46 OFFCURVE",
"245.61 487.13 OFFCURVE",
"153 415 CURVE",
"153 411 LINE",
"241.57 345.95 OFFCURVE",
"321.57 275.28 OFFCURVE",
"393 199 CURVE",
"334.26 133.62 OFFCURVE",
"241.92 77.29 OFFCURVE",
"116 30 CURVE",
"147 -52 LINE",
"283.73 -2.59 OFFCURVE",
"386.06 57.74 OFFCURVE",
"454 129 CURVE",
"518 51 OFFCURVE",
"573 -32 OFFCURVE",
"619 -120 CURVE"
);
},
{
closed = 1;
nodes = (
"339.43 459.65 OFFCURVE",
"390.76 507.98 OFFCURVE",
"437 560 CURVE",
"460.03 512.61 OFFCURVE",
"471.7 459.94 OFFCURVE",
"472 402 CURVE SMOOTH",
"471.85 357.09 OFFCURVE",
"462.18 314.09 OFFCURVE",
"443 273 CURVE",
"392.69 325.21 OFFCURVE",
"339.36 372.55 OFFCURVE",
"283 415 CURVE"
);
}
);
vertWidth = 1000;
width = 808;
}
);
note = u1B181;
unicode = 1B181;
},
{
glyphname = u1B182;
layers = (
{
hints = (
{
place = "{606, 82}";
type = Stem;
},
{
place = "{553, 87}";
type = Stem;
}
);
layerId = "BCE9B1DB-4CCD-4D9A-B53B-B8E8A67648C8";
paths = (
{
closed = 1;
nodes = (
"628.34 795.09 OFFCURVE",
"662.34 884.09 OFFCURVE",
"688 983 CURVE",
"606 1000 LINE",
"555.3 819.08 OFFCURVE",
"468.3 661.42 OFFCURVE",
"345 527 CURVE",
"197 831 LINE",
"120 793 LINE",
"424 171 LINE",
"361.25 105.72 OFFCURVE",
"265.91 34.38 OFFCURVE",
"138 -43 CURVE",
"181 -120 LINE",
"299.96 -54.37 OFFCURVE",
"395.29 13.63 OFFCURVE",
"467 84 CURVE",
"561 -109 LINE",
"637 -71 LINE",
"528 152 LINE",
"602.19 245.59 OFFCURVE",
"639.52 348.26 OFFCURVE",
"640 460 CURVE SMOOTH",
"639.86 537.42 OFFCURVE",
"621.86 622.75 OFFCURVE",
"586 716 CURVE"
);
},
{
closed = 1;
nodes = (
"386 444 LINE",
"438.89 498.95 OFFCURVE",
"485.55 556.62 OFFCURVE",
"526 617 CURVE",
"543.76 561.46 OFFCURVE",
"552.76 511.13 OFFCURVE",
"553 466 CURVE SMOOTH",
"552.8 385.78 OFFCURVE",
"529.8 311.45 OFFCURVE",
"484 243 CURVE"
);
}
);
vertWidth = 1000;
width = 808;
}
);
note = u1B182;
unicode = 1B182;
},
{
glyphname = u1B183;
layers = (
{
hints = (
{
place = "{476, 85}";
type = Stem;
}
);
layerId = "BCE9B1DB-4CCD-4D9A-B53B-B8E8A67648C8";
paths = (
{
closed = 1;
nodes = (
"619 372 LINE",
"574.54 310.02 OFFCURVE",
"529.21 252.02 OFFCURVE",
"483 198 CURVE",
"380 407 LINE",
"495.29 568.19 OFFCURVE",
"555.62 765.52 OFFCURVE",
"561 999 CURVE",
"476 998 LINE",
"473.85 904.62 OFFCURVE",
"462.23 818 OFFCURVE",
"441.14 738.16 CURVE SMOOTH",
"392.75 556.51 OFFCURVE",
"286.37 395.79 OFFCURVE",
"122 256 CURVE",
"174 190 LINE",
"228.38 234.59 OFFCURVE",
"276.71 280.92 OFFCURVE",
"319 329 CURVE",
"419 125 LINE",
"358.9 59.89 OFFCURVE",
"296.9 0.22 OFFCURVE",
"233 -54 CURVE",
"286 -120 LINE",
"439.07 12.07 OFFCURVE",
"573.07 159.07 OFFCURVE",
"688 321 CURVE"
);
}
);
vertWidth = 1000;
width = 808;
}
);
note = u1B183;
unicode = 1B183;
},
{
glyphname = u1B184;
layers = (
{
hints = (
{
horizontal = 1;
place = "{190, 128}";
type = Stem;
},
{
place = "{245, 118}";
type = Stem;
},
{
place = "{502, 87}";
type = Stem;
}
);
layerId = "BCE9B1DB-4CCD-4D9A-B53B-B8E8A67648C8";
paths = (
{
closed = 1;
nodes = (
"607 1000 LINE",
"510.24 766.5 OFFCURVE",
"347.9 581.16 OFFCURVE",
"120 444 CURVE",
"161 372 LINE",
"265 432 OFFCURVE",
"356 502 OFFCURVE",
"434 582 CURVE",
"478.97 499.53 OFFCURVE",
"501.63 415.87 OFFCURVE",
"502 331 CURVE SMOOTH",
"501.89 293.31 OFFCURVE",
"495.52 255.62 OFFCURVE",
"482.9 217.95 CURVE SMOOTH",
"446.87 112.27 OFFCURVE",
"368.9 23.95 OFFCURVE",
"249 -47 CURVE",
"290 -120 LINE",
"358.73 -82.56 OFFCURVE",
"417.15 -36.6 OFFCURVE",
"465.26 17.87 CURVE SMOOTH",
"547.76 112.11 OFFCURVE",
"589 216.49 OFFCURVE",
"589 331 CURVE SMOOTH",
"588.82 442.44 OFFCURVE",
"558.82 550.1 OFFCURVE",
"499 654 CURVE",
"576.39 746.46 OFFCURVE",
"639.39 851.12 OFFCURVE",
"688 968 CURVE"
);
},
{
closed = 1;
nodes = (
"312.8 190.15 OFFCURVE",
"321.36 192.11 OFFCURVE",
"329.68 195.86 CURVE SMOOTH",
"351.9 206.85 OFFCURVE",
"363 225.89 OFFCURVE",
"363 253 CURVE SMOOTH",
"362.87 262.51 OFFCURVE",
"361.13 271.78 OFFCURVE",
"357.75 280.83 CURVE SMOOTH",
"347.74 305.61 OFFCURVE",
"329.82 318 OFFCURVE",
"304 318 CURVE SMOOTH",
"295.03 318 OFFCURVE",
"286.56 315.93 OFFCURVE",
"278.6 311.8 CURVE SMOOTH",
"256.2 300.16 OFFCURVE",
"245 280.56 OFFCURVE",
"245 253 CURVE SMOOTH",
"245.17 243.05 OFFCURVE",
"247.66 233.16 OFFCURVE",
"252.46 223.34 CURVE SMOOTH",
"264.15 201.11 OFFCURVE",
"281.33 190 OFFCURVE",
"304 190 CURVE SMOOTH"
);
}
);
vertWidth = 1000;
width = 808;
}
);
note = u1B184;
unicode = 1B184;
},
{
glyphname = u1B185;
layers = (
{
hints = (
{
place = "{373, 86}";
type = Stem;
},
{
place = "{361, 87}";
type = Stem;
}
);
layerId = "BCE9B1DB-4CCD-4D9A-B53B-B8E8A67648C8";
paths = (
{
closed = 1;
nodes = (
"441.95 790.1 OFFCURVE",
"454.95 888.1 OFFCURVE",
"459 998 CURVE",
"373 1000 LINE",
"364.11 846.03 OFFCURVE",
"341.86 723.92 OFFCURVE",
"306.26 633.66 CURVE SMOOTH",
"268.64 539.02 OFFCURVE",
"202.88 447.8 OFFCURVE",
"109 360 CURVE",
"164 300 LINE",
"271.34 392.8 OFFCURVE",
"347.34 497.8 OFFCURVE",
"392 615 CURVE",
"466.35 543.14 OFFCURVE",
"545.02 449.48 OFFCURVE",
"628 334 CURVE",
"701 383 LINE",
"698.16 387.04 OFFCURVE",
"695.08 391.38 OFFCURVE",
"691.77 396.03 CURVE SMOOTH",
"617.12 500.67 OFFCURVE",
"526.53 603.33 OFFCURVE",
"420 704 CURVE"
);
},
{
closed = 1;
nodes = (
"361 378 LINE",
"361.18 376.41 OFFCURVE",
"361.41 374.49 OFFCURVE",
"361.66 372.23 CURVE SMOOTH",
"380.35 205.97 OFFCURVE",
"372.13 47.57 OFFCURVE",
"337 -103 CURVE",
"422 -120 LINE",
"425.23 -106.31 OFFCURVE",
"428.34 -91.97 OFFCURVE",
"431.33 -76.96 CURVE SMOOTH",
"461.8 77.55 OFFCURVE",
"467.36 233.2 OFFCURVE",
"448 390 CURVE"
);
}
);
vertWidth = 1000;
width = 808;
}
);
note = u1B185;
unicode = 1B185;
},
{
glyphname = u1B186;
layers = (
{
hints = (
{
place = "{575.53, 91.47}";
type = Stem;
}
);
layerId = "BCE9B1DB-4CCD-4D9A-B53B-B8E8A67648C8";
paths = (
{
closed = 1;
nodes = (
"580 1000 LINE",
"578.71 986.68 OFFCURVE",
"577.22 973.21 OFFCURVE",
"575.53 959.57 CURVE SMOOTH",
"547.47 736.48 OFFCURVE",
"461.96 550.29 OFFCURVE",
"319 401 CURVE",
"311.77 530.12 OFFCURVE",
"282.11 662.78 OFFCURVE",
"230 799 CURVE",
"148 767 LINE",
"202.74 619.39 OFFCURVE",
"230.74 480.06 OFFCURVE",
"232 349 CURVE SMOOTH",
"232.82 209.31 OFFCURVE",
"196.49 65.64 OFFCURVE",
"123 -82 CURVE",
"203 -120 LINE",
"270.08 14.43 OFFCURVE",
"308.74 147.43 OFFCURVE",
"319 279 CURVE",
"373.07 327.4 OFFCURVE",
"422.07 380.73 OFFCURVE",
"466 439 CURVE",
"570 51 LINE",
"653 74 LINE",
"530 537 LINE",
"603.85 667.52 OFFCURVE",
"649.51 819.85 OFFCURVE",
"667 994 CURVE"
);
}
);
vertWidth = 1000;
width = 808;
}
);
note = u1B186;
unicode = 1B186;
},
{
glyphname = u1B187;
layers = (
{
hints = (
{
place = "{398, 86}";
type = Stem;
},
{
place = "{544, 83}";
type = Stem;
}
);
layerId = "BCE9B1DB-4CCD-4D9A-B53B-B8E8A67648C8";
paths = (
{
closed = 1;
nodes = (
"628 491 LINE",
"581.81 433.66 OFFCURVE",
"528.15 378.33 OFFCURVE",
"467 325 CURVE",
"455.15 384.94 OFFCURVE",
"438.15 445.27 OFFCURVE",
"416 506 CURVE",
"540.44 637.7 OFFCURVE",
"610.78 801.04 OFFCURVE",
"627 996 CURVE",
"544 1000 LINE",
"529.3 839.48 OFFCURVE",
"474.63 704.15 OFFCURVE",
"380 594 CURVE",
"344.43 673.62 OFFCURVE",
"298.1 756.62 OFFCURVE",
"241 843 CURVE",
"171 798 LINE",
"231.89 702.36 OFFCURVE",
"279.89 612.02 OFFCURVE",
"315 527 CURVE",
"264.66 481.36 OFFCURVE",
"199.66 434.02 OFFCURVE",
"120 385 CURVE",
"162 312 LINE",
"231.87 352 OFFCURVE",
"293.54 394.67 OFFCURVE",
"347 440 CURVE",
"367.46 376.32 OFFCURVE",
"381.46 316.65 OFFCURVE",
"389 261 CURVE",
"314.51 204.44 OFFCURVE",
"238.85 157.1 OFFCURVE",
"162 119 CURVE",
"198 44 LINE",
"265.57 76.48 OFFCURVE",
"332.24 115.81 OFFCURVE",
"398 162 CURVE",
"398 133 LINE SMOOTH",
"397.91 60.32 OFFCURVE",
"387.58 -18.02 OFFCURVE",
"367 -102 CURVE",
"452 -120 LINE",
"473.17 -29.97 OFFCURVE",
"483.84 55.7 OFFCURVE",
"484 137 CURVE SMOOTH",
"483.97 168.8 OFFCURVE",
"482.64 197.8 OFFCURVE",
"480 224 CURVE",
"554.69 285.15 OFFCURVE",
"626.02 356.15 OFFCURVE",
"694 437 CURVE"
);
}
);
vertWidth = 1000;
width = 808;
}
);
note = u1B187;
unicode = 1B187;
},
{
glyphname = u1B188;
layers = (
{
hints = (
{
horizontal = 1;
place = "{-30, 132}";
type = Stem;
},
{
place = "{120, 123}";
type = Stem;
}
);
layerId = "BCE9B1DB-4CCD-4D9A-B53B-B8E8A67648C8";
paths = (
{
closed = 1;
nodes = (
"540 987 LINE",
"545.66 937.16 OFFCURVE",
"550.5 889.81 OFFCURVE",
"554.52 844.93 CURVE SMOOTH",
"585.5 497.38 OFFCURVE",
"566.99 223.4 OFFCURVE",
"499 23 CURVE",
"293 513 LINE",
"211 477 LINE",
"464 -119 LINE",
"541 -118 LINE",
"571 -48.25 OFFCURVE",
"595.18 28.1 OFFCURVE",
"613.54 111.06 CURVE SMOOTH",
"663.19 337.04 OFFCURVE",
"668.01 633.35 OFFCURVE",
"628 1000 CURVE"
);
},
{
closed = 1;
nodes = (
"172.98 101.85 OFFCURVE",
"164.15 99.89 OFFCURVE",
"155.53 96.12 CURVE SMOOTH",
"131.84 84.82 OFFCURVE",
"120 64.79 OFFCURVE",
"120 36 CURVE SMOOTH",
"120.16 25.62 OFFCURVE",
"122.46 15.48 OFFCURVE",
"126.91 5.59 CURVE SMOOTH",
"138.41 -18.14 OFFCURVE",
"156.78 -30 OFFCURVE",
"182 -30 CURVE SMOOTH",
"190.91 -29.86 OFFCURVE",
"199.52 -28.06 OFFCURVE",
"207.82 -24.59 CURVE SMOOTH",
"231.28 -13.85 OFFCURVE",
"243 6.35 OFFCURVE",
"243 36 CURVE SMOOTH",
"242.91 44.21 OFFCURVE",
"241.75 52.26 OFFCURVE",
"239.53 60.15 CURVE SMOOTH",
"230.92 88.05 OFFCURVE",
"211.74 102 OFFCURVE",
"182 102 CURVE SMOOTH"
);
}
);
vertWidth = 1000;
width = 808;
}
);
note = u1B188;
unicode = 1B188;
},
{
glyphname = u1B189;
layers = (
{
hints = (
{
place = "{557, 82}";
type = Stem;
}
);
layerId = "BCE9B1DB-4CCD-4D9A-B53B-B8E8A67648C8";
paths = (
{
closed = 1;
nodes = (
"614 530 LINE",
"566.8 477.99 OFFCURVE",
"512.8 426.66 OFFCURVE",
"452 376 CURVE",
"442.4 434.45 OFFCURVE",
"429.73 491.12 OFFCURVE",
"414 546 CURVE",
"530.06 661.46 OFFCURVE",
"605.06 808.13 OFFCURVE",
"639 986 CURVE",
"557 1000 LINE",
"541.4 919.77 OFFCURVE",
"516.97 847.31 OFFCURVE",
"483.7 782.64 CURVE SMOOTH",
"414.79 649.6 OFFCURVE",
"296.22 535.39 OFFCURVE",
"128 440 CURVE",
"167 369 LINE",
"234.8 405.03 OFFCURVE",
"292.8 442.69 OFFCURVE",
"341 482 CURVE",
"356.49 422.96 OFFCURVE",
"367.16 367.63 OFFCURVE",
"373 316 CURVE",
"291.54 257.31 OFFCURVE",
"207.21 207.31 OFFCURVE",
"120 166 CURVE",
"154 92 LINE",
"232.57 128.41 OFFCURVE",
"307.91 170.74 OFFCURVE",
"380 219 CURVE",
"380.9 111.12 OFFCURVE",
"359.56 7.12 OFFCURVE",
"316 -93 CURVE",
"396 -120 LINE",
"449.55 8.16 OFFCURVE",
"471.88 140.82 OFFCURVE",
"463 278 CURVE",
"539.5 336.94 OFFCURVE",
"610.5 401.61 OFFCURVE",
"676 472 CURVE"
);
}
);
vertWidth = 1000;
width = 808;
}
);
note = u1B189;
unicode = 1B189;
},
{
glyphname = u1B18A;
layers = (
{
hints = (
{
place = "{597, 83}";
type = Stem;
}
);
layerId = "BCE9B1DB-4CCD-4D9A-B53B-B8E8A67648C8";
paths = (
{
closed = 1;
nodes = (
"183 373 LINE",
"231.09 400.07 OFFCURVE",
"276 428.87 OFFCURVE",
"317.72 459.4 CURVE SMOOTH",
"497.64 591.59 OFFCURVE",
"618.4 764.46 OFFCURVE",
"680 978 CURVE",
"597 1000 LINE",
"527.29 764.32 OFFCURVE",
"374.95 580.66 OFFCURVE",
"140 449 CURVE"
);
},
{
closed = 1;
nodes = (
"206 140 LINE",
"374.02 233.71 OFFCURVE",
"516.35 342.71 OFFCURVE",
"633 467 CURVE",
"571 529 LINE",
"462.78 413.05 OFFCURVE",
"328.12 309.05 OFFCURVE",
"167 217 CURVE"
);
},
{
closed = 1;
nodes = (
"173 -120 LINE",
"351.59 -30.07 OFFCURVE",
"508.59 75.59 OFFCURVE",
"644 197 CURVE",
"586 264 LINE",
"456.92 148.55 OFFCURVE",
"306.25 46.88 OFFCURVE",
"134 -41 CURVE"
);
}
);
vertWidth = 1000;
width = 808;
}
);
note = u1B18A;
unicode = 1B18A;
},
{
glyphname = u1B18B;
layers = (
{
hints = (
{
place = "{319, 87}";
type = Stem;
},
{
place = "{541, 86}";
type = Stem;
},
{
place = "{258, 86}";
type = Stem;
}
);
layerId = "BCE9B1DB-4CCD-4D9A-B53B-B8E8A67648C8";
paths = (
{
closed = 1;
nodes = (
"319 1000 LINE",
"317.82 766.92 OFFCURVE",
"263.15 588.92 OFFCURVE",
"155 466 CURVE",
"155 461 LINE",
"282.98 307.7 OFFCURVE",
"317.32 119.7 OFFCURVE",
"258 -103 CURVE",
"344 -120 LINE",
"402.07 103.42 OFFCURVE",
"375.07 297.76 OFFCURVE",
"263 463 CURVE",
"356.01 587.1 OFFCURVE",
"403.68 765.77 OFFCURVE",
"406 999 CURVE"
);
},
{
closed = 1;
nodes = (
"566 845 LINE",
"563.87 816.89 OFFCURVE",
"561.01 790.17 OFFCURVE",
"557.4 764.83 CURVE SMOOTH",
"541.22 652.52 OFFCURVE",
"502.75 552.57 OFFCURVE",
"442 465 CURVE",
"442 461 LINE",
"465.51 428.55 OFFCURVE",
"484.81 395.45 OFFCURVE",
"499.91 361.71 CURVE SMOOTH",
"536.75 278.35 OFFCURVE",
"550.45 169.78 OFFCURVE",
"541 36 CURVE",
"627 31 LINE",
"629.47 58.39 OFFCURVE",
"630.94 84.93 OFFCURVE",
"631.4 110.62 CURVE SMOOTH",
"633.51 240.88 OFFCURVE",
"603.71 358.67 OFFCURVE",
"542 464 CURVE",
"544.26 467.66 OFFCURVE",
"546.68 471.66 OFFCURVE",
"549.26 476 CURVE SMOOTH",
"604.26 569.13 OFFCURVE",
"638.17 690.79 OFFCURVE",
"651 841 CURVE"
);
}
);
vertWidth = 1000;
width = 808;
}
);
note = u1B18B;
unicode = 1B18B;
},
{
glyphname = u1B18C;
layers = (
{
hints = (
{
horizontal = 1;
place = "{265, 121}";
type = Stem;
},
{
horizontal = 1;
place = "{502, 121}";
type = Stem;
},
{
place = "{109, 113}";
type = Stem;
},
{
place = "{293, 84}";
type = Stem;
},
{
place = "{441, 79}";
type = Stem;
},
{
place = "{587, 112}";
type = Stem;
}
);
layerId = "BCE9B1DB-4CCD-4D9A-B53B-B8E8A67648C8";
paths = (
{
closed = 1;
nodes = (
"671 185 LINE",
"668.95 187.98 OFFCURVE",
"666.69 191.28 OFFCURVE",
"664.23 194.91 CURVE SMOOTH",
"568.08 336.81 OFFCURVE",
"520 467.5 OFFCURVE",
"520 587 CURVE SMOOTH",
"520.19 707.17 OFFCURVE",
"557.86 831.51 OFFCURVE",
"633 960 CURVE",
"564 1000 LINE",
"482.4 863.68 OFFCURVE",
"441.4 725.02 OFFCURVE",
"441 584 CURVE SMOOTH",
"441.23 442.06 OFFCURVE",
"495.23 292.39 OFFCURVE",
"603 135 CURVE"
);
},
{
closed = 1;
nodes = (
"228 -120 LINE",
"326.87 18.75 OFFCURVE",
"376.54 163.08 OFFCURVE",
"377 313 CURVE SMOOTH",
"376.79 472.52 OFFCURVE",
"327.12 622.52 OFFCURVE",
"228 763 CURVE",
"159 716 LINE",
"247.89 588.25 OFFCURVE",
"292.56 452.92 OFFCURVE",
"293 310 CURVE SMOOTH",
"292.78 182.1 OFFCURVE",
"248.11 54.43 OFFCURVE",
"159 -73 CURVE"
);
},
{
closed = 1;
nodes = (
"587.15 553.79 OFFCURVE",
"589.16 544.69 OFFCURVE",
"593.04 535.68 CURVE SMOOTH",
"603.53 513.22 OFFCURVE",
"620.18 502 OFFCURVE",
"643 502 CURVE SMOOTH",
"651.28 502.15 OFFCURVE",
"659.31 503.94 OFFCURVE",
"667.1 507.36 CURVE SMOOTH",
"688.37 517.68 OFFCURVE",
"699 536.22 OFFCURVE",
"699 563 CURVE SMOOTH",
"698.89 570.83 OFFCURVE",
"697.56 578.6 OFFCURVE",
"695.03 586.3 CURVE SMOOTH",
"686.18 610.77 OFFCURVE",
"668.84 623 OFFCURVE",
"643 623 CURVE SMOOTH",
"634.38 623 OFFCURVE",
"626.22 620.99 OFFCURVE",
"618.53 616.98 CURVE SMOOTH",
"597.51 606.01 OFFCURVE",
"587 588.01 OFFCURVE",
"587 563 CURVE SMOOTH"
);
},
{
closed = 1;
nodes = (
"173.42 265.15 OFFCURVE",
"181.63 266.99 OFFCURVE",
"189.63 270.52 CURVE SMOOTH",
"211.21 280.98 OFFCURVE",
"222 299.14 OFFCURVE",
"222 325 CURVE SMOOTH",
"221.88 333.46 OFFCURVE",
"220.37 341.78 OFFCURVE",
"217.47 349.95 CURVE SMOOTH",
"208.14 373.98 OFFCURVE",
"190.65 386 OFFCURVE",
"165 386 CURVE SMOOTH",
"156.76 386 OFFCURVE",
"148.87 384.05 OFFCURVE",
"141.33 380.14 CURVE SMOOTH",
"119.78 368.98 OFFCURVE",
"109 350.6 OFFCURVE",
"109 325 CURVE SMOOTH",
"109.16 315.95 OFFCURVE",
"111.3 306.93 OFFCURVE",
"115.43 297.93 CURVE SMOOTH",
"126.33 275.98 OFFCURVE",
"142.85 265 OFFCURVE",
"165 265 CURVE SMOOTH"
);
}
);
vertWidth = 1000;
width = 808;
}
);
note = u1B18C;
unicode = 1B18C;
},
{
glyphname = u1B18D;
layers = (
{
hints = (
{
place = "{247, 88}";
type = Stem;
}
);
layerId = "BCE9B1DB-4CCD-4D9A-B53B-B8E8A67648C8";
paths = (
{
closed = 1;
nodes = (
"574 1000 LINE",
"553.33 949.71 OFFCURVE",
"530.13 902.62 OFFCURVE",
"504.41 858.71 CURVE SMOOTH",
"420.54 716.3 OFFCURVE",
"299.41 599.73 OFFCURVE",
"141 509 CURVE",
"141 505 LINE",
"146.31 497.1 OFFCURVE",
"151.64 488.91 OFFCURVE",
"156.98 480.43 CURVE SMOOTH",
"220.22 379.44 OFFCURVE",
"250.22 276.3 OFFCURVE",
"247 171 CURVE SMOOTH",
"243.68 84.37 OFFCURVE",
"219.35 0.03 OFFCURVE",
"174 -82 CURVE",
"255 -120 LINE",
"303.49 -34.25 OFFCURVE",
"330.16 61.75 OFFCURVE",
"335 168 CURVE SMOOTH",
"338.84 275 OFFCURVE",
"313.51 379.33 OFFCURVE",
"259 481 CURVE",
"337.37 530.74 OFFCURVE",
"407.04 589.4 OFFCURVE",
"468 657 CURVE",
"533.91 536.29 OFFCURVE",
"565.58 406.63 OFFCURVE",
"563 268 CURVE",
"437 403 LINE",
"376 344 LINE",
"559 145 LINE",
"631 163 LINE",
"666.62 349.26 OFFCURVE",
"631.95 538.26 OFFCURVE",
"527 730 CURVE",
"578.41 801.08 OFFCURVE",
"622.41 879.75 OFFCURVE",
"659 966 CURVE"
);
}
);
vertWidth = 1000;
width = 808;
}
);
note = u1B18D;
unicode = 1B18D;
},
{
glyphname = u1B18E;
layers = (
{
hints = (
{
horizontal = 1;
place = "{-120, 128}";
type = Stem;
},
{
place = "{375, 118}";
type = Stem;
},
{
place = "{532, 84}";
type = Stem;
}
);
layerId = "BCE9B1DB-4CCD-4D9A-B53B-B8E8A67648C8";
paths = (
{
closed = 1;
nodes = (
"452 593 LINE",
"530.52 700.78 OFFCURVE",
"585.19 832.44 OFFCURVE",
"616 988 CURVE",
"532 1000 LINE",
"510.29 883.27 OFFCURVE",
"468.96 777.94 OFFCURVE",
"408 684 CURVE",
"314 876 LINE",
"237 839 LINE",
"350 607 LINE",
"293.41 539.28 OFFCURVE",
"216.74 469.28 OFFCURVE",
"120 397 CURVE",
"171 325 LINE",
"259.17 388.5 OFFCURVE",
"333.17 453.5 OFFCURVE",
"393 520 CURVE",
"442 420 LINE",
"352.77 267.67 OFFCURVE",
"249.43 131.67 OFFCURVE",
"132 12 CURVE",
"193 -51 LINE",
"306.29 65.49 OFFCURVE",
"404.29 191.49 OFFCURVE",
"487 327 CURVE",
"611 73 LINE",
"688 110 LINE"
);
},
{
closed = 1;
nodes = (
"425.65 7.85 OFFCURVE",
"417.47 6.05 OFFCURVE",
"409.46 2.59 CURVE SMOOTH",
"386.49 -8.28 OFFCURVE",
"375 -28.15 OFFCURVE",
"375 -57 CURVE SMOOTH",
"375.14 -66.24 OFFCURVE",
"377.06 -75.36 OFFCURVE",
"380.75 -84.36 CURVE SMOOTH",
"391.32 -108.12 OFFCURVE",
"409.07 -120 OFFCURVE",
"434 -120 CURVE SMOOTH",
"442.72 -119.86 OFFCURVE",
"451.11 -118.12 OFFCURVE",
"459.17 -114.78 CURVE SMOOTH",
"481.72 -104.5 OFFCURVE",
"493 -85.24 OFFCURVE",
"493 -57 CURVE SMOOTH",
"492.92 -49.24 OFFCURVE",
"491.92 -41.62 OFFCURVE",
"490.01 -34.14 CURVE SMOOTH",
"482.1 -6.05 OFFCURVE",
"463.43 8 OFFCURVE",
"434 8 CURVE SMOOTH"
);
}
);
vertWidth = 1000;
width = 808;
}
);
note = u1B18E;
unicode = 1B18E;
},
{
glyphname = u1B18F;
layers = (
{
hints = (
{
place = "{118, 119}";
type = Stem;
},
{
place = "{517, 86}";
type = Stem;
},
{
place = "{597, 119}";
type = Stem;
},
{
horizontal = 1;
place = "{336, 127}";
type = Stem;
},
{
horizontal = 1;
place = "{236, 127}";
type = Stem;
}
);
layerId = "BCE9B1DB-4CCD-4D9A-B53B-B8E8A67648C8";
paths = (
{
closed = 1;
nodes = (
"517 1000 LINE",
"502.06 775 OFFCURVE",
"466.39 581 OFFCURVE",
"410 418 CURVE",
"354.18 525.39 OFFCURVE",
"293.85 623.06 OFFCURVE",
"229 711 CURVE",
"159 661 LINE",
"238.26 547.08 OFFCURVE",
"307.26 429.08 OFFCURVE",
"366 307 CURVE",
"308.79 179.27 OFFCURVE",
"230.79 56.27 OFFCURVE",
"132 -62 CURVE",
"199 -120 LINE",
"286.87 -16.85 OFFCURVE",
"358.53 89.48 OFFCURVE",
"414 199 CURVE",
"449.86 115.86 OFFCURVE",
"483.52 23.53 OFFCURVE",
"515 -78 CURVE",
"597 -49 LINE",
"555.5 83.66 OFFCURVE",
"511.17 202 OFFCURVE",
"464 306 CURVE",
"539.54 491.83 OFFCURVE",
"585.88 722.17 OFFCURVE",
"603 997 CURVE"
);
},
{
closed = 1;
nodes = (
"647.53 462.85 OFFCURVE",
"639.23 461 OFFCURVE",
"631.11 457.45 CURVE SMOOTH",
"608.37 446.55 OFFCURVE",
"597 427.07 OFFCURVE",
"597 399 CURVE SMOOTH",
"597.14 389.55 OFFCURVE",
"599.12 380.28 OFFCURVE",
"602.92 371.2 CURVE SMOOTH",
"613.58 347.73 OFFCURVE",
"631.28 336 OFFCURVE",
"656 336 CURVE SMOOTH",
"664.2 336.12 OFFCURVE",
"672.18 337.62 OFFCURVE",
"679.93 340.48 CURVE SMOOTH",
"703.98 350.27 OFFCURVE",
"716 369.78 OFFCURVE",
"716 399 CURVE SMOOTH",
"715.91 406.66 OFFCURVE",
"714.84 414.21 OFFCURVE",
"712.79 421.67 CURVE SMOOTH",
"704.45 449.22 OFFCURVE",
"685.52 463 OFFCURVE",
"656 463 CURVE SMOOTH"
);
},
{
closed = 1;
nodes = (
"185.86 236.12 OFFCURVE",
"193.54 237.58 OFFCURVE",
"201.04 240.36 CURVE SMOOTH",
"225.01 250.18 OFFCURVE",
"237 270.06 OFFCURVE",
"237 300 CURVE SMOOTH",
"236.9 308.12 OFFCURVE",
"235.64 316.1 OFFCURVE",
"233.22 323.94 CURVE SMOOTH",
"224.41 349.98 OFFCURVE",
"206 363 OFFCURVE",
"178 363 CURVE SMOOTH",
"169.35 362.85 OFFCURVE",
"160.88 361.01 OFFCURVE",
"152.58 357.46 CURVE SMOOTH",
"129.53 346.69 OFFCURVE",
"118 327.53 OFFCURVE",
"118 300 CURVE SMOOTH",
"118.15 290.13 OFFCURVE",
"120.28 280.47 OFFCURVE",
"124.4 271.02 CURVE SMOOTH",
"135.39 247.68 OFFCURVE",
"153.26 236 OFFCURVE",
"178 236 CURVE SMOOTH"
);
}
);
vertWidth = 1000;
width = 808;
}
);
note = u1B18F;
unicode = 1B18F;
},
{
glyphname = u1B190;
layers = (
{
hints = (
{
horizontal = 1;
place = "{-120, 78}";
type = Stem;
},
{
horizontal = 1;
place = "{137, 78}";
type = Stem;
},
{
place = "{458, 85}";
type = Stem;
},
{
place = "{252, 86}";
type = Stem;
},
{
place = "{302, 89}";
type = Stem;
},
{
place = "{495, 89}";
type = Stem;
}
);
layerId = "BCE9B1DB-4CCD-4D9A-B53B-B8E8A67648C8";
paths = (
{
closed = 1;
nodes = (
"691 276 LINE",
"592.89 405.79 OFFCURVE",
"543.56 524.79 OFFCURVE",
"543 633 CURVE SMOOTH",
"543.19 735.4 OFFCURVE",
"575.85 845.73 OFFCURVE",
"641 964 CURVE",
"563 1000 LINE",
"493.37 866.6 OFFCURVE",
"458.37 743.6 OFFCURVE",
"458 631 CURVE SMOOTH",
"458.26 504.72 OFFCURVE",
"512.93 367.72 OFFCURVE",
"622 220 CURVE"
);
},
{
closed = 1;
nodes = (
"182 93 LINE",
"285.46 213.71 OFFCURVE",
"337.46 341.38 OFFCURVE",
"338 476 CURVE SMOOTH",
"337.79 594.14 OFFCURVE",
"297.79 715.81 OFFCURVE",
"218 841 CURVE",
"147 796 LINE",
"216.56 681.08 OFFCURVE",
"251.56 574.42 OFFCURVE",
"252 476 CURVE SMOOTH",
"251.74 361.22 OFFCURVE",
"207.74 252.22 OFFCURVE",
"120 149 CURVE"
);
},
{
closed = 1;
nodes = (
"471.2 -119.78 OFFCURVE",
"496.27 -111.83 OFFCURVE",
"519.21 -96.16 CURVE SMOOTH",
"562.41 -65.69 OFFCURVE",
"584 -18.64 OFFCURVE",
"584 45 CURVE SMOOTH",
"583.81 85.85 OFFCURVE",
"574.43 121.32 OFFCURVE",
"555.85 151.41 CURVE SMOOTH",
"528.97 193.8 OFFCURVE",
"491.68 215 OFFCURVE",
"444 215 CURVE SMOOTH",
"416.35 214.77 OFFCURVE",
"390.86 206.53 OFFCURVE",
"367.55 190.28 CURVE SMOOTH",
"323.85 158.83 OFFCURVE",
"302 110.4 OFFCURVE",
"302 45 CURVE SMOOTH",
"302.2 5.41 OFFCURVE",
"311.83 -29.04 OFFCURVE",
"330.9 -58.36 CURVE SMOOTH",
"358.37 -99.46 OFFCURVE",
"396.07 -120 OFFCURVE",
"444 -120 CURVE SMOOTH"
);
},
{
closed = 1;
nodes = (
"438.98 -41.88 OFFCURVE",
"433.86 -40.92 OFFCURVE",
"428.64 -39.11 CURVE SMOOTH",
"403.54 -29.07 OFFCURVE",
"391 -0.7 OFFCURVE",
"391 46 CURVE SMOOTH",
"391.08 60.52 OFFCURVE",
"392.59 74.08 OFFCURVE",
"395.55 86.68 CURVE SMOOTH",
"403.91 120.23 OFFCURVE",
"420.06 137 OFFCURVE",
"444 137 CURVE SMOOTH",
"448.68 136.87 OFFCURVE",
"453.47 135.92 OFFCURVE",
"458.39 134.14 CURVE SMOOTH",
"482.79 123.88 OFFCURVE",
"495 94.5 OFFCURVE",
"495 46 CURVE SMOOTH",
"494.93 33.07 OFFCURVE",
"493.73 20.89 OFFCURVE",
"491.39 9.47 CURVE SMOOTH",
"483.88 -24.84 OFFCURVE",
"468.08 -42 OFFCURVE",
"444 -42 CURVE SMOOTH"
);
}
);
vertWidth = 1000;
width = 808;
}
);
note = u1B190;
unicode = 1B190;
},
{
glyphname = u1B191;
layers = (
{
hints = (
{
place = "{338, 82}";
type = Stem;
},
{
place = "{453, 83}";
type = Stem;
},
{
place = "{545, 85}";
type = Stem;
}
);
layerId = "BCE9B1DB-4CCD-4D9A-B53B-B8E8A67648C8";
paths = (
{
closed = 1;
nodes = (
"625 411 LINE",
"573.8 354.12 OFFCURVE",
"514.8 298.45 OFFCURVE",
"448 244 CURVE",
"446.03 283 OFFCURVE",
"443.03 323.33 OFFCURVE",
"439 365 CURVE",
"503.08 430.42 OFFCURVE",
"535.41 502.42 OFFCURVE",
"536 581 CURVE SMOOTH",
"535.92 618.96 OFFCURVE",
"530.92 656.3 OFFCURVE",
"521 693 CURVE",
"576.93 774.32 OFFCURVE",
"613.26 872.98 OFFCURVE",
"630 989 CURVE",
"545 1000 LINE",
"535.07 933.58 OFFCURVE",
"517.07 872.89 OFFCURVE",
"490.99 817.95 CURVE SMOOTH",
"429.48 689.53 OFFCURVE",
"313.48 583.21 OFFCURVE",
"143 499 CURVE",
"178 422 LINE",
"290.99 474.14 OFFCURVE",
"382.33 535.8 OFFCURVE",
"452 607 CURVE",
"452.58 601.97 OFFCURVE",
"452.91 594.63 OFFCURVE",
"453 585 CURVE SMOOTH",
"452.85 557.76 OFFCURVE",
"446.83 530.93 OFFCURVE",
"434.93 504.49 CURVE SMOOTH",
"398.73 426.15 OFFCURVE",
"299.42 346.99 OFFCURVE",
"137 267 CURVE",
"171 192 LINE",
"245.06 226.1 OFFCURVE",
"308.39 261.76 OFFCURVE",
"361 299 CURVE",
"363.94 261.47 OFFCURVE",
"365.94 222.8 OFFCURVE",
"367 183 CURVE",
"285.09 126.36 OFFCURVE",
"202.42 77.36 OFFCURVE",
"119 36 CURVE",
"153 -41 LINE",
"227.23 -5.84 OFFCURVE",
"297.56 33.5 OFFCURVE",
"364 77 CURVE",
"360.04 14.49 OFFCURVE",
"351.37 -46.84 OFFCURVE",
"338 -107 CURVE",
"420 -120 LINE",
"437.11 -41.73 OFFCURVE",
"446.77 43.6 OFFCURVE",
"449 136 CURVE",
"534.4 200.65 OFFCURVE",
"614.06 273.31 OFFCURVE",
"688 354 CURVE"
);
}
);
vertWidth = 1000;
width = 808;
}
);
note = u1B191;
unicode = 1B191;
},
{
glyphname = u1B192;
layers = (
{
hints = (
{
horizontal = 1;
place = "{73, 129}";
type = Stem;
},
{
place = "{117, 121}";
type = Stem;
},
{
place = "{375, 88}";
type = Stem;
},
{
place = "{558, 87}";
type = Stem;
},
{
place = "{606, 84}";
type = Stem;
}
);
layerId = "BCE9B1DB-4CCD-4D9A-B53B-B8E8A67648C8";
paths = (
{
closed = 1;
nodes = (
"581.18 776.79 OFFCURVE",
"618.51 872.79 OFFCURVE",
"645 981 CURVE",
"558 1000 LINE",
"506.3 782.36 OFFCURVE",
"394.3 606.36 OFFCURVE",
"222 472 CURVE",
"222 468 LINE",
"323.43 361.25 OFFCURVE",
"374.43 242.91 OFFCURVE",
"375 113 CURVE SMOOTH",
"374.88 47.93 OFFCURVE",
"361.88 -21.73 OFFCURVE",
"336 -96 CURVE",
"421 -120 LINE",
"448.76 -41.34 OFFCURVE",
"462.76 36.66 OFFCURVE",
"463 114 CURVE SMOOTH",
"462.78 243.32 OFFCURVE",
"423.11 358.99 OFFCURVE",
"344 461 CURVE",
"396.19 506.3 OFFCURVE",
"442.19 556.63 OFFCURVE",
"482 612 CURVE",
"559.44 502.79 OFFCURVE",
"600.78 370.79 OFFCURVE",
"606 216 CURVE",
"690 221 LINE",
"690.31 250.26 OFFCURVE",
"688.79 280.14 OFFCURVE",
"685.42 310.65 CURVE SMOOTH",
"669.31 453.22 OFFCURVE",
"618.5 580.67 OFFCURVE",
"533 693 CURVE"
);
},
{
closed = 1;
nodes = (
"168.63 201.83 OFFCURVE",
"159.45 199.54 OFFCURVE",
"150.48 195.12 CURVE SMOOTH",
"128.16 183.19 OFFCURVE",
"117 163.82 OFFCURVE",
"117 137 CURVE SMOOTH",
"117.16 127.15 OFFCURVE",
"119.36 117.49 OFFCURVE",
"123.62 108.02 CURVE SMOOTH",
"134.95 84.68 OFFCURVE",
"153.07 73 OFFCURVE",
"178 73 CURVE SMOOTH",
"186.61 73.14 OFFCURVE",
"194.94 74.83 OFFCURVE",
"202.98 78.08 CURVE SMOOTH",
"226.32 88.44 OFFCURVE",
"238 108.08 OFFCURVE",
"238 137 CURVE SMOOTH",
"237.89 145.46 OFFCURVE",
"236.54 153.78 OFFCURVE",
"233.95 161.98 CURVE SMOOTH",
"224.74 188.66 OFFCURVE",
"206.09 202 OFFCURVE",
"178 202 CURVE SMOOTH"
);
}
);
vertWidth = 1000;
width = 808;
}
);
note = u1B192;
unicode = 1B192;
},
{
glyphname = u1B193;
layers = (
{
hints = (
{
horizontal = 1;
place = "{-28, 128}";
type = Stem;
},
{
horizontal = 1;
place = "{473, 126}";
type = Stem;
},
{
place = "{122, 118}";
type = Stem;
},
{
place = "{354, 117}";
type = Stem;
},
{
place = "{544, 89}";
type = Stem;
}
);
layerId = "BCE9B1DB-4CCD-4D9A-B53B-B8E8A67648C8";
paths = (
{
closed = 1;
nodes = (
"544 990 LINE",
"581.79 563.43 OFFCURVE",
"556.13 237.43 OFFCURVE",
"467 12 CURVE",
"256 513 LINE",
"173 480 LINE",
"428 -120 LINE",
"501 -120 LINE",
"631.05 118.34 OFFCURVE",
"675.05 491.67 OFFCURVE",
"633 1000 CURVE"
);
},
{
closed = 1;
nodes = (
"421.48 473.14 OFFCURVE",
"429.68 474.88 OFFCURVE",
"437.59 478.22 CURVE SMOOTH",
"459.86 488.57 OFFCURVE",
"471 507.83 OFFCURVE",
"471 536 CURVE SMOOTH",
"470.9 543.93 OFFCURVE",
"469.69 551.77 OFFCURVE",
"467.37 559.53 CURVE SMOOTH",
"458.72 585.85 OFFCURVE",
"440.59 599 OFFCURVE",
"413 599 CURVE SMOOTH",
"404.13 598.84 OFFCURVE",
"395.42 596.71 OFFCURVE",
"386.87 592.63 CURVE SMOOTH",
"364.96 581.22 OFFCURVE",
"354 562.35 OFFCURVE",
"354 536 CURVE SMOOTH",
"354.16 526.26 OFFCURVE",
"356.35 516.68 OFFCURVE",
"360.57 507.26 CURVE SMOOTH",
"371.64 484.42 OFFCURVE",
"389.11 473 OFFCURVE",
"413 473 CURVE SMOOTH"
);
},
{
closed = 1;
nodes = (
"172.26 99.84 OFFCURVE",
"163.67 97.77 OFFCURVE",
"155.24 93.8 CURVE SMOOTH",
"133.08 82.41 OFFCURVE",
"122 63.14 OFFCURVE",
"122 36 CURVE SMOOTH",
"122.15 26.15 OFFCURVE",
"124.28 16.49 OFFCURVE",
"128.38 7.02 CURVE SMOOTH",
"139.3 -16.32 OFFCURVE",
"156.85 -28 OFFCURVE",
"181 -28 CURVE SMOOTH",
"189.37 -27.86 OFFCURVE",
"197.51 -26.17 OFFCURVE",
"205.41 -22.92 CURVE SMOOTH",
"228.47 -12.49 OFFCURVE",
"240 7.15 OFFCURVE",
"240 36 CURVE SMOOTH",
"239.89 44.56 OFFCURVE",
"238.51 52.96 OFFCURVE",
"235.84 61.19 CURVE SMOOTH",
"226.69 87.07 OFFCURVE",
"208.41 100 OFFCURVE",
"181 100 CURVE SMOOTH"
);
}
);
vertWidth = 1000;
width = 808;
}
);
note = u1B193;
unicode = 1B193;
},
{
glyphname = u1B194;
layers = (
{
hints = (
{
place = "{523, 83}";
type = Stem;
}
);
layerId = "BCE9B1DB-4CCD-4D9A-B53B-B8E8A67648C8";
paths = (
{
closed = 1;
nodes = (
"500 421 LINE",
"557.95 479.04 OFFCURVE",
"609.61 539.71 OFFCURVE",
"655 603 CURVE",
"584 652 LINE",
"549.31 603.93 OFFCURVE",
"507.98 554.27 OFFCURVE",
"460 503 CURVE",
"409 608 LINE",
"497.87 712.41 OFFCURVE",
"563.53 837.08 OFFCURVE",
"606 982 CURVE",
"523 1000 LINE",
"491.33 885.73 OFFCURVE",
"439.66 783.06 OFFCURVE",
"368 692 CURVE",
"282 868 LINE",
"204 830 LINE",
"305 622 LINE",
"256.68 571.96 OFFCURVE",
"195.01 520.96 OFFCURVE",
"120 469 CURVE",
"165 399 LINE",
"233.52 443.43 OFFCURVE",
"293.52 490.76 OFFCURVE",
"345 541 CURVE",
"395 439 LINE",
"320.21 368.26 OFFCURVE",
"237.21 303.26 OFFCURVE",
"146 244 CURVE",
"190 172 LINE",
"275.39 226.69 OFFCURVE",
"356.72 289.03 OFFCURVE",
"434 359 CURVE",
"476 273 LINE",
"387.21 148.23 OFFCURVE",
"290.21 38.9 OFFCURVE",
"185 -55 CURVE",
"241 -120 LINE",
"340.59 -28.99 OFFCURVE",
"433.26 72.67 OFFCURVE",
"519 185 CURVE",
"610 -2 LINE",
"688 36 LINE"
);
}
);
vertWidth = 1000;
width = 808;
}
);
note = u1B194;
unicode = 1B194;
},
{
glyphname = u1B195;
layers = (
{
hints = (
{
place = "{119, 119}";
type = Stem;
},
{
place = "{406, 87}";
type = Stem;
},
{
place = "{570, 119}";
type = Stem;
},
{
place = "{423, 87}";
type = Stem;
},
{
horizontal = 1;
place = "{456, 129}";
type = Stem;
},
{
horizontal = 1;
place = "{391, 129}";
type = Stem;
}
);
layerId = "BCE9B1DB-4CCD-4D9A-B53B-B8E8A67648C8";
paths = (
{
closed = 1;
nodes = (
"406 998 LINE",
"406.34 826.53 OFFCURVE",
"392.57 676.98 OFFCURVE",
"364.67 549.35 CURVE SMOOTH",
"323.46 361.95 OFFCURVE",
"241.57 189.5 OFFCURVE",
"119 32 CURVE",
"184 -22 LINE",
"268.08 81.26 OFFCURVE",
"334.08 191.26 OFFCURVE",
"382 308 CURVE",
"411.99 176.11 OFFCURVE",
"425.66 33.78 OFFCURVE",
"423 -119 CURVE",
"510 -120 LINE",
"510.11 -108.11 OFFCURVE",
"510.14 -96.04 OFFCURVE",
"510.09 -83.8 CURVE SMOOTH",
"509.17 96.21 OFFCURVE",
"482.47 273.81 OFFCURVE",
"430 449 CURVE",
"471.84 601.18 OFFCURVE",
"492.84 784.85 OFFCURVE",
"493 1000 CURVE"
);
},
{
closed = 1;
nodes = (
"186.41 456.11 OFFCURVE",
"193.66 457.35 OFFCURVE",
"200.75 459.71 CURVE SMOOTH",
"225.58 468.9 OFFCURVE",
"238 489.33 OFFCURVE",
"238 521 CURVE SMOOTH",
"237.89 529.38 OFFCURVE",
"236.55 537.64 OFFCURVE",
"233.98 545.77 CURVE SMOOTH",
"224.94 571.93 OFFCURVE",
"206.61 585 OFFCURVE",
"179 585 CURVE SMOOTH",
"169.63 585 OFFCURVE",
"160.84 582.88 OFFCURVE",
"152.61 578.63 CURVE SMOOTH",
"130.2 567.06 OFFCURVE",
"119 547.85 OFFCURVE",
"119 521 CURVE SMOOTH",
"119.13 511.32 OFFCURVE",
"121 501.9 OFFCURVE",
"124.6 492.74 CURVE SMOOTH",
"135.03 468.25 OFFCURVE",
"153.17 456 OFFCURVE",
"179 456 CURVE SMOOTH"
);
},
{
closed = 1;
nodes = (
"620.63 520 OFFCURVE",
"611.84 517.88 OFFCURVE",
"603.61 513.63 CURVE SMOOTH",
"581.2 502.06 OFFCURVE",
"570 482.85 OFFCURVE",
"570 456 CURVE SMOOTH",
"570.13 446.32 OFFCURVE",
"572 436.9 OFFCURVE",
"575.6 427.74 CURVE SMOOTH",
"586.03 403.25 OFFCURVE",
"604.17 391 OFFCURVE",
"630 391 CURVE SMOOTH",
"637.41 391.11 OFFCURVE",
"644.66 392.35 OFFCURVE",
"651.75 394.71 CURVE SMOOTH",
"676.58 403.9 OFFCURVE",
"689 424.33 OFFCURVE",
"689 456 CURVE SMOOTH",
"688.89 464.38 OFFCURVE",
"687.55 472.64 OFFCURVE",
"684.98 480.77 CURVE SMOOTH",
"675.94 506.93 OFFCURVE",
"657.61 520 OFFCURVE",
"630 520 CURVE SMOOTH"
);
}
);
vertWidth = 1000;
width = 808;
}
);
note = u1B195;
unicode = 1B195;
},
{
glyphname = u1B196;
layers = (
{
hints = (
{
place = "{285, 85}";
type = Stem;
},
{
place = "{432, 82}";
type = Stem;
},
{
place = "{630, 82}";
type = Stem;
}
);
layerId = "BCE9B1DB-4CCD-4D9A-B53B-B8E8A67648C8";
paths = (
{
closed = 1;
nodes = (
"712 301 LINE",
"695.27 494.97 OFFCURVE",
"658.27 681.63 OFFCURVE",
"601 861 CURVE",
"529 859 LINE",
"427 594 LINE",
"404.82 648.34 OFFCURVE",
"375.49 705.68 OFFCURVE",
"339 766 CURVE",
"355.44 838.81 OFFCURVE",
"365.78 915.81 OFFCURVE",
"370 997 CURVE",
"285 1000 LINE",
"272.01 783.9 OFFCURVE",
"208.34 581.56 OFFCURVE",
"94 393 CURVE",
"163 348 LINE",
"224.56 446.65 OFFCURVE",
"271.89 546.31 OFFCURVE",
"305 647 CURVE",
"334.14 593.3 OFFCURVE",
"359.8 535.97 OFFCURVE",
"382 475 CURVE",
"209 24 LINE",
"286 -5 LINE",
"419 339 LINE",
"448.56 198.5 OFFCURVE",
"452.89 47.84 OFFCURVE",
"432 -113 CURVE",
"514 -120 LINE",
"539.17 94.53 OFFCURVE",
"524.84 291.86 OFFCURVE",
"471 472 CURVE",
"564 711 LINE",
"598.52 567.48 OFFCURVE",
"620.52 427.81 OFFCURVE",
"630 292 CURVE"
);
}
);
vertWidth = 1000;
width = 808;
}
);
note = u1B196;
unicode = 1B196;
},
{
glyphname = u1B197;
layers = (
{
hints = (
{
place = "{502, 83}";
type = Stem;
}
);
layerId = "BCE9B1DB-4CCD-4D9A-B53B-B8E8A67648C8";
paths = (
{
closed = 1;
nodes = (
"634 302 LINE",
"602.99 261.04 OFFCURVE",
"566.32 217.71 OFFCURVE",
"524 172 CURVE",
"463 298 LINE",
"513.15 353.25 OFFCURVE",
"559.49 411.92 OFFCURVE",
"602 474 CURVE",
"537 525 LINE",
"501.22 472.95 OFFCURVE",
"463.22 424.28 OFFCURVE",
"423 379 CURVE",
"367 494 LINE",
"478.14 630.25 OFFCURVE",
"550.8 795.92 OFFCURVE",
"585 991 CURVE",
"502 1000 LINE",
"471.13 836.46 OFFCURVE",
"412.13 696.8 OFFCURVE",
"325 581 CURVE",
"226 783 LINE",
"148 744 LINE",
"263 508 LINE",
"220.22 461.55 OFFCURVE",
"168.22 414.88 OFFCURVE",
"107 368 CURVE",
"156 300 LINE",
"209.58 337.8 OFFCURVE",
"258.91 379.13 OFFCURVE",
"304 424 CURVE",
"359 311 LINE",
"305.73 257.82 OFFCURVE",
"249.73 209.49 OFFCURVE",
"191 166 CURVE",
"237 100 LINE",
"291.01 137.98 OFFCURVE",
"344.68 181.98 OFFCURVE",
"398 232 CURVE",
"459 107 LINE",
"407.57 56.57 OFFCURVE",
"344.91 3.57 OFFCURVE",
"271 -52 CURVE",
"319 -120 LINE",
"464.43 -14.68 OFFCURVE",
"591.1 108.65 OFFCURVE",
"699 250 CURVE"
);
}
);
vertWidth = 1000;
width = 808;
}
);
note = u1B197;
unicode = 1B197;
},
{
glyphname = u1B198;
layers = (
{
hints = (
{
place = "{267, 87}";
type = Stem;
},
{
place = "{468, 85}";
type = Stem;
},
{
place = "{599, 82}";
type = Stem;
},
{
place = "{396, 82}";
type = Stem;
}
);
layerId = "BCE9B1DB-4CCD-4D9A-B53B-B8E8A67648C8";
paths = (
{
closed = 1;
nodes = (
"507.92 839.97 OFFCURVE",
"532.59 906.97 OFFCURVE",
"553 982 CURVE",
"468 1000 LINE",
"458.3 962.55 OFFCURVE",
"446.85 926.45 OFFCURVE",
"433.65 891.72 CURVE SMOOTH",
"373.4 734.15 OFFCURVE",
"268.52 599.91 OFFCURVE",
"119 489 CURVE",
"119 484 LINE",
"217.04 379.47 OFFCURVE",
"266.38 278.13 OFFCURVE",
"267 180 CURVE SMOOTH",
"266.76 96.08 OFFCURVE",
"236.09 12.42 OFFCURVE",
"175 -71 CURVE",
"249 -120 LINE",
"318.52 -25 OFFCURVE",
"353.52 75.33 OFFCURVE",
"354 181 CURVE SMOOTH",
"353.73 279.97 OFFCURVE",
"315.07 378.97 OFFCURVE",
"238 478 CURVE",
"318.81 545.02 OFFCURVE",
"385.47 621.35 OFFCURVE",
"438 707 CURVE",
"460.84 688.42 OFFCURVE",
"484.17 665.08 OFFCURVE",
"508 637 CURVE",
"434.01 567.56 OFFCURVE",
"396.68 493.9 OFFCURVE",
"396 416 CURVE SMOOTH",
"396.03 407.27 OFFCURVE",
"396.49 398.25 OFFCURVE",
"397.37 388.95 CURVE SMOOTH",
"406.52 299.01 OFFCURVE",
"455.73 225.03 OFFCURVE",
"545 167 CURVE",
"602 174 LINE",
"654.2 243.03 OFFCURVE",
"680.54 320.36 OFFCURVE",
"681 406 CURVE SMOOTH",
"680.9 444.18 OFFCURVE",
"675.08 482.87 OFFCURVE",
"663.54 522.05 CURVE SMOOTH",
"632.99 624.05 OFFCURVE",
"571.48 710.37 OFFCURVE",
"479 781 CURVE"
);
},
{
closed = 1;
nodes = (
"478.35 469.27 OFFCURVE",
"504.02 519.27 OFFCURVE",
"555 567 CURVE",
"583.99 512.84 OFFCURVE",
"598.66 458.5 OFFCURVE",
"599 404 CURVE SMOOTH",
"598.83 351.76 OFFCURVE",
"585.83 304.09 OFFCURVE",
"560 261 CURVE",
"506.04 304.58 OFFCURVE",
"478.7 356.58 OFFCURVE",
"478 417 CURVE SMOOTH"
);
}
);
vertWidth = 1000;
width = 808;
}
);
note = u1B198;
unicode = 1B198;
},
{
glyphname = u1B199;
layers = (
{
hints = (
{
place = "{390, 87}";
type = Stem;
},
{
place = "{376, 86}";
type = Stem;
}
);
layerId = "BCE9B1DB-4CCD-4D9A-B53B-B8E8A67648C8";
paths = (
{
closed = 1;
nodes = (
"498.74 523.17 OFFCURVE",
"572.74 431.83 OFFCURVE",
"631 333 CURVE",
"706 381 LINE",
"635.97 494.55 OFFCURVE",
"546.97 598.55 OFFCURVE",
"439 693 CURVE",
"463.17 777.47 OFFCURVE",
"475.83 879.8 OFFCURVE",
"477 1000 CURVE",
"390 1000 LINE",
"387.17 858.82 OFFCURVE",
"367.92 742.98 OFFCURVE",
"332.25 652.48 CURVE SMOOTH",
"289.76 545.58 OFFCURVE",
"213.67 452.42 OFFCURVE",
"104 373 CURVE",
"151 304 LINE",
"273.14 390.33 OFFCURVE",
"359.14 491.33 OFFCURVE",
"409 607 CURVE"
);
},
{
closed = 1;
nodes = (
"451.19 275.01 OFFCURVE",
"460.86 345.68 OFFCURVE",
"462 423 CURVE",
"376 425 LINE",
"374.11 343.6 OFFCURVE",
"362.61 272.1 OFFCURVE",
"341.51 210.51 CURVE SMOOTH",
"306.69 110.09 OFFCURVE",
"237.52 22.58 OFFCURVE",
"134 -52 CURVE",
"183 -120 LINE",
"284.88 -48.46 OFFCURVE",
"357.88 34.21 OFFCURVE",
"402 128 CURVE",
"479.73 53.2 OFFCURVE",
"547.06 -28.46 OFFCURVE",
"604 -117 CURVE",
"676 -69 LINE",
"606.38 34.23 OFFCURVE",
"525.38 127.56 OFFCURVE",
"433 211 CURVE"
);
}
);
vertWidth = 1000;
width = 808;
}
);
note = u1B199;
unicode = 1B199;
},
{
glyphname = u1B19A;
layers = (
{
hints = (
{
place = "{240, 87}";
type = Stem;
},
{
place = "{454.06, 85.94}";
type = Stem;
},
{
place = "{620, 85}";
type = Stem;
}
);
layerId = "BCE9B1DB-4CCD-4D9A-B53B-B8E8A67648C8";
paths = (
{
closed = 1;
nodes = (
"620 393 LINE",
"608.15 282.54 OFFCURVE",
"588.15 186.2 OFFCURVE",
"560 104 CURVE",
"407 417 LINE",
"424.6 443.65 OFFCURVE",
"440.55 471.15 OFFCURVE",
"454.85 499.52 CURVE SMOOTH",
"521.48 632.64 OFFCURVE",
"549.86 799.47 OFFCURVE",
"540 1000 CURVE",
"455 996 LINE",
"458.35 934.15 OFFCURVE",
"458.04 877.02 OFFCURVE",
"454.06 824.6 CURVE SMOOTH",
"442.83 680.16 OFFCURVE",
"397.14 551.63 OFFCURVE",
"317 439 CURVE",
"299.16 545.26 OFFCURVE",
"258.16 659.26 OFFCURVE",
"194 781 CURVE",
"118 740 LINE",
"198.95 587.55 OFFCURVE",
"239.61 445.22 OFFCURVE",
"240 313 CURVE SMOOTH",
"239.85 183.76 OFFCURVE",
"207.18 51.76 OFFCURVE",
"142 -83 CURVE",
"221 -120 LINE",
"291.32 26.6 OFFCURVE",
"326.65 170.93 OFFCURVE",
"327 313 CURVE",
"348 337 LINE",
"525 -28 LINE",
"595 -29 LINE",
"650.26 85.65 OFFCURVE",
"686.93 223.32 OFFCURVE",
"705 384 CURVE"
);
}
);
vertWidth = 1000;
width = 808;
}
);
note = u1B19A;
unicode = 1B19A;
},
{
glyphname = u1B19B;
layers = (
{
hints = (
{
horizontal = 1;
place = "{239, 124}";
type = Stem;
},
{
horizontal = 1;
place = "{438, 124}";
type = Stem;
},
{
place = "{128, 117}";
type = Stem;
},
{
place = "{604, 85}";
type = Stem;
},
{
place = "{586, 83}";
type = Stem;
}
);
layerId = "BCE9B1DB-4CCD-4D9A-B53B-B8E8A67648C8";
paths = (
{
closed = 1;
nodes = (
"604 1000 LINE",
"580.55 810.06 OFFCURVE",
"537.22 641.39 OFFCURVE",
"474 494 CURVE",
"425.19 608.79 OFFCURVE",
"372.86 714.79 OFFCURVE",
"317 812 CURVE",
"243 768 LINE",
"310.66 646.93 OFFCURVE",
"370.99 520.27 OFFCURVE",
"424 388 CURVE",
"359.05 266.34 OFFCURVE",
"276.72 154.01 OFFCURVE",
"177 51 CURVE",
"236 -11 LINE",
"326.72 79.86 OFFCURVE",
"403.05 177.19 OFFCURVE",
"465 281 CURVE",
"512.68 148.22 OFFCURVE",
"553.02 14.55 OFFCURVE",
"586 -120 CURVE",
"669 -96 LINE",
"626.32 71.6 OFFCURVE",
"576.32 230.93 OFFCURVE",
"519 382 CURVE",
"604.03 555.28 OFFCURVE",
"660.7 758.28 OFFCURVE",
"689 991 CURVE"
);
},
{
closed = 1;
nodes = (
"195.34 438.14 OFFCURVE",
"203.48 439.88 OFFCURVE",
"211.44 443.21 CURVE SMOOTH",
"233.82 453.51 OFFCURVE",
"245 472.1 OFFCURVE",
"245 499 CURVE SMOOTH",
"244.88 507.64 OFFCURVE",
"243.41 516.1 OFFCURVE",
"240.59 524.39 CURVE SMOOTH",
"231.24 549.46 OFFCURVE",
"213.38 562 OFFCURVE",
"187 562 CURVE SMOOTH",
"178.61 561.85 OFFCURVE",
"170.34 560 OFFCURVE",
"162.19 556.46 CURVE SMOOTH",
"139.4 545.6 OFFCURVE",
"128 526.45 OFFCURVE",
"128 499 CURVE SMOOTH",
"128.14 490.07 OFFCURVE",
"130.03 481.28 OFFCURVE",
"133.65 472.64 CURVE SMOOTH",
"144.18 449.55 OFFCURVE",
"161.96 438 OFFCURVE",
"187 438 CURVE SMOOTH"
);
},
{
closed = 1;
nodes = (
"244.87 309.18 OFFCURVE",
"243.16 318.12 OFFCURVE",
"239.85 326.82 CURVE SMOOTH",
"229.88 350.94 OFFCURVE",
"211.93 363 OFFCURVE",
"186 363 CURVE SMOOTH",
"177.66 362.84 OFFCURVE",
"169.44 360.94 OFFCURVE",
"161.37 357.3 CURVE SMOOTH",
"139.13 346.29 OFFCURVE",
"128 327.19 OFFCURVE",
"128 300 CURVE SMOOTH",
"128.14 291.29 OFFCURVE",
"129.96 282.65 OFFCURVE",
"133.46 274.07 CURVE SMOOTH",
"143.84 250.69 OFFCURVE",
"161.35 239 OFFCURVE",
"186 239 CURVE SMOOTH",
"194.86 239.16 OFFCURVE",
"203.52 241.17 OFFCURVE",
"211.98 245.03 CURVE SMOOTH",
"233.99 256 OFFCURVE",
"245 274.32 OFFCURVE",
"245 300 CURVE SMOOTH"
);
}
);
vertWidth = 1000;
width = 808;
}
);
note = u1B19B;
unicode = 1B19B;
},
{
glyphname = u1B19C;
layers = (
{
hints = (
{
place = "{208, 87}";
type = Stem;
},
{
place = "{478, 86}";
type = Stem;
},
{
place = "{514, 83}";
type = Stem;
}
);
layerId = "BCE9B1DB-4CCD-4D9A-B53B-B8E8A67648C8";
paths = (
{
closed = 1;
nodes = (
"478 1000 LINE",
"473.79 779.95 OFFCURVE",
"443.46 599.95 OFFCURVE",
"387 460 CURVE",
"243 801 LINE",
"163 767 LINE",
"346 341 LINE",
"418 335 LINE",
"512.01 508.58 OFFCURVE",
"560.68 730.25 OFFCURVE",
"564 1000 CURVE"
);
},
{
closed = 1;
nodes = (
"625 529 LINE",
"551.54 437.07 OFFCURVE",
"514.54 342.07 OFFCURVE",
"514 244 CURVE SMOOTH",
"514.23 153.12 OFFCURVE",
"547.9 61.45 OFFCURVE",
"615 -31 CURVE",
"681 26 LINE",
"625.5 100.95 OFFCURVE",
"597.5 173.61 OFFCURVE",
"597 244 CURVE SMOOTH",
"597.25 318.9 OFFCURVE",
"628.25 395.9 OFFCURVE",
"690 475 CURVE"
);
},
{
closed = 1;
nodes = (
"119 381 LINE",
"177.81 306.19 OFFCURVE",
"207.48 229.53 OFFCURVE",
"208 151 CURVE SMOOTH",
"207.78 77.69 OFFCURVE",
"182.78 3.36 OFFCURVE",
"133 -72 CURVE",
"199 -120 LINE",
"262.52 -37.52 OFFCURVE",
"294.52 52.48 OFFCURVE",
"295 150 CURVE SMOOTH",
"294.74 253.56 OFFCURVE",
"258.08 348.56 OFFCURVE",
"185 435 CURVE"
);
}
);
vertWidth = 1000;
width = 808;
}
);
note = u1B19C;
unicode = 1B19C;
},
{
glyphname = u1B19D;
layers = (
{
hints = (
{
place = "{381, 88}";
type = Stem;
}
);
layerId = "BCE9B1DB-4CCD-4D9A-B53B-B8E8A67648C8";
paths = (
{
closed = 1;
nodes = (
"720 337 LINE",
"643.26 465.95 OFFCURVE",
"545.92 583.62 OFFCURVE",
"428 690 CURVE",
"453.22 780.12 OFFCURVE",
"466.88 883.12 OFFCURVE",
"469 999 CURVE",
"381 1000 LINE",
"378.79 865.04 OFFCURVE",
"359.78 750.32 OFFCURVE",
"323.96 655.83 CURVE SMOOTH",
"280.8 542.91 OFFCURVE",
"203.82 441.3 OFFCURVE",
"93 351 CURVE",
"144 282 LINE",
"178.11 307.9 OFFCURVE",
"211.77 337.9 OFFCURVE",
"245 372 CURVE",
"288.01 324.81 OFFCURVE",
"327.68 274.81 OFFCURVE",
"364 222 CURVE",
"292.59 118.57 OFFCURVE",
"205.26 28.57 OFFCURVE",
"102 -48 CURVE",
"151 -120 LINE",
"254.81 -45.24 OFFCURVE",
"343.14 42.09 OFFCURVE",
"416 142 CURVE",
"461.31 68.61 OFFCURVE",
"500.97 -9.39 OFFCURVE",
"535 -92 CURVE",
"615 -57 LINE",
"575.6 40.31 OFFCURVE",
"527.27 133.31 OFFCURVE",
"470 222 CURVE",
"507.23 282.09 OFFCURVE",
"539.89 345.42 OFFCURVE",
"568 412 CURVE",
"595.09 375.17 OFFCURVE",
"621.42 334.83 OFFCURVE",
"647 291 CURVE"
);
},
{
closed = 1;
nodes = (
"380.13 347.73 OFFCURVE",
"342.8 393.07 OFFCURVE",
"302 437 CURVE",
"341.23 487.47 OFFCURVE",
"373.23 543.13 OFFCURVE",
"398 604 CURVE",
"434.71 569.11 OFFCURVE",
"471.05 531.11 OFFCURVE",
"507 490 CURVE",
"479 422 OFFCURVE",
"448 359 OFFCURVE",
"414 301 CURVE"
);
}
);
vertWidth = 1000;
width = 808;
}
);
note = u1B19D;
unicode = 1B19D;
},
{
glyphname = u1B19E;
layers = (
{
hints = (
{
place = "{352, 86}";
type = Stem;
},
{
place = "{503, 82}";
type = Stem;
}
);
layerId = "BCE9B1DB-4CCD-4D9A-B53B-B8E8A67648C8";
paths = (
{
closed = 1;
nodes = (
"624 247 LINE",
"568.25 172.49 OFFCURVE",
"502.25 99.15 OFFCURVE",
"426 27 CURVE",
"433.93 96.73 OFFCURVE",
"437.93 171.06 OFFCURVE",
"438 250 CURVE",
"503.92 319.84 OFFCURVE",
"566.25 396.84 OFFCURVE",
"625 481 CURVE",
"554 528 LINE",
"518.23 475.97 OFFCURVE",
"478.57 424.63 OFFCURVE",
"435 374 CURVE",
"431.96 435.33 OFFCURVE",
"426.96 498.99 OFFCURVE",
"420 565 CURVE",
"501.92 685.76 OFFCURVE",
"556.92 827.43 OFFCURVE",
"585 990 CURVE",
"503 1000 LINE",
"492.51 936.42 OFFCURVE",
"477.17 876.4 OFFCURVE",
"456.98 819.91 CURVE SMOOTH",
"396.31 651.32 OFFCURVE",
"282.65 503.68 OFFCURVE",
"116 377 CURVE",
"163 310 LINE",
"231.62 358.16 OFFCURVE",
"291.96 411.16 OFFCURVE",
"344 469 CURVE",
"349.53 411.56 OFFCURVE",
"352.86 350.89 OFFCURVE",
"354 287 CURVE",
"289.87 222.95 OFFCURVE",
"227.87 168.61 OFFCURVE",
"168 124 CURVE",
"216 55 LINE",
"263.88 88.69 OFFCURVE",
"309.21 125.35 OFFCURVE",
"352 165 CURVE",
"349 80 OFFCURVE",
"340 -3 OFFCURVE",
"325 -84 CURVE",
"386 -120 LINE",
"504.69 -20.77 OFFCURVE",
"606.69 84.23 OFFCURVE",
"692 195 CURVE"
);
}
);
vertWidth = 1000;
width = 808;
}
);
note = u1B19E;
unicode = 1B19E;
},
{
glyphname = u1B19F;
layers = (
{
hints = (
{
place = "{166, 87}";
type = Stem;
},
{
place = "{520, 87}";
type = Stem;
},
{
place = "{561, 86}";
type = Stem;
}
);
layerId = "BCE9B1DB-4CCD-4D9A-B53B-B8E8A67648C8";
paths = (
{
closed = 1;
nodes = (
"743 11 LINE",
"691.89 89.57 OFFCURVE",
"634.89 160.9 OFFCURVE",
"572 225 CURVE",
"595.09 282.14 OFFCURVE",
"606.76 347.47 OFFCURVE",
"607 421 CURVE SMOOTH",
"606.9 499.42 OFFCURVE",
"592.57 586.09 OFFCURVE",
"564 681 CURVE",
"601.6 778.74 OFFCURVE",
"629.26 880.4 OFFCURVE",
"647 986 CURVE",
"561 1000 LINE",
"517.07 752.43 OFFCURVE",
"421.4 541.1 OFFCURVE",
"274 366 CURVE",
"274 362 LINE",
"348.36 308.06 OFFCURVE",
"410.7 257.4 OFFCURVE",
"461 210 CURVE",
"410.69 126.95 OFFCURVE",
"317.36 42.61 OFFCURVE",
"181 -43 CURVE",
"223 -120 LINE",
"367.33 -36.22 OFFCURVE",
"469.66 51.45 OFFCURVE",
"530 143 CURVE",
"585.82 83.01 OFFCURVE",
"632.82 22.34 OFFCURVE",
"671 -39 CURVE"
);
},
{
closed = 1;
nodes = (
"437.71 432.71 OFFCURVE",
"474.04 491.38 OFFCURVE",
"505 552 CURVE",
"514.84 508.43 OFFCURVE",
"519.84 467.1 OFFCURVE",
"520 428 CURVE SMOOTH",
"519.9 381.46 OFFCURVE",
"513.23 336.46 OFFCURVE",
"500 293 CURVE",
"474.31 315.52 OFFCURVE",
"439.65 343.18 OFFCURVE",
"396 376 CURVE"
);
},
{
closed = 1;
nodes = (
"205 79 LINE",
"236.72 148.21 OFFCURVE",
"252.72 216.21 OFFCURVE",
"253 283 CURVE SMOOTH",
"252.83 373.74 OFFCURVE",
"232.83 455.41 OFFCURVE",
"193 528 CURVE",
"117 488 LINE",
"149.34 422.95 OFFCURVE",
"165.68 354.95 OFFCURVE",
"166 284 CURVE SMOOTH",
"165.85 226.09 OFFCURVE",
"153.19 167.09 OFFCURVE",
"128 107 CURVE"
);
}
);
vertWidth = 1000;
width = 808;
}
);
note = u1B19F;
unicode = 1B19F;
},
{
glyphname = u1B1A0;
layers = (
{
hints = (
{
place = "{279, 90}";
type = Stem;
},
{
place = "{392, 87}";
type = Stem;
},
{
place = "{627, 86}";
type = Stem;
}
);
layerId = "BCE9B1DB-4CCD-4D9A-B53B-B8E8A67648C8";
paths = (
{
closed = 1;
nodes = (
"713 347 LINE",
"698.22 540.22 OFFCURVE",
"662.55 724.89 OFFCURVE",
"606 901 CURVE",
"529 897 LINE",
"499.49 770.62 OFFCURVE",
"467.49 650.95 OFFCURVE",
"433 538 CURVE",
"411.89 609.06 OFFCURVE",
"382.56 676.39 OFFCURVE",
"345 740 CURVE",
"359.89 822.72 OFFCURVE",
"367.89 909.06 OFFCURVE",
"369 999 CURVE",
"279 1000 LINE",
"270.77 739.51 OFFCURVE",
"208.44 506.17 OFFCURVE",
"92 300 CURVE",
"165 256 LINE",
"228.45 361.62 OFFCURVE",
"278.12 476.62 OFFCURVE",
"314 601 CURVE",
"365.73 487.4 OFFCURVE",
"391.73 357.07 OFFCURVE",
"392 210 CURVE SMOOTH",
"391.92 109.31 OFFCURVE",
"379.92 5.31 OFFCURVE",
"356 -102 CURVE",
"444 -120 LINE",
"467.18 -14.44 OFFCURVE",
"478.84 95.56 OFFCURVE",
"479 210 CURVE SMOOTH",
"478.96 263.3 OFFCURVE",
"475.96 314.63 OFFCURVE",
"470 364 CURVE",
"500.86 459.91 OFFCURVE",
"535.2 576.91 OFFCURVE",
"573 715 CURVE",
"600.96 587.94 OFFCURVE",
"618.96 461.94 OFFCURVE",
"627 337 CURVE"
);
}
);
vertWidth = 1000;
width = 808;
}
);
note = u1B1A0;
unicode = 1B1A0;
},
{
glyphname = u1B1A1;
layers = (
{
hints = (
{
horizontal = 1;
place = "{504, 131}";
type = Stem;
},
{
place = "{142, 121}";
type = Stem;
},
{
place = "{465, 89}";
type = Stem;
},
{
place = "{637, 84}";
type = Stem;
}
);
layerId = "BCE9B1DB-4CCD-4D9A-B53B-B8E8A67648C8";
paths = (
{
closed = 1;
nodes = (
"637 326 LINE",
"608.72 214.19 OFFCURVE",
"570.39 108.19 OFFCURVE",
"522 8 CURVE",
"377 308 LINE",
"382.79 318.19 OFFCURVE",
"388.61 328.79 OFFCURVE",
"394.47 339.79 CURVE SMOOTH",
"489.03 518.13 OFFCURVE",
"542.2 737.54 OFFCURVE",
"554 998 CURVE",
"465 1000 LINE",
"459.52 847.64 OFFCURVE",
"439.98 713.96 OFFCURVE",
"406.39 598.95 CURVE SMOOTH",
"355.02 424.12 OFFCURVE",
"258.23 258.13 OFFCURVE",
"116 101 CURVE",
"175 43 LINE",
"227.5 96.54 OFFCURVE",
"276.17 155.21 OFFCURVE",
"321 219 CURVE",
"483 -119 LINE",
"549 -120 LINE",
"561.01 -101.08 OFFCURVE",
"573.32 -79.61 OFFCURVE",
"585.92 -55.57 CURVE SMOOTH",
"643.16 54.23 OFFCURVE",
"688.19 174.75 OFFCURVE",
"721 306 CURVE"
);
},
{
closed = 1;
nodes = (
"211.48 504.13 OFFCURVE",
"219.7 505.78 OFFCURVE",
"227.64 508.94 CURVE SMOOTH",
"251.21 519.26 OFFCURVE",
"263 539.28 OFFCURVE",
"263 569 CURVE SMOOTH",
"262.9 577.55 OFFCURVE",
"261.59 585.95 OFFCURVE",
"259.07 594.2 CURVE SMOOTH",
"250.01 621.4 OFFCURVE",
"231.32 635 OFFCURVE",
"203 635 CURVE SMOOTH",
"194.03 634.85 OFFCURVE",
"185.26 632.83 OFFCURVE",
"176.72 628.95 CURVE SMOOTH",
"153.58 617.5 OFFCURVE",
"142 597.52 OFFCURVE",
"142 569 CURVE SMOOTH",
"142.14 558.99 OFFCURVE",
"144.22 549.25 OFFCURVE",
"148.24 539.77 CURVE SMOOTH",
"159.16 515.92 OFFCURVE",
"177.41 504 OFFCURVE",
"203 504 CURVE SMOOTH"
);
}
);
vertWidth = 1000;
width = 808;
}
);
note = u1B1A1;
unicode = 1B1A1;
},
{
glyphname = u1B1A2;
layers = (
{
hints = (
{
place = "{491, 87}";
type = Stem;
}
);
layerId = "BCE9B1DB-4CCD-4D9A-B53B-B8E8A67648C8";
paths = (
{
closed = 1;
nodes = (
"622 470 LINE",
"599.19 405.5 OFFCURVE",
"571.19 337.83 OFFCURVE",
"538 267 CURVE",
"450 412 LINE",
"519.92 588.07 OFFCURVE",
"562.59 782.07 OFFCURVE",
"578 994 CURVE",
"491 1000 LINE",
"476.58 819.65 OFFCURVE",
"443.58 655.65 OFFCURVE",
"392 508 CURVE",
"251 743 LINE",
"175 698 LINE",
"352 404 LINE",
"329.25 351.36 OFFCURVE",
"304.59 301.69 OFFCURVE",
"278 255 CURVE",
"189 436 LINE",
"108 398 LINE",
"358 -113 LINE",
"407 -120 LINE",
"413.95 -110.69 OFFCURVE",
"421.12 -100.86 OFFCURVE",
"428.51 -90.51 CURVE SMOOTH",
"539.34 65.09 OFFCURVE",
"630.84 242.26 OFFCURVE",
"703 441 CURVE"
);
},
{
closed = 1;
nodes = (
"326 158 LINE",
"354.45 205.5 OFFCURVE",
"381.45 256.84 OFFCURVE",
"407 312 CURVE",
"491 173 LINE",
"460.02 114.23 OFFCURVE",
"428.36 61.23 OFFCURVE",
"396 14 CURVE"
);
}
);
vertWidth = 1000;
width = 808;
}
);
note = u1B1A2;
unicode = 1B1A2;
},
{
glyphname = u1B1A3;
layers = (
{
hints = (
{
horizontal = 1;
place = "{235, 80}";
type = Stem;
},
{
place = "{424, 90}";
type = Stem;
},
{
place = "{473, 85}";
type = Stem;
}
);
layerId = "BCE9B1DB-4CCD-4D9A-B53B-B8E8A67648C8";
paths = (
{
closed = 1;
nodes = (
"513.92 423.77 OFFCURVE",
"508.25 467.1 OFFCURVE",
"497 509 CURVE",
"566.07 558.56 OFFCURVE",
"629.73 611.89 OFFCURVE",
"688 669 CURVE",
"627 732 LINE",
"579.97 685.99 OFFCURVE",
"527.3 640.66 OFFCURVE",
"469 596 CURVE",
"453.14 633.31 OFFCURVE",
"436.8 666.65 OFFCURVE",
"420 696 CURVE",
"500.24 775.53 OFFCURVE",
"559.24 867.19 OFFCURVE",
"597 971 CURVE",
"516 1000 LINE",
"511.25 987.76 OFFCURVE",
"506.08 975.43 OFFCURVE",
"500.49 962.99 CURVE SMOOTH",
"431.69 811.06 OFFCURVE",
"305.86 688.73 OFFCURVE",
"123 596 CURVE",
"162 521 LINE",
"231.83 554.07 OFFCURVE",
"294.5 592.07 OFFCURVE",
"350 635 CURVE",
"367 604 OFFCURVE",
"381 573 OFFCURVE",
"392 542 CURVE",
"326.53 499.97 OFFCURVE",
"253.53 459.31 OFFCURVE",
"173 420 CURVE",
"209 344 LINE",
"286.18 379.42 OFFCURVE",
"355.18 416.42 OFFCURVE",
"416 455 CURVE",
"421.21 425.59 OFFCURVE",
"423.88 398.92 OFFCURVE",
"424 375 CURVE SMOOTH",
"423.82 323.07 OFFCURVE",
"410.82 274.4 OFFCURVE",
"385 229 CURVE",
"333.9 269.47 OFFCURVE",
"275.23 298.14 OFFCURVE",
"209 315 CURVE",
"184 235 LINE",
"239.44 219 OFFCURVE",
"288.1 193.33 OFFCURVE",
"330 158 CURVE",
"279.51 107.77 OFFCURVE",
"209.51 65.1 OFFCURVE",
"120 30 CURVE",
"150 -53 LINE",
"250.42 -16.05 OFFCURVE",
"330.75 32.28 OFFCURVE",
"391 92 CURVE",
"436.09 31.54 OFFCURVE",
"463.43 -39.13 OFFCURVE",
"473 -120 CURVE",
"558 -105 LINE",
"545.36 0.79 OFFCURVE",
"509.36 90.13 OFFCURVE",
"450 163 CURVE",
"492.28 227.79 OFFCURVE",
"513.61 299.79 OFFCURVE",
"514 379 CURVE SMOOTH"
);
}
);
vertWidth = 1000;
width = 808;
}
);
note = u1B1A3;
unicode = 1B1A3;
},
{
glyphname = u1B1A4;
layers = (
{
layerId = "BCE9B1DB-4CCD-4D9A-B53B-B8E8A67648C8";
paths = (
{
closed = 1;
nodes = (
"622 681 LINE",
"555.28 600.57 OFFCURVE",
"490.94 530.23 OFFCURVE",
"429 470 CURVE",
"360 612 LINE",
"482.1 730.3 OFFCURVE",
"570.77 846.3 OFFCURVE",
"626 960 CURVE",
"545 1000 LINE",
"483.16 871.51 OFFCURVE",
"384.83 747.84 OFFCURVE",
"250 629 CURVE",
"359 405 LINE",
"288.76 341.56 OFFCURVE",
"209.09 277.9 OFFCURVE",
"120 214 CURVE",
"166 143 LINE",
"243.3 198 OFFCURVE",
"320.3 259 OFFCURVE",
"397 326 CURVE",
"460 195 LINE",
"377.12 112.22 OFFCURVE",
"282.45 32.22 OFFCURVE",
"176 -45 CURVE",
"226 -120 LINE",
"351.71 -28.75 OFFCURVE",
"467.38 69.58 OFFCURVE",
"573 175 CURVE",
"468 391 LINE",
"546.72 466.76 OFFCURVE",
"620.05 545.42 OFFCURVE",
"688 627 CURVE"
);
}
);
vertWidth = 1000;
width = 808;
}
);
note = u1B1A4;
unicode = 1B1A4;
},
{
glyphname = u1B1A5;
layers = (
{
hints = (
{
place = "{486, 86}";
type = Stem;
}
);
layerId = "BCE9B1DB-4CCD-4D9A-B53B-B8E8A67648C8";
paths = (
{
closed = 1;
nodes = (
"617 586 LINE",
"589.22 547.78 OFFCURVE",
"557.22 509.45 OFFCURVE",
"521 471 CURVE",
"497.32 531.96 OFFCURVE",
"465.66 594.3 OFFCURVE",
"426 658 CURVE",
"491.76 745.92 OFFCURVE",
"542.43 852.92 OFFCURVE",
"578 979 CURVE",
"493 1000 LINE",
"477.6 944.11 OFFCURVE",
"458.42 892.22 OFFCURVE",
"435.48 844.34 CURVE SMOOTH",
"373.93 716.71 OFFCURVE",
"273.1 603.27 OFFCURVE",
"133 504 CURVE",
"133 499 LINE",
"199.84 408.24 OFFCURVE",
"233.51 316.24 OFFCURVE",
"234 223 CURVE SMOOTH",
"234 125 OFFCURVE",
"204 25 OFFCURVE",
"144 -77 CURVE",
"219 -120 LINE",
"280.67 -15.57 OFFCURVE",
"314.67 88.43 OFFCURVE",
"321 192 CURVE",
"379.11 230.44 OFFCURVE",
"430.78 268.44 OFFCURVE",
"476 306 CURVE",
"482.55 269.16 OFFCURVE",
"485.88 229.49 OFFCURVE",
"486 187 CURVE SMOOTH",
"485.93 128.38 OFFCURVE",
"479.26 63.05 OFFCURVE",
"466 -9 CURVE",
"551 -22 LINE",
"565 52 OFFCURVE",
"572 122 OFFCURVE",
"572 188 CURVE SMOOTH",
"571.93 251.62 OFFCURVE",
"564.93 313.62 OFFCURVE",
"551 374 CURVE",
"599.49 421.63 OFFCURVE",
"645.82 475.63 OFFCURVE",
"690 536 CURVE"
);
},
{
closed = 1;
nodes = (
"306.46 362.47 OFFCURVE",
"283.8 423.47 OFFCURVE",
"249 481 CURVE",
"288.57 511.66 OFFCURVE",
"327.57 546.66 OFFCURVE",
"366 586 CURVE",
"404.55 521.27 OFFCURVE",
"432.89 460.6 OFFCURVE",
"451 404 CURVE",
"413.15 369.92 OFFCURVE",
"368.48 334.58 OFFCURVE",
"317 298 CURVE"
);
}
);
vertWidth = 1000;
width = 808;
}
);
note = u1B1A5;
unicode = 1B1A5;
},
{
glyphname = u1B1A6;
layers = (
{
hints = (
{
place = "{455, 81}";
type = Stem;
},
{
place = "{465, 82}";
type = Stem;
}
);
layerId = "BCE9B1DB-4CCD-4D9A-B53B-B8E8A67648C8";
paths = (
{
closed = 1;
nodes = (
"700 188 LINE",
"671.19 274.19 OFFCURVE",
"633.86 358.19 OFFCURVE",
"588 440 CURVE",
"624.55 512.17 OFFCURVE",
"656.21 584.83 OFFCURVE",
"683 658 CURVE",
"605 688 LINE",
"585 634 OFFCURVE",
"562 580 OFFCURVE",
"536 526 CURVE",
"506.5 571.34 OFFCURVE",
"478.83 610.01 OFFCURVE",
"453 642 CURVE",
"493.32 741.27 OFFCURVE",
"524.65 856.94 OFFCURVE",
"547 989 CURVE",
"465 1000 LINE",
"445.87 891.09 OFFCURVE",
"421.2 796.76 OFFCURVE",
"391 717 CURVE",
"347.12 766.78 OFFCURVE",
"300.45 813.44 OFFCURVE",
"251 857 CURVE",
"195 796 LINE",
"248.93 746.71 OFFCURVE",
"302.26 691.05 OFFCURVE",
"355 629 CURVE",
"336.34 588.81 OFFCURVE",
"315 548.14 OFFCURVE",
"291 507 CURVE",
"259.09 546.12 OFFCURVE",
"219.76 589.12 OFFCURVE",
"173 636 CURVE",
"116 576 LINE",
"166.46 523.34 OFFCURVE",
"208.46 475.34 OFFCURVE",
"242 432 CURVE",
"204.81 380.01 OFFCURVE",
"164.81 330.68 OFFCURVE",
"122 284 CURVE",
"179 226 LINE",
"223.28 271.39 OFFCURVE",
"261.62 316.06 OFFCURVE",
"294 360 CURVE",
"321.41 319.86 OFFCURVE",
"344.07 281.53 OFFCURVE",
"362 245 CURVE",
"319 187.75 OFFCURVE",
"273 133.08 OFFCURVE",
"224 81 CURVE",
"280 21 LINE",
"324.36 65.43 OFFCURVE",
"365.03 110.43 OFFCURVE",
"402 156 CURVE",
"434.21 68.13 OFFCURVE",
"451.87 -23.87 OFFCURVE",
"455 -120 CURVE",
"536 -113 LINE",
"528.92 13.64 OFFCURVE",
"503.92 128.97 OFFCURVE",
"461 233 CURVE",
"489.15 273.27 OFFCURVE",
"515.49 313.93 OFFCURVE",
"540 355 CURVE",
"573.39 290.12 OFFCURVE",
"601.06 224.45 OFFCURVE",
"623 158 CURVE"
);
},
{
closed = 1;
nodes = (
"398.9 356.37 OFFCURVE",
"375.23 393.7 OFFCURVE",
"346 435 CURVE",
"368.44 468.75 OFFCURVE",
"391.1 508.42 OFFCURVE",
"414 554 CURVE",
"445.38 510.97 OFFCURVE",
"471.05 473.3 OFFCURVE",
"491 441 CURVE",
"466.08 397.71 OFFCURVE",
"441.41 358.38 OFFCURVE",
"417 323 CURVE"
);
}
);
vertWidth = 1000;
width = 808;
}
);
note = u1B1A6;
unicode = 1B1A6;
},
{
glyphname = u1B1A7;
layers = (
{
hints = (
{
place = "{462, 85}";
type = Stem;
}
);
layerId = "BCE9B1DB-4CCD-4D9A-B53B-B8E8A67648C8";
paths = (
{
closed = 1;
nodes = (
"625 337 LINE",
"594.03 293.91 OFFCURVE",
"556.03 246.57 OFFCURVE",
"511 195 CURVE",
"456 309 LINE",
"511.22 374.99 OFFCURVE",
"560.89 445.65 OFFCURVE",
"605 521 CURVE",
"533 563 LINE",
"499.01 505.44 OFFCURVE",
"459.68 448.77 OFFCURVE",
"415 393 CURVE",
"358 511 LINE",
"455.84 641.46 OFFCURVE",
"518.84 801.46 OFFCURVE",
"547 991 CURVE",
"462 1000 LINE",
"455.52 951.69 OFFCURVE",
"446.29 905.31 OFFCURVE",
"434.31 860.86 CURVE SMOOTH",
"384.12 676 OFFCURVE",
"277.68 517.38 OFFCURVE",
"115 385 CURVE",
"165 318 LINE",
"210.32 352.33 OFFCURVE",
"253.99 391.99 OFFCURVE",
"296 437 CURVE",
"352 321 LINE",
"307.02 270.39 OFFCURVE",
"254.68 220.39 OFFCURVE",
"195 171 CURVE",
"245 105 LINE",
"295.32 144.76 OFFCURVE",
"344.32 189.42 OFFCURVE",
"392 239 CURVE",
"447 126 LINE",
"385.03 62.05 OFFCURVE",
"319.03 2.38 OFFCURVE",
"249 -53 CURVE",
"296 -120 LINE",
"442.28 -8.21 OFFCURVE",
"574.61 128.12 OFFCURVE",
"693 289 CURVE"
);
}
);
vertWidth = 1000;
width = 808;
}
);
note = u1B1A7;
unicode = 1B1A7;
},
{
glyphname = u1B1A8;
layers = (
{
hints = (
{
horizontal = 1;
place = "{-48, 120}";
type = Stem;
},
{
horizontal = 1;
place = "{130, 120}";
type = Stem;
},
{
place = "{177, 113}";
type = Stem;
},
{
place = "{394, 86}";
type = Stem;
},
{
place = "{525, 82}";
type = Stem;
},
{
place = "{578, 112}";
type = Stem;
}
);
layerId = "BCE9B1DB-4CCD-4D9A-B53B-B8E8A67648C8";
paths = (
{
closed = 1;
nodes = (
"587 566 LINE",
"542.96 514.75 OFFCURVE",
"492.63 466.08 OFFCURVE",
"436 420 CURVE",
"422.79 467.03 OFFCURVE",
"405.12 518.03 OFFCURVE",
"383 573 CURVE",
"503.53 688.88 OFFCURVE",
"578.2 827.21 OFFCURVE",
"607 988 CURVE",
"525 1000 LINE",
"516.02 952.64 OFFCURVE",
"502.63 907.48 OFFCURVE",
"484.84 864.52 CURVE SMOOTH",
"423.17 717 OFFCURVE",
"300.23 590.16 OFFCURVE",
"116 484 CURVE",
"154 412 LINE",
"211.37 441.26 OFFCURVE",
"264.37 474.93 OFFCURVE",
"313 513 CURVE",
"332.61 463.86 OFFCURVE",
"348.61 414.19 OFFCURVE",
"361 364 CURVE",
"300.72 320.34 OFFCURVE",
"234.39 280.34 OFFCURVE",
"162 244 CURVE",
"198 168 LINE",
"262.1 199.63 OFFCURVE",
"322.76 234.63 OFFCURVE",
"380 273 CURVE",
"389.22 218.4 OFFCURVE",
"393.89 166.07 OFFCURVE",
"394 116 CURVE SMOOTH",
"394 44.56 OFFCURVE",
"387.67 -31.1 OFFCURVE",
"375 -111 CURVE",
"460 -120 LINE",
"473.21 -43.02 OFFCURVE",
"479.87 36.31 OFFCURVE",
"480 118 CURVE SMOOTH",
"479.93 188.59 OFFCURVE",
"472.6 259.26 OFFCURVE",
"458 330 CURVE",
"522.04 379.45 OFFCURVE",
"586.04 439.45 OFFCURVE",
"650 510 CURVE"
);
},
{
closed = 1;
nodes = (
"626.25 250 OFFCURVE",
"618.94 248.51 OFFCURVE",
"612.08 245.54 CURVE SMOOTH",
"589.36 235.68 OFFCURVE",
"578 216.83 OFFCURVE",
"578 189 CURVE SMOOTH",
"578.13 180.56 OFFCURVE",
"579.79 172.26 OFFCURVE",
"582.98 164.08 CURVE SMOOTH",
"592.65 141.36 OFFCURVE",
"609.66 130 OFFCURVE",
"634 130 CURVE SMOOTH",
"641.49 130.12 OFFCURVE",
"648.84 131.5 OFFCURVE",
"656.04 134.14 CURVE SMOOTH",
"678.68 143.34 OFFCURVE",
"690 161.62 OFFCURVE",
"690 189 CURVE SMOOTH",
"689.9 196.58 OFFCURVE",
"688.78 204.07 OFFCURVE",
"686.64 211.47 CURVE SMOOTH",
"678.44 237.16 OFFCURVE",
"660.89 250 OFFCURVE",
"634 250 CURVE SMOOTH"
);
},
{
closed = 1;
nodes = (
"225.99 71.85 OFFCURVE",
"218.06 70.12 OFFCURVE",
"210.23 66.79 CURVE SMOOTH",
"188.07 56.46 OFFCURVE",
"177 38.19 OFFCURVE",
"177 12 CURVE SMOOTH",
"177.15 3.17 OFFCURVE",
"179.02 -5.54 OFFCURVE",
"182.61 -14.13 CURVE SMOOTH",
"192.9 -36.71 OFFCURVE",
"210.03 -48 OFFCURVE",
"234 -48 CURVE SMOOTH",
"242.1 -48 OFFCURVE",
"249.66 -46.47 OFFCURVE",
"256.67 -43.41 CURVE SMOOTH",
"278.89 -33.71 OFFCURVE",
"290 -15.24 OFFCURVE",
"290 12 CURVE SMOOTH",
"289.9 19.67 OFFCURVE",
"288.7 27.23 OFFCURVE",
"286.41 34.68 CURVE SMOOTH",
"277.96 59.56 OFFCURVE",
"260.49 72 OFFCURVE",
"234 72 CURVE SMOOTH"
);
}
);
vertWidth = 1000;
width = 808;
}
);
note = u1B1A8;
unicode = 1B1A8;
},
{
glyphname = u1B1A9;
layers = (
{
hints = (
{
place = "{498, 83}";
type = Stem;
}
);
layerId = "BCE9B1DB-4CCD-4D9A-B53B-B8E8A67648C8";
paths = (
{
closed = 1;
nodes = (
"614 488 LINE",
"571.52 416.87 OFFCURVE",
"513.85 353.53 OFFCURVE",
"441 298 CURVE",
"388 405 LINE",
"493.96 484.58 OFFCURVE",
"547.29 581.58 OFFCURVE",
"548 696 CURVE SMOOTH",
"547.96 715.38 OFFCURVE",
"546.63 733.71 OFFCURVE",
"544 751 CURVE",
"601.99 814.1 OFFCURVE",
"649.33 887.1 OFFCURVE",
"686 970 CURVE",
"608 1000 LINE",
"525.28 813.56 OFFCURVE",
"367.61 676.89 OFFCURVE",
"135 590 CURVE",
"162 509 LINE",
"280.7 552.38 OFFCURVE",
"382.03 608.38 OFFCURVE",
"466 677 CURVE",
"455.81 551.28 OFFCURVE",
"340.14 445.95 OFFCURVE",
"119 361 CURVE",
"147 281 LINE",
"215.47 307.13 OFFCURVE",
"272.13 333.13 OFFCURVE",
"317 359 CURVE",
"371 250 LINE",
"306.25 211.24 OFFCURVE",
"237.25 179.57 OFFCURVE",
"164 155 CURVE",
"188 75 LINE",
"308.44 115.6 OFFCURVE",
"411.77 169.6 OFFCURVE",
"498 237 CURVE",
"497.58 225.25 OFFCURVE",
"496.22 213.33 OFFCURVE",
"493.93 201.23 CURVE SMOOTH",
"474.5 103.35 OFFCURVE",
"391.85 21.94 OFFCURVE",
"246 -43 CURVE",
"279 -120 LINE",
"479.35 -26.57 OFFCURVE",
"580.01 97.1 OFFCURVE",
"581 251 CURVE SMOOTH",
"580.94 265.24 OFFCURVE",
"579.27 283.57 OFFCURVE",
"576 306 CURVE",
"619.47 349.62 OFFCURVE",
"656.13 396.95 OFFCURVE",
"686 448 CURVE"
);
}
);
vertWidth = 1000;
width = 808;
}
);
note = u1B1A9;
unicode = 1B1A9;
},
{
glyphname = u1B1AA;
layers = (
{
hints = (
{
horizontal = 1;
place = "{9, 79}";
type = Stem;
},
{
horizontal = 1;
place = "{243, 78}";
type = Stem;
},
{
place = "{87, 87}";
type = Stem;
},
{
place = "{263, 86}";
type = Stem;
},
{
place = "{629, 87}";
type = Stem;
},
{
place = "{555, 84}";
type = Stem;
},
{
place = "{499, 85}";
type = Stem;
}
);
layerId = "BCE9B1DB-4CCD-4D9A-B53B-B8E8A67648C8";
paths = (
{
closed = 1;
nodes = (
"665.71 794.39 OFFCURVE",
"700.71 888.06 OFFCURVE",
"716 990 CURVE",
"629 1000 LINE",
"596.5 793.44 OFFCURVE",
"476.84 634.77 OFFCURVE",
"270 524 CURVE",
"307 448 LINE",
"399.25 491.43 OFFCURVE",
"478.92 550.09 OFFCURVE",
"546 624 CURVE",
"552 598 OFFCURVE",
"555 574 OFFCURVE",
"555 552 CURVE SMOOTH",
"554.88 526.25 OFFCURVE",
"550.49 501.32 OFFCURVE",
"541.81 477.22 CURVE SMOOTH",
"514.97 404.83 OFFCURVE",
"440.03 336.09 OFFCURVE",
"317 271 CURVE",
"292.04 303.68 OFFCURVE",
"259.7 320.34 OFFCURVE",
"220 321 CURVE SMOOTH",
"194.63 320.79 OFFCURVE",
"171.23 313.58 OFFCURVE",
"149.81 299.37 CURVE SMOOTH",
"107.93 270.62 OFFCURVE",
"87 225.16 OFFCURVE",
"87 163 CURVE SMOOTH",
"87.19 127.59 OFFCURVE",
"95.46 96.49 OFFCURVE",
"111.82 69.72 CURVE SMOOTH",
"137.3 29.24 OFFCURVE",
"173.36 9 OFFCURVE",
"220 9 CURVE SMOOTH",
"244.51 9.22 OFFCURVE",
"267.23 16.4 OFFCURVE",
"288.16 30.53 CURVE SMOOTH",
"328.72 58.89 OFFCURVE",
"349 103.05 OFFCURVE",
"349 163 CURVE SMOOTH",
"348.95 169.43 OFFCURVE",
"348.28 178.1 OFFCURVE",
"347 189 CURVE",
"408.61 219.88 OFFCURVE",
"459.61 251.55 OFFCURVE",
"500 284 CURVE",
"517.79 140.85 OFFCURVE",
"517.46 8.18 OFFCURVE",
"499 -114 CURVE",
"584 -120 LINE",
"584.17 -118.81 OFFCURVE",
"584.39 -117.29 OFFCURVE",
"584.65 -115.43 CURVE SMOOTH",
"605.37 33.15 OFFCURVE",
"602.16 191.63 OFFCURVE",
"575 360 CURVE",
"617.22 416.66 OFFCURVE",
"638.56 479.66 OFFCURVE",
"639 549 CURVE SMOOTH",
"638.9 601.21 OFFCURVE",
"629.56 654.55 OFFCURVE",
"611 709 CURVE"
);
},
{
closed = 1;
nodes = (
"217.71 88.06 OFFCURVE",
"215.14 88.3 OFFCURVE",
"212.3 88.73 CURVE SMOOTH",
"186.77 93.74 OFFCURVE",
"174 118.83 OFFCURVE",
"174 164 CURVE SMOOTH",
"174.04 172.07 OFFCURVE",
"174.57 180.02 OFFCURVE",
"175.57 187.84 CURVE SMOOTH",
"180.77 224.61 OFFCURVE",
"195.57 243 OFFCURVE",
"220 243 CURVE SMOOTH",
"223.22 242.9 OFFCURVE",
"226.65 242.31 OFFCURVE",
"230.32 241.23 CURVE SMOOTH",
"252.11 233.42 OFFCURVE",
"263 207.68 OFFCURVE",
"263 164 CURVE SMOOTH",
"262.95 154.63 OFFCURVE",
"262.22 145.56 OFFCURVE",
"260.81 136.81 CURVE SMOOTH",
"255.12 104.27 OFFCURVE",
"241.52 88 OFFCURVE",
"220 88 CURVE SMOOTH"
);
}
);
vertWidth = 1000;
width = 808;
}
);
note = u1B1AA;
unicode = 1B1AA;
},
{
glyphname = u1B1AB;
layers = (
{
hints = (
{
place = "{168, 84}";
type = Stem;
},
{
place = "{322, 82}";
type = Stem;
},
{
place = "{584, 85}";
type = Stem;
}
);
layerId = "BCE9B1DB-4CCD-4D9A-B53B-B8E8A67648C8";
paths = (
{
closed = 1;
nodes = (
"467.67 728.81 OFFCURVE",
"498.33 763.81 OFFCURVE",
"524 796 CURVE",
"554.74 686.74 OFFCURVE",
"574.74 559.08 OFFCURVE",
"584 413 CURVE",
"669 419 LINE",
"659.77 598.73 OFFCURVE",
"627.1 767.73 OFFCURVE",
"571 926 CURVE",
"515 932 LINE",
"489.99 894.59 OFFCURVE",
"456.65 851.26 OFFCURVE",
"415 802 CURVE",
"404.02 860.41 OFFCURVE",
"389.36 926.41 OFFCURVE",
"371 1000 CURVE",
"288 976 LINE",
"311.07 883.62 OFFCURVE",
"328.74 798.95 OFFCURVE",
"341 722 CURVE",
"274.55 652.58 OFFCURVE",
"207.89 591.25 OFFCURVE",
"141 538 CURVE",
"154.06 495.64 OFFCURVE",
"164.94 454.01 OFFCURVE",
"173.63 413.11 CURVE SMOOTH",
"207.83 250.85 OFFCURVE",
"205.96 76.81 OFFCURVE",
"168 -109 CURVE",
"252 -120 LINE",
"299.14 92.14 OFFCURVE",
"295.47 301.8 OFFCURVE",
"241 509 CURVE",
"281.04 542.76 OFFCURVE",
"319.38 577.43 OFFCURVE",
"356 613 CURVE",
"375.39 434.46 OFFCURVE",
"364.06 260.13 OFFCURVE",
"322 90 CURVE",
"404 74 LINE",
"430.74 184.11 OFFCURVE",
"445.74 295.78 OFFCURVE",
"449 409 CURVE",
"501.07 331.75 OFFCURVE",
"547.4 245.42 OFFCURVE",
"588 150 CURVE",
"665 185 LINE",
"606.69 316.43 OFFCURVE",
"534.02 437.1 OFFCURVE",
"447 547 CURVE",
"444 594 OFFCURVE",
"439 642 OFFCURVE",
"432 691 CURVE"
);
}
);
vertWidth = 1000;
width = 808;
}
);
note = u1B1AB;
unicode = 1B1AB;
},
{
glyphname = u1B1AC;
layers = (
{
hints = (
{
place = "{527, 87}";
type = Stem;
},
{
place = "{557, 85}";
type = Stem;
}
);
layerId = "BCE9B1DB-4CCD-4D9A-B53B-B8E8A67648C8";
paths = (
{
closed = 1;
nodes = (
"721 82 LINE",
"685.03 149.65 OFFCURVE",
"641.36 215.32 OFFCURVE",
"590 279 CURVE",
"606 334 OFFCURVE",
"614 392 OFFCURVE",
"614 453 CURVE SMOOTH",
"613.88 541.92 OFFCURVE",
"596.55 636.58 OFFCURVE",
"562 737 CURVE",
"594.39 809.8 OFFCURVE",
"621.06 890.8 OFFCURVE",
"642 980 CURVE",
"557 1000 LINE",
"507.04 797.89 OFFCURVE",
"414.7 621.22 OFFCURVE",
"280 470 CURVE",
"280 465 LINE",
"356.48 402.68 OFFCURVE",
"426.48 334.35 OFFCURVE",
"490 260 CURVE",
"467.26 203.06 OFFCURVE",
"432.6 148.06 OFFCURVE",
"386 95 CURVE",
"359.83 127.68 OFFCURVE",
"334.83 157.35 OFFCURVE",
"311 184 CURVE",
"340.09 219.4 OFFCURVE",
"366.75 256.4 OFFCURVE",
"391 295 CURVE",
"321 343 LINE",
"301.3 310.27 OFFCURVE",
"278.63 277.27 OFFCURVE",
"253 244 CURVE",
"214.49 281.37 OFFCURVE",
"178.16 314.03 OFFCURVE",
"144 342 CURVE",
"91 282 LINE",
"130.08 247.11 OFFCURVE",
"165.75 213.11 OFFCURVE",
"198 180 CURVE",
"160.91 140.94 OFFCURVE",
"122.91 106.61 OFFCURVE",
"84 77 CURVE",
"129 12 LINE",
"170.53 41.37 OFFCURVE",
"211.86 77.03 OFFCURVE",
"253 119 CURVE",
"278 91 OFFCURVE",
"302 62 OFFCURVE",
"325 32 CURVE",
"299.71 8.47 OFFCURVE",
"266.37 -18.86 OFFCURVE",
"225 -50 CURVE",
"272 -120 LINE",
"404.31 -26.56 OFFCURVE",
"497.64 74.44 OFFCURVE",
"552 183 CURVE",
"589.65 134.06 OFFCURVE",
"620.98 85.72 OFFCURVE",
"646 38 CURVE"
);
},
{
closed = 1;
nodes = (
"440.07 525.46 OFFCURVE",
"473.74 574.46 OFFCURVE",
"502 622 CURVE",
"518.45 566.8 OFFCURVE",
"526.79 510.8 OFFCURVE",
"527 454 CURVE SMOOTH",
"526.94 424.33 OFFCURVE",
"524.27 393.33 OFFCURVE",
"519 361 CURVE",
"478.46 404.59 OFFCURVE",
"439.13 442.59 OFFCURVE",
"401 475 CURVE"
);
}
);
vertWidth = 1000;
width = 808;
}
);
note = u1B1AC;
unicode = 1B1AC;
},
{
glyphname = u1B1AD;
layers = (
{
hints = (
{
place = "{353, 88}";
type = Stem;
}
);
layerId = "BCE9B1DB-4CCD-4D9A-B53B-B8E8A67648C8";
paths = (
{
closed = 1;
nodes = (
"432.86 877.76 OFFCURVE",
"439.86 936.09 OFFCURVE",
"441 999 CURVE",
"353 1000 LINE",
"352.45 945.1 OFFCURVE",
"346.58 892.7 OFFCURVE",
"335.4 842.8 CURVE SMOOTH",
"303.3 701.43 OFFCURVE",
"220.16 569.83 OFFCURVE",
"86 448 CURVE",
"140 385 LINE",
"263.43 496.5 OFFCURVE",
"348.1 612.83 OFFCURVE",
"394 734 CURVE",
"479.02 651.64 OFFCURVE",
"565.35 544.64 OFFCURVE",
"653 413 CURVE",
"725 464 LINE",
"715.82 477.43 OFFCURVE",
"706.59 490.73 OFFCURVE",
"697.31 503.91 CURVE SMOOTH",
"616.5 618.36 OFFCURVE",
"524.07 725.06 OFFCURVE",
"420 824 CURVE"
);
},
{
closed = 1;
nodes = (
"232 265 LINE",
"336.1 359.36 OFFCURVE",
"418.77 462.03 OFFCURVE",
"480 573 CURVE",
"410 614 LINE",
"356.27 512.65 OFFCURVE",
"279.61 416.65 OFFCURVE",
"180 326 CURVE"
);
},
{
closed = 1;
nodes = (
"246 82 LINE",
"354.98 172.64 OFFCURVE",
"446.98 274.97 OFFCURVE",
"522 389 CURVE",
"454 434 LINE",
"451.41 429.95 OFFCURVE",
"448.54 425.55 OFFCURVE",
"445.4 420.8 CURVE SMOOTH",
"377.57 318.49 OFFCURVE",
"294.43 226.89 OFFCURVE",
"196 146 CURVE"
);
},
{
closed = 1;
nodes = (
"243 -120 LINE",
"368.74 -24.49 OFFCURVE",
"480.74 91.51 OFFCURVE",
"579 228 CURVE",
"511 277 LINE",
"421.47 154.5 OFFCURVE",
"315.47 44.84 OFFCURVE",
"193 -52 CURVE"
);
}
);
vertWidth = 1000;
width = 808;
}
);
note = u1B1AD;
unicode = 1B1AD;
},
{
glyphname = u1B1AE;
layers = (
{
hints = (
{
place = "{380, 87}";
type = Stem;
}
);
layerId = "BCE9B1DB-4CCD-4D9A-B53B-B8E8A67648C8";
paths = (
{
closed = 1;
nodes = (
"460.28 871.05 OFFCURVE",
"465.95 935.71 OFFCURVE",
"467 1000 CURVE",
"380 1000 LINE",
"379.76 978.31 OFFCURVE",
"378.96 956.36 OFFCURVE",
"377.58 934.13 CURVE SMOOTH",
"366.64 761.43 OFFCURVE",
"325.44 615.38 OFFCURVE",
"254 496 CURVE",
"145 721 LINE",
"68 683 LINE",
"217 385 LINE",
"279 378 LINE",
"347.33 469.38 OFFCURVE",
"397.66 579.71 OFFCURVE",
"430 709 CURVE",
"504.56 624.12 OFFCURVE",
"578.23 521.78 OFFCURVE",
"651 402 CURVE",
"726 447 LINE",
"643.08 582.08 OFFCURVE",
"551.08 701.75 OFFCURVE",
"450 806 CURVE"
);
},
{
closed = 1;
nodes = (
"437 514 LINE",
"389.5 392.36 OFFCURVE",
"324.83 278.69 OFFCURVE",
"243 173 CURVE",
"310 124 LINE",
"393.43 228.03 OFFCURVE",
"461.76 347.69 OFFCURVE",
"515 483 CURVE"
);
},
{
closed = 1;
nodes = (
"330 -120 LINE",
"338.18 -110.37 OFFCURVE",
"346.71 -100.03 OFFCURVE",
"355.58 -88.97 CURVE SMOOTH",
"448.59 27.49 OFFCURVE",
"529.07 159.15 OFFCURVE",
"597 306 CURVE",
"519 340 LINE",
"512.61 325.73 OFFCURVE",
"505.61 310.81 OFFCURVE",
"498 295.24 CURVE SMOOTH",
"431.92 160.55 OFFCURVE",
"353.59 40.14 OFFCURVE",
"263 -66 CURVE"
);
}
);
vertWidth = 1000;
width = 808;
}
);
note = u1B1AE;
unicode = 1B1AE;
},
{
glyphname = u1B1AF;
layers = (
{
hints = (
{
horizontal = 1;
place = "{240, 122}";
type = Stem;
},
{
horizontal = 1;
place = "{707, 122}";
type = Stem;
},
{
place = "{105, 115}";
type = Stem;
},
{
place = "{303, 88}";
type = Stem;
},
{
place = "{603, 86}";
type = Stem;
},
{
place = "{373, 115}";
type = Stem;
}
);
layerId = "BCE9B1DB-4CCD-4D9A-B53B-B8E8A67648C8";
paths = (
{
closed = 1;
nodes = (
"573 513 LINE",
"577.28 520.8 OFFCURVE",
"581.61 529.01 OFFCURVE",
"585.97 537.64 CURVE SMOOTH",
"642.51 650.2 OFFCURVE",
"676.85 803.65 OFFCURVE",
"689 998 CURVE",
"603 1000 LINE",
"594.83 877.87 OFFCURVE",
"579.12 777.46 OFFCURVE",
"555.86 698.77 CURVE SMOOTH",
"524.14 592.31 OFFCURVE",
"467.19 495.72 OFFCURVE",
"385 409 CURVE",
"370.27 532.95 OFFCURVE",
"328.27 657.61 OFFCURVE",
"259 783 CURVE",
"183 737 LINE",
"262.62 590.35 OFFCURVE",
"302.62 449.02 OFFCURVE",
"303 313 CURVE SMOOTH",
"302.85 178.99 OFFCURVE",
"268.18 48.32 OFFCURVE",
"199 -79 CURVE",
"277 -120 LINE",
"348.3 11.34 OFFCURVE",
"386.3 148.01 OFFCURVE",
"391 290 CURVE",
"437.01 332.01 OFFCURVE",
"476.34 374.01 OFFCURVE",
"509 416 CURVE",
"611 33 LINE",
"694 56 LINE"
);
},
{
closed = 1;
nodes = (
"438.47 707.14 OFFCURVE",
"446.73 708.93 OFFCURVE",
"454.8 712.36 CURVE SMOOTH",
"476.93 722.68 OFFCURVE",
"488 740.9 OFFCURVE",
"488 767 CURVE SMOOTH",
"487.88 775.54 OFFCURVE",
"486.36 783.93 OFFCURVE",
"483.45 792.17 CURVE SMOOTH",
"473.95 816.72 OFFCURVE",
"456.14 829 OFFCURVE",
"430 829 CURVE SMOOTH",
"422.03 828.86 OFFCURVE",
"414.2 827.17 OFFCURVE",
"406.51 823.93 CURVE SMOOTH",
"384.17 813.58 OFFCURVE",
"373 794.61 OFFCURVE",
"373 767 CURVE SMOOTH",
"373.13 758.68 OFFCURVE",
"374.74 750.44 OFFCURVE",
"377.84 742.28 CURVE SMOOTH",
"387.59 718.76 OFFCURVE",
"404.98 707 OFFCURVE",
"430 707 CURVE SMOOTH"
);
},
{
closed = 1;
nodes = (
"219.88 308.54 OFFCURVE",
"218.36 316.93 OFFCURVE",
"215.45 325.17 CURVE SMOOTH",
"205.95 349.72 OFFCURVE",
"188.14 362 OFFCURVE",
"162 362 CURVE SMOOTH",
"154.03 361.86 OFFCURVE",
"146.2 360.17 OFFCURVE",
"138.51 356.93 CURVE SMOOTH",
"116.17 346.58 OFFCURVE",
"105 327.61 OFFCURVE",
"105 300 CURVE SMOOTH",
"105.13 291.68 OFFCURVE",
"106.74 283.44 OFFCURVE",
"109.84 275.28 CURVE SMOOTH",
"119.59 251.76 OFFCURVE",
"136.98 240 OFFCURVE",
"162 240 CURVE SMOOTH",
"170.87 240 OFFCURVE",
"179.14 241.79 OFFCURVE",
"186.8 245.36 CURVE SMOOTH",
"208.93 255.68 OFFCURVE",
"220 273.9 OFFCURVE",
"220 300 CURVE SMOOTH"
);
}
);
vertWidth = 1000;
width = 808;
}
);
note = u1B1AF;
unicode = 1B1AF;
},
{
glyphname = u1B1B0;
layers = (
{
hints = (
{
place = "{118, 115}";
type = Stem;
},
{
place = "{500, 87}";
type = Stem;
},
{
place = "{596, 115}";
type = Stem;
},
{
horizontal = 1;
place = "{585, 122}";
type = Stem;
},
{
horizontal = 1;
place = "{507, 122}";
type = Stem;
}
);
layerId = "BCE9B1DB-4CCD-4D9A-B53B-B8E8A67648C8";
paths = (
{
closed = 1;
nodes = (
"500 1000 LINE",
"487.05 886.31 OFFCURVE",
"459.05 780.65 OFFCURVE",
"416 683 CURVE",
"355.17 752.87 OFFCURVE",
"290.84 817.87 OFFCURVE",
"223 878 CURVE",
"168 814 LINE",
"243.49 744.63 OFFCURVE",
"311.49 672.96 OFFCURVE",
"372 599 CURVE",
"310.63 493.14 OFFCURVE",
"225.3 393.48 OFFCURVE",
"116 300 CURVE",
"171 232 LINE",
"277.09 316.47 OFFCURVE",
"364.09 413.13 OFFCURVE",
"432 522 CURVE",
"489.32 444.11 OFFCURVE",
"538.32 366.11 OFFCURVE",
"579 288 CURVE",
"655 332 LINE",
"605.61 427.6 OFFCURVE",
"546.61 519.27 OFFCURVE",
"478 607 CURVE",
"536.49 725.27 OFFCURVE",
"572.82 853.6 OFFCURVE",
"587 992 CURVE"
);
},
{
closed = 1;
nodes = (
"645.37 706.84 OFFCURVE",
"636.92 704.89 OFFCURVE",
"628.64 701.14 CURVE SMOOTH",
"606.88 690.35 OFFCURVE",
"596 671.97 OFFCURVE",
"596 646 CURVE SMOOTH",
"596.14 637.29 OFFCURVE",
"597.96 628.65 OFFCURVE",
"601.46 620.07 CURVE SMOOTH",
"611.84 596.69 OFFCURVE",
"629.35 585 OFFCURVE",
"654 585 CURVE SMOOTH",
"662.58 585.16 OFFCURVE",
"670.97 587.17 OFFCURVE",
"679.17 591.03 CURVE SMOOTH",
"700.39 601.97 OFFCURVE",
"711 620.29 OFFCURVE",
"711 646 CURVE SMOOTH",
"710.87 654.43 OFFCURVE",
"709.31 662.74 OFFCURVE",
"706.32 670.95 CURVE SMOOTH",
"696.73 694.98 OFFCURVE",
"679.29 707 OFFCURVE",
"654 707 CURVE SMOOTH"
);
},
{
closed = 1;
nodes = (
"183.98 507.16 OFFCURVE",
"192.7 509.23 OFFCURVE",
"201.17 513.2 CURVE SMOOTH",
"222.39 524.07 OFFCURVE",
"233 542 OFFCURVE",
"233 567 CURVE SMOOTH",
"232.88 575.54 OFFCURVE",
"231.36 583.93 OFFCURVE",
"228.45 592.17 CURVE SMOOTH",
"218.95 616.72 OFFCURVE",
"201.14 629 OFFCURVE",
"175 629 CURVE SMOOTH",
"166.75 628.84 OFFCURVE",
"158.63 626.94 OFFCURVE",
"150.63 623.3 CURVE SMOOTH",
"128.88 612.45 OFFCURVE",
"118 593.68 OFFCURVE",
"118 567 CURVE SMOOTH",
"118.16 557.89 OFFCURVE",
"120.25 548.86 OFFCURVE",
"124.26 539.93 CURVE SMOOTH",
"134.96 517.98 OFFCURVE",
"151.88 507 OFFCURVE",
"175 507 CURVE SMOOTH"
);
},
{
closed = 1;
nodes = (
"366 333 LINE",
"379.7 162.58 OFFCURVE",
"376.7 14.91 OFFCURVE",
"357 -110 CURVE",
"442 -120 LINE",
"462.55 16.06 OFFCURVE",
"465.55 170.73 OFFCURVE",
"451 344 CURVE"
);
}
);
vertWidth = 1000;
width = 808;
}
);
note = u1B1B0;
unicode = 1B1B0;
},
{
glyphname = u1B1B1;
layers = (
{
hints = (
{
place = "{247, 79}";
type = Stem;
},
{
place = "{453, 77}";
type = Stem;
}
);
layerId = "BCE9B1DB-4CCD-4D9A-B53B-B8E8A67648C8";
paths = (
{
closed = 1;
nodes = (
"602 259 LINE",
"638.8 311.79 OFFCURVE",
"672.13 366.46 OFFCURVE",
"702 423 CURVE",
"629 461 LINE",
"607.83 419.78 OFFCURVE",
"585.49 380.78 OFFCURVE",
"562 344 CURVE",
"493 485 LINE",
"421 448 LINE",
"509 266 LINE",
"478.01 224.3 OFFCURVE",
"451.34 190.64 OFFCURVE",
"429 165 CURVE",
"411.5 269.62 OFFCURVE",
"381.5 387.96 OFFCURVE",
"339 520 CURVE",
"431.61 655.77 OFFCURVE",
"495.27 811.77 OFFCURVE",
"530 988 CURVE",
"453 1000 LINE",
"425.34 858.34 OFFCURVE",
"376.67 730.34 OFFCURVE",
"307 616 CURVE",
"280.57 688.9 OFFCURVE",
"254.9 755.57 OFFCURVE",
"230 816 CURVE",
"156 782 LINE",
"191.88 697.87 OFFCURVE",
"223.55 615.21 OFFCURVE",
"251 534 CURVE",
"210.2 480.37 OFFCURVE",
"162.87 427.04 OFFCURVE",
"109 374 CURVE",
"163 315 LINE",
"205.33 355.43 OFFCURVE",
"244.66 397.77 OFFCURVE",
"281 442 CURVE",
"321.88 308.7 OFFCURVE",
"349.55 185.7 OFFCURVE",
"364 73 CURVE",
"430 49 LINE",
"471.4 91.48 OFFCURVE",
"510.73 136.82 OFFCURVE",
"548 185 CURVE",
"631 15 LINE",
"703 52 LINE"
);
},
{
closed = 1;
nodes = (
"167 198 LINE",
"208.04 96.91 OFFCURVE",
"234.71 -9.09 OFFCURVE",
"247 -120 CURVE",
"326 -107 LINE",
"311.94 13.76 OFFCURVE",
"282.6 126.76 OFFCURVE",
"238 232 CURVE"
);
}
);
vertWidth = 1000;
width = 808;
}
);
note = u1B1B1;
unicode = 1B1B1;
},
{
glyphname = u1B1B2;
layers = (
{
hints = (
{
horizontal = 1;
place = "{416, 73}";
type = Stem;
},
{
horizontal = 1;
place = "{645, 73}";
type = Stem;
},
{
place = "{68, 91}";
type = Stem;
},
{
place = "{238, 90}";
type = Stem;
},
{
place = "{460, 86}";
type = Stem;
},
{
place = "{564, 86}";
type = Stem;
}
);
layerId = "BCE9B1DB-4CCD-4D9A-B53B-B8E8A67648C8";
paths = (
{
closed = 1;
nodes = (
"610.27 724.98 OFFCURVE",
"638.94 854.65 OFFCURVE",
"650 995 CURVE",
"564 1000 LINE",
"555.06 891.72 OFFCURVE",
"534.06 788.72 OFFCURVE",
"501 691 CURVE",
"442.29 766.79 OFFCURVE",
"379.63 835.12 OFFCURVE",
"313 896 CURVE",
"254 835 LINE",
"321.19 771.56 OFFCURVE",
"390.53 690.9 OFFCURVE",
"462 593 CURVE",
"407.03 474.43 OFFCURVE",
"330.37 365.76 OFFCURVE",
"232 267 CURVE",
"292 204 LINE",
"386.25 295.42 OFFCURVE",
"462.25 397.09 OFFCURVE",
"520 509 CURVE",
"576.2 424.07 OFFCURVE",
"620.87 344.73 OFFCURVE",
"654 271 CURVE",
"732 312 LINE",
"685.31 412.34 OFFCURVE",
"629.31 510.34 OFFCURVE",
"564 606 CURVE"
);
},
{
closed = 1;
nodes = (
"327.81 600.59 OFFCURVE",
"319.73 631.73 OFFCURVE",
"303.73 658.43 CURVE SMOOTH",
"279.21 698.14 OFFCURVE",
"244.63 718 OFFCURVE",
"200 718 CURVE SMOOTH",
"175.06 717.79 OFFCURVE",
"152 710.87 OFFCURVE",
"130.8 697.25 CURVE SMOOTH",
"88.93 669.39 OFFCURVE",
"68 625.3 OFFCURVE",
"68 565 CURVE SMOOTH",
"68.19 530.46 OFFCURVE",
"76.44 500.24 OFFCURVE",
"92.72 474.34 CURVE SMOOTH",
"117.94 435.45 OFFCURVE",
"153.7 416 OFFCURVE",
"200 416 CURVE SMOOTH",
"223.66 416.21 OFFCURVE",
"245.68 422.76 OFFCURVE",
"266.06 435.65 CURVE SMOOTH",
"307.35 462.73 OFFCURVE",
"328 505.84 OFFCURVE",
"328 565 CURVE SMOOTH"
);
},
{
closed = 1;
nodes = (
"175.31 491.97 OFFCURVE",
"161.64 517.63 OFFCURVE",
"159 566 CURVE SMOOTH",
"159.03 572.28 OFFCURVE",
"159.32 578.62 OFFCURVE",
"159.86 585.02 CURVE SMOOTH",
"163.67 625 OFFCURVE",
"177.05 645 OFFCURVE",
"200 645 CURVE SMOOTH",
"201.45 644.95 OFFCURVE",
"203.22 644.77 OFFCURVE",
"205.29 644.47 CURVE SMOOTH",
"227.09 639.98 OFFCURVE",
"238 613.82 OFFCURVE",
"238 566 CURVE SMOOTH",
"237.99 562.63 OFFCURVE",
"237.9 559.01 OFFCURVE",
"237.75 555.13 CURVE SMOOTH",
"235.64 511.04 OFFCURVE",
"223.05 489 OFFCURVE",
"200 489 CURVE"
);
},
{
closed = 1;
nodes = (
"460 321 LINE",
"474.88 161.33 OFFCURVE",
"470.55 19 OFFCURVE",
"447 -106 CURVE",
"532 -120 LINE",
"536.03 -100.35 OFFCURVE",
"539.66 -78.57 OFFCURVE",
"542.88 -54.66 CURVE SMOOTH",
"560.1 75.09 OFFCURVE",
"561.14 203.65 OFFCURVE",
"546 331 CURVE"
);
}
);
vertWidth = 1000;
width = 808;
}
);
note = u1B1B2;
unicode = 1B1B2;
},
{
glyphname = u1B1B3;
layers = (
{
hints = (
{
horizontal = 1;
place = "{-56, 123}";
type = Stem;
},
{
horizontal = 1;
place = "{94, 122}";
type = Stem;
},
{
place = "{127, 116}";
type = Stem;
},
{
place = "{346, 88}";
type = Stem;
},
{
place = "{487, 89}";
type = Stem;
},
{
place = "{551, 88}";
type = Stem;
},
{
place = "{560, 115}";
type = Stem;
}
);
layerId = "BCE9B1DB-4CCD-4D9A-B53B-B8E8A67648C8";
paths = (
{
closed = 1;
nodes = (
"575.9 648.75 OFFCURVE",
"568.9 696.75 OFFCURVE",
"555 748 CURVE",
"595.29 818.29 OFFCURVE",
"623.29 898.29 OFFCURVE",
"639 988 CURVE",
"551 1000 LINE",
"547.31 977.86 OFFCURVE",
"542.5 955.89 OFFCURVE",
"536.56 934.11 CURVE SMOOTH",
"485.2 747.9 OFFCURVE",
"357.01 609.53 OFFCURVE",
"152 519 CURVE",
"184 439 LINE",
"307.49 490.16 OFFCURVE",
"407.16 559.49 OFFCURVE",
"483 647 CURVE",
"485.55 631.28 OFFCURVE",
"486.89 613.95 OFFCURVE",
"487 595 CURVE SMOOTH",
"486.27 468.06 OFFCURVE",
"368.6 358.73 OFFCURVE",
"134 267 CURVE",
"160 182 LINE",
"231.69 206.64 OFFCURVE",
"293.36 233.98 OFFCURVE",
"345 264 CURVE",
"361.81 134.04 OFFCURVE",
"362.15 8.37 OFFCURVE",
"346 -113 CURVE",
"434 -120 LINE",
"434.23 -118.26 OFFCURVE",
"434.49 -116.18 OFFCURVE",
"434.8 -113.77 CURVE SMOOTH",
"452.57 28.1 OFFCURVE",
"450.64 172.69 OFFCURVE",
"429 320 CURVE",
"526.33 399.27 OFFCURVE",
"575.33 493.94 OFFCURVE",
"576 604 CURVE SMOOTH"
);
},
{
closed = 1;
nodes = (
"609.23 215.86 OFFCURVE",
"601.54 214.22 OFFCURVE",
"593.93 211.08 CURVE SMOOTH",
"571.31 200.8 OFFCURVE",
"560 181.77 OFFCURVE",
"560 154 CURVE SMOOTH",
"560.14 144.93 OFFCURVE",
"562.01 136.07 OFFCURVE",
"565.61 127.44 CURVE SMOOTH",
"575.73 105.15 OFFCURVE",
"592.86 94 OFFCURVE",
"617 94 CURVE SMOOTH",
"624.61 94.12 OFFCURVE",
"632.08 95.46 OFFCURVE",
"639.4 98.02 CURVE SMOOTH",
"663.13 107.21 OFFCURVE",
"675 125.87 OFFCURVE",
"675 154 CURVE SMOOTH",
"674.9 161.66 OFFCURVE",
"673.77 169.22 OFFCURVE",
"671.61 176.67 CURVE SMOOTH",
"663.21 202.89 OFFCURVE",
"645.01 216 OFFCURVE",
"617 216 CURVE SMOOTH"
);
},
{
closed = 1;
nodes = (
"177.58 67 OFFCURVE",
"169.64 65.36 OFFCURVE",
"162.18 62.08 CURVE SMOOTH",
"138.73 51.78 OFFCURVE",
"127 32.75 OFFCURVE",
"127 5 CURVE SMOOTH",
"127.14 -3.93 OFFCURVE",
"129.03 -12.72 OFFCURVE",
"132.65 -21.36 CURVE SMOOTH",
"143.18 -44.45 OFFCURVE",
"160.96 -56 OFFCURVE",
"186 -56 CURVE SMOOTH",
"193.79 -55.87 OFFCURVE",
"201.42 -54.33 OFFCURVE",
"208.91 -51.4 CURVE SMOOTH",
"231.64 -41.56 OFFCURVE",
"243 -22.76 OFFCURVE",
"243 5 CURVE SMOOTH",
"242.89 13.22 OFFCURVE",
"241.6 21.27 OFFCURVE",
"239.13 29.15 CURVE SMOOTH",
"230.42 54.39 OFFCURVE",
"212.71 67 OFFCURVE",
"186 67 CURVE SMOOTH"
);
}
);
vertWidth = 1000;
width = 808;
}
);
note = u1B1B3;
unicode = 1B1B3;
},
{
glyphname = u1B1B4;
layers = (
{
hints = (
{
place = "{396, 87}";
type = Stem;
}
);
layerId = "BCE9B1DB-4CCD-4D9A-B53B-B8E8A67648C8";
paths = (
{
closed = 1;
nodes = (
"499 469 LINE",
"434.4 360 OFFCURVE",
"365.73 258.67 OFFCURVE",
"293 165 CURVE",
"222 269 LINE",
"316.44 395.5 OFFCURVE",
"382.38 506.83 OFFCURVE",
"419.83 603 CURVE SMOOTH",
"461.42 710.59 OFFCURVE",
"482.48 842.92 OFFCURVE",
"483 1000 CURVE",
"396 997 LINE",
"396.4 860.69 OFFCURVE",
"378.38 743.78 OFFCURVE",
"341.93 646.28 CURVE SMOOTH",
"302.45 541.53 OFFCURVE",
"224.48 416.1 OFFCURVE",
"108 270 CURVE",
"373 -119 LINE",
"426 -121 LINE",
"516.26 -8.08 OFFCURVE",
"606.93 121.25 OFFCURVE",
"698 267 CURVE",
"563 473 LINE"
);
},
{
closed = 1;
nodes = (
"345 89 LINE",
"411.59 176.22 OFFCURVE",
"473.59 265.89 OFFCURVE",
"531 358 CURVE",
"593 265 LINE",
"536.02 172.49 OFFCURVE",
"473.69 83.49 OFFCURVE",
"406 -2 CURVE"
);
}
);
vertWidth = 1000;
width = 808;
}
);
note = u1B1B4;
unicode = 1B1B4;
},
{
glyphname = u1B1B5;
layers = (
{
hints = (
{
horizontal = 1;
place = "{316, 81}";
type = Stem;
},
{
horizontal = 1;
place = "{487, 81}";
type = Stem;
},
{
place = "{386, 88}";
type = Stem;
},
{
place = "{461, 83}";
type = Stem;
},
{
horizontal = 1;
place = "{514, 125}";
type = Stem;
},
{
horizontal = 1;
place = "{230, 125}";
type = Stem;
},
{
place = "{573, 119}";
type = Stem;
}
);
layerId = "BCE9B1DB-4CCD-4D9A-B53B-B8E8A67648C8";
paths = (
{
closed = 1;
nodes = (
"473.86 498.45 OFFCURVE",
"457.53 577.11 OFFCURVE",
"425 648 CURVE",
"495.29 727.82 OFFCURVE",
"534.29 843.82 OFFCURVE",
"542 996 CURVE",
"459 1000 LINE",
"451.8 883.98 OFFCURVE",
"424.13 793.65 OFFCURVE",
"376 729 CURVE",
"330.49 790.99 OFFCURVE",
"268.49 844.33 OFFCURVE",
"190 889 CURVE",
"145 815 LINE",
"214.15 772.09 OFFCURVE",
"269.15 721.09 OFFCURVE",
"310 662 CURVE",
"262.6 625.64 OFFCURVE",
"199.26 594.31 OFFCURVE",
"120 568 CURVE",
"145 487 LINE",
"228.91 510.81 OFFCURVE",
"298.24 542.81 OFFCURVE",
"353 583 CURVE",
"374.74 531.26 OFFCURVE",
"385.74 474.93 OFFCURVE",
"386 414 CURVE SMOOTH",
"385.89 369.74 OFFCURVE",
"379.23 327.4 OFFCURVE",
"366 287 CURVE",
"308.49 334.2 OFFCURVE",
"235.49 370.87 OFFCURVE",
"147 397 CURVE",
"120 316 LINE",
"203.41 287.4 OFFCURVE",
"271.41 249.06 OFFCURVE",
"324 201 CURVE",
"286.31 143.43 OFFCURVE",
"228.64 90.43 OFFCURVE",
"151 42 CURVE",
"197 -35 LINE",
"279.27 15.39 OFFCURVE",
"342.27 70.05 OFFCURVE",
"386 129 CURVE",
"428.63 63.72 OFFCURVE",
"453.63 -19.28 OFFCURVE",
"461 -120 CURVE",
"544 -111 LINE",
"536.63 23.59 OFFCURVE",
"500.63 132.26 OFFCURVE",
"436 215 CURVE",
"461.08 274.54 OFFCURVE",
"473.75 340.21 OFFCURVE",
"474 412 CURVE SMOOTH"
);
},
{
closed = 1;
nodes = (
"635.14 514.12 OFFCURVE",
"643.09 515.61 OFFCURVE",
"650.85 518.47 CURVE SMOOTH",
"674.95 528.24 OFFCURVE",
"687 547.41 OFFCURVE",
"687 576 CURVE SMOOTH",
"686.89 584.32 OFFCURVE",
"685.59 592.44 OFFCURVE",
"683.08 600.36 CURVE SMOOTH",
"674.12 626.12 OFFCURVE",
"655.43 639 OFFCURVE",
"627 639 CURVE SMOOTH",
"619.4 638.88 OFFCURVE",
"611.88 637.47 OFFCURVE",
"604.46 634.78 CURVE SMOOTH",
"580.15 625.05 OFFCURVE",
"568 605.46 OFFCURVE",
"568 576 CURVE SMOOTH",
"568.13 566.92 OFFCURVE",
"569.9 558.06 OFFCURVE",
"573.31 549.41 CURVE SMOOTH",
"583.43 525.81 OFFCURVE",
"601.32 514 OFFCURVE",
"627 514 CURVE SMOOTH"
);
},
{
closed = 1;
nodes = (
"624.4 354.88 OFFCURVE",
"616.88 353.47 OFFCURVE",
"609.46 350.78 CURVE SMOOTH",
"585.15 341.05 OFFCURVE",
"573 321.46 OFFCURVE",
"573 292 CURVE SMOOTH",
"573.13 282.92 OFFCURVE",
"574.9 274.06 OFFCURVE",
"578.31 265.41 CURVE SMOOTH",
"588.43 241.81 OFFCURVE",
"606.32 230 OFFCURVE",
"632 230 CURVE SMOOTH",
"640.14 230.12 OFFCURVE",
"648.09 231.61 OFFCURVE",
"655.85 234.47 CURVE SMOOTH",
"679.95 244.24 OFFCURVE",
"692 263.41 OFFCURVE",
"692 292 CURVE SMOOTH",
"691.89 300.32 OFFCURVE",
"690.59 308.44 OFFCURVE",
"688.08 316.36 CURVE SMOOTH",
"679.12 342.12 OFFCURVE",
"660.43 355 OFFCURVE",
"632 355 CURVE SMOOTH"
);
}
);
vertWidth = 1000;
width = 808;
}
);
note = u1B1B5;
unicode = 1B1B5;
},
